<mxfile host="app.diagrams.net" modified="2023-08-17T11:22:57.629Z" agent="Mozilla/5.0 (Windows NT 10.0; Win64; x64) AppleWebKit/537.36 (KHTML, like Gecko) Chrome/115.0.0.0 Safari/537.36" etag="9-cHNFAeoFTwXhhzJ1-M" version="21.6.8" type="device">
  <diagram id="VcJM1TmA4Ai2eObTNV3Y" name="[1]">
    <mxGraphModel dx="1687" dy="853" grid="1" gridSize="2" guides="1" tooltips="1" connect="1" arrows="1" fold="1" page="1" pageScale="1" pageWidth="827" pageHeight="1169" background="#4d5766" math="0" shadow="0">
      <root>
        <mxCell id="0" />
        <mxCell id="1" parent="0" />
        <mxCell id="7C8ybS8YBStuCCjqtTJ8-1" value="" style="rounded=0;whiteSpace=wrap;html=1;fontSize=12;align=center;fontFamily=Manrope;fontSource=https%3A%2F%2Ffonts.googleapis.com%2Fcss%3Ffamily%3DManrope;fontColor=#FFFFFF;dashed=1;strokeColor=none;fillColor=#DDE9F5;" parent="1" vertex="1">
          <mxGeometry x="40" y="205" width="648" height="285" as="geometry" />
        </mxCell>
        <mxCell id="7C8ybS8YBStuCCjqtTJ8-2" value="&lt;span style=&quot;font-size: 14px&quot;&gt;Lab host&lt;/span&gt;" style="rounded=0;whiteSpace=wrap;html=1;fontSize=12;align=center;fontFamily=Manrope;fontSource=https%3A%2F%2Ffonts.googleapis.com%2Fcss%3Ffamily%3DManrope;dashed=1;strokeColor=none;fillColor=#98A2AE;fontColor=#FFFFFF;" parent="1" vertex="1">
          <mxGeometry x="40" y="185" width="648" height="20" as="geometry" />
        </mxCell>
        <mxCell id="7C8ybS8YBStuCCjqtTJ8-3" value="" style="rounded=0;whiteSpace=wrap;html=1;fontSize=12;align=center;strokeColor=none;fontFamily=Manrope;fontSource=https%3A%2F%2Ffonts.googleapis.com%2Fcss%3Ffamily%3DManrope;fontColor=#DDE9F5;fillColor=#BEC8D2;" parent="1" vertex="1">
          <mxGeometry x="50" y="365" width="190" height="89" as="geometry" />
        </mxCell>
        <mxCell id="7C8ybS8YBStuCCjqtTJ8-4" value="Linux" style="rounded=0;whiteSpace=wrap;html=1;fontSize=12;align=center;strokeColor=none;fontFamily=Manrope;fontSource=https%3A%2F%2Ffonts.googleapis.com%2Fcss%3Ffamily%3DManrope;fontColor=#FFFFFF;fillColor=#124191;" parent="1" vertex="1">
          <mxGeometry x="80" y="400" width="120" height="44" as="geometry" />
        </mxCell>
        <mxCell id="7C8ybS8YBStuCCjqtTJ8-5" value="eth0" style="rounded=0;whiteSpace=wrap;html=1;fontFamily=Manrope;fontSize=12;fontColor=#FFFFFF;align=center;fillColor=#4BDD33;strokeColor=none;" parent="1" vertex="1">
          <mxGeometry x="118.25" y="385" width="43.5" height="15" as="geometry" />
        </mxCell>
        <mxCell id="7C8ybS8YBStuCCjqtTJ8-6" value="" style="rounded=0;whiteSpace=wrap;html=1;fontSize=12;align=center;strokeColor=none;fontFamily=Manrope;fontSource=https%3A%2F%2Ffonts.googleapis.com%2Fcss%3Ffamily%3DManrope;fontColor=#FFFFFF;fillColor=#BEC8D2;" parent="1" vertex="1">
          <mxGeometry x="76.5" y="216" width="597.5" height="126" as="geometry" />
        </mxCell>
        <mxCell id="7C8ybS8YBStuCCjqtTJ8-7" value="&lt;font face=&quot;Fira Code&quot; data-font-src=&quot;https://fonts.googleapis.com/css?family=Fira+Code&quot; style=&quot;font-size: 10px&quot;&gt;&lt;br&gt;&lt;/font&gt;" style="rounded=0;whiteSpace=wrap;html=1;fontSize=12;align=left;strokeColor=none;fontFamily=Manrope;fontSource=https%3A%2F%2Ffonts.googleapis.com%2Fcss%3Ffamily%3DManrope;fontColor=#FFFFFF;spacingLeft=4;fillColor=#124191;verticalAlign=middle;connectable=0;" parent="1" vertex="1">
          <mxGeometry x="85" y="240" width="581" height="95" as="geometry" />
        </mxCell>
        <mxCell id="7C8ybS8YBStuCCjqtTJ8-8" value="veth&lt;font color=&quot;#bec8d2&quot;&gt;XXX&lt;/font&gt;" style="rounded=0;whiteSpace=wrap;html=1;fontFamily=Manrope;fontSize=12;fontColor=#FFFFFF;align=center;fillColor=#4BDD33;strokeColor=none;" parent="1" vertex="1">
          <mxGeometry x="113.63" y="307.5" width="52.75" height="20" as="geometry" />
        </mxCell>
        <mxCell id="7C8ybS8YBStuCCjqtTJ8-9" style="edgeStyle=orthogonalEdgeStyle;rounded=0;orthogonalLoop=1;jettySize=auto;html=1;exitX=0.5;exitY=0;exitDx=0;exitDy=0;entryX=0.5;entryY=1;entryDx=0;entryDy=0;fontFamily=Manrope;fontSize=12;fontColor=#FFFFFF;endArrow=oval;endFill=1;startArrow=oval;startFill=1;strokeColor=#4BDD33;" parent="1" source="7C8ybS8YBStuCCjqtTJ8-5" target="7C8ybS8YBStuCCjqtTJ8-8" edge="1">
          <mxGeometry relative="1" as="geometry" />
        </mxCell>
        <mxCell id="7C8ybS8YBStuCCjqtTJ8-10" value="&lt;font color=&quot;#dde9f5&quot;&gt;netns:&lt;/font&gt;&amp;nbsp;default" style="rounded=0;whiteSpace=wrap;html=1;fontSize=12;align=center;fontFamily=Manrope;fontSource=https%3A%2F%2Ffonts.googleapis.com%2Fcss%3Ffamily%3DManrope;fontColor=#FFFFFF;fillColor=#98A2AE;rotation=0;strokeColor=none;horizontal=0;verticalAlign=middle;" parent="1" vertex="1">
          <mxGeometry x="50" y="216" width="26.5" height="126" as="geometry" />
        </mxCell>
        <mxCell id="7C8ybS8YBStuCCjqtTJ8-11" value="&lt;font color=&quot;#dde9f5&quot;&gt;netns:&lt;/font&gt;&amp;nbsp;container1" style="rounded=0;whiteSpace=wrap;html=1;fontSize=12;align=center;fontFamily=Manrope;fontSource=https%3A%2F%2Ffonts.googleapis.com%2Fcss%3Ffamily%3DManrope;fontColor=#FFFFFF;fillColor=#98A2AE;rotation=90;strokeColor=none;horizontal=0;verticalAlign=middle;" parent="1" vertex="1">
          <mxGeometry x="131.38" y="372.13" width="26.5" height="189.25" as="geometry" />
        </mxCell>
        <mxCell id="7C8ybS8YBStuCCjqtTJ8-12" value="&lt;font color=&quot;#bec8d2&quot;&gt;docker network:&lt;/font&gt; clab&lt;font face=&quot;Fira Code&quot; data-font-src=&quot;https://fonts.googleapis.com/css?family=Fira+Code&quot; style=&quot;font-size: 10px&quot;&gt;&lt;br&gt;&lt;/font&gt;" style="rounded=0;whiteSpace=wrap;html=1;fontSize=12;align=left;strokeColor=none;fontFamily=Manrope;fontSource=https%3A%2F%2Ffonts.googleapis.com%2Fcss%3Ffamily%3DManrope;fontColor=#FFFFFF;spacingLeft=4;fillColor=#001135;" parent="1" vertex="1">
          <mxGeometry x="85" y="220" width="581" height="20" as="geometry" />
        </mxCell>
        <mxCell id="7C8ybS8YBStuCCjqtTJ8-13" value="&lt;font&gt;Lab wiring diagram&lt;/font&gt;" style="text;html=1;align=center;verticalAlign=middle;resizable=0;points=[];autosize=1;fontSize=14;fontFamily=Manrope;fontStyle=1;fontColor=#FFFFFF;" parent="1" vertex="1">
          <mxGeometry x="303.5" y="510" width="130" height="21" as="geometry" />
        </mxCell>
        <mxCell id="7C8ybS8YBStuCCjqtTJ8-14" value="br-&lt;font color=&quot;#98a2ae&quot;&gt;XXX&lt;/font&gt;" style="rounded=0;whiteSpace=wrap;html=1;fontSize=12;align=left;fontFamily=Manrope;fontSource=https%3A%2F%2Ffonts.googleapis.com%2Fcss%3Ffamily%3DManrope;dashed=1;strokeColor=none;fillColor=#DDE9F5;fontColor=#001135;spacingLeft=4;" parent="1" vertex="1">
          <mxGeometry x="102.25" y="290" width="539.75" height="17.5" as="geometry" />
        </mxCell>
        <mxCell id="7C8ybS8YBStuCCjqtTJ8-15" value="&lt;font face=&quot;Fira Code&quot; data-font-src=&quot;https://fonts.googleapis.com/css?family=Fira+Code&quot;&gt;&lt;font style=&quot;font-size: 12px&quot;&gt;Pool&lt;/font&gt;&lt;br&gt;&lt;/font&gt;" style="rounded=0;whiteSpace=wrap;html=1;fontSize=12;align=center;strokeColor=none;fontFamily=Manrope;fontSource=https%3A%2F%2Ffonts.googleapis.com%2Fcss%3Ffamily%3DManrope;fontColor=#FFFFFF;spacingLeft=0;verticalAlign=middle;fillColor=#00C9FF;" parent="1" vertex="1">
          <mxGeometry x="102" y="245" width="34.25" height="35" as="geometry" />
        </mxCell>
        <mxCell id="7C8ybS8YBStuCCjqtTJ8-16" value="&lt;font color=&quot;#98a2ae&quot; style=&quot;font-size: 12px ; line-height: 100%&quot;&gt;IPv4:&lt;/font&gt;&lt;span style=&quot;color: rgb(255 , 255 , 255)&quot;&gt;&amp;nbsp;&lt;/span&gt;&lt;font face=&quot;Fira Code&quot; data-font-src=&quot;https://fonts.googleapis.com/css?family=Fira+Code&quot; style=&quot;font-size: 10px&quot;&gt;172.20.20.0/24&lt;br&gt;&lt;span style=&quot;color: rgb(255 , 255 , 255) ; font-family: &amp;#34;manrope&amp;#34; ; font-size: 12px&quot;&gt;&lt;font color=&quot;#98a2ae&quot;&gt;IPv6:&lt;/font&gt;&amp;nbsp;&lt;/span&gt;&lt;font face=&quot;Fira Code&quot; data-font-src=&quot;https://fonts.googleapis.com/css?family=Fira+Code&quot;&gt;2001:172:20:20::/80&lt;/font&gt;&lt;/font&gt;" style="rounded=0;whiteSpace=wrap;html=1;fontSize=12;align=left;fontFamily=Manrope;fontSource=https%3A%2F%2Ffonts.googleapis.com%2Fcss%3Ffamily%3DManrope;dashed=1;strokeColor=none;fillColor=#DDE9F5;fontColor=#001135;" parent="1" vertex="1">
          <mxGeometry x="136.25" y="245" width="150" height="35" as="geometry" />
        </mxCell>
        <mxCell id="7C8ybS8YBStuCCjqtTJ8-17" style="rounded=0;orthogonalLoop=1;jettySize=auto;html=1;fontFamily=Manrope;fontSize=12;fontColor=#FFFFFF;endArrow=oval;endFill=1;startArrow=oval;startFill=1;strokeColor=#4BDD33;" parent="1" edge="1">
          <mxGeometry relative="1" as="geometry">
            <mxPoint x="332.75" y="260" as="sourcePoint" />
            <mxPoint x="300.0000000000002" y="290" as="targetPoint" />
            <Array as="points">
              <mxPoint x="312.75" y="260" />
            </Array>
          </mxGeometry>
        </mxCell>
        <mxCell id="7C8ybS8YBStuCCjqtTJ8-18" value="&lt;font face=&quot;Fira Code&quot; data-font-src=&quot;https://fonts.googleapis.com/css?family=Fira+Code&quot; style=&quot;font-size: 10px&quot;&gt;172.20.20.1&lt;/font&gt;" style="text;html=1;align=left;verticalAlign=middle;resizable=0;points=[];autosize=1;fontSize=14;fontFamily=Manrope;fontColor=#FFFFFF;" parent="1" vertex="1">
          <mxGeometry x="338.75" y="245" width="80" height="25" as="geometry" />
        </mxCell>
        <mxCell id="7C8ybS8YBStuCCjqtTJ8-19" style="rounded=0;orthogonalLoop=1;jettySize=auto;html=1;fontFamily=Manrope;fontSize=12;fontColor=#FFFFFF;endArrow=oval;endFill=1;startArrow=oval;startFill=1;strokeColor=#4BDD33;" parent="1" edge="1">
          <mxGeometry relative="1" as="geometry">
            <mxPoint x="332.75" y="275" as="sourcePoint" />
            <mxPoint x="300.0000000000002" y="290" as="targetPoint" />
            <Array as="points">
              <mxPoint x="312.75" y="275" />
            </Array>
          </mxGeometry>
        </mxCell>
        <mxCell id="7C8ybS8YBStuCCjqtTJ8-20" value="&lt;font face=&quot;Fira Code&quot; data-font-src=&quot;https://fonts.googleapis.com/css?family=Fira+Code&quot; style=&quot;font-size: 10px&quot;&gt;2001:172:20:20::1&lt;/font&gt;" style="text;html=1;align=left;verticalAlign=middle;resizable=0;points=[];autosize=1;fontSize=14;fontFamily=Manrope;fontColor=#FFFFFF;" parent="1" vertex="1">
          <mxGeometry x="338.75" y="260" width="115" height="25" as="geometry" />
        </mxCell>
        <mxCell id="7C8ybS8YBStuCCjqtTJ8-34" value="" style="rounded=0;whiteSpace=wrap;html=1;fontSize=12;align=center;strokeColor=none;fontFamily=Manrope;fontSource=https%3A%2F%2Ffonts.googleapis.com%2Fcss%3Ffamily%3DManrope;fontColor=#DDE9F5;fillColor=#BEC8D2;" parent="1" vertex="1">
          <mxGeometry x="270" y="365" width="190" height="89" as="geometry" />
        </mxCell>
        <mxCell id="7C8ybS8YBStuCCjqtTJ8-35" value="&amp;nbsp; Wemulate" style="rounded=0;whiteSpace=wrap;html=1;fontSize=12;align=left;strokeColor=none;fontFamily=Manrope;fontSource=https%3A%2F%2Ffonts.googleapis.com%2Fcss%3Ffamily%3DManrope;fontColor=#FFFFFF;fillColor=#124191;" parent="1" vertex="1">
          <mxGeometry x="308.5" y="400" width="120" height="44" as="geometry" />
        </mxCell>
        <mxCell id="7C8ybS8YBStuCCjqtTJ8-36" value="eth0" style="rounded=0;whiteSpace=wrap;html=1;fontFamily=Manrope;fontSize=12;fontColor=#FFFFFF;align=center;fillColor=#4BDD33;strokeColor=none;" parent="1" vertex="1">
          <mxGeometry x="346.75" y="385" width="43.5" height="15" as="geometry" />
        </mxCell>
        <mxCell id="7C8ybS8YBStuCCjqtTJ8-37" value="veth&lt;font color=&quot;#bec8d2&quot;&gt;XXX&lt;/font&gt;" style="rounded=0;whiteSpace=wrap;html=1;fontFamily=Manrope;fontSize=12;fontColor=#FFFFFF;align=center;fillColor=#4BDD33;strokeColor=none;" parent="1" vertex="1">
          <mxGeometry x="342.13" y="307.5" width="52.75" height="20" as="geometry" />
        </mxCell>
        <mxCell id="7C8ybS8YBStuCCjqtTJ8-38" style="edgeStyle=orthogonalEdgeStyle;rounded=0;orthogonalLoop=1;jettySize=auto;html=1;exitX=0.5;exitY=0;exitDx=0;exitDy=0;entryX=0.5;entryY=1;entryDx=0;entryDy=0;fontFamily=Manrope;fontSize=12;fontColor=#FFFFFF;endArrow=oval;endFill=1;startArrow=oval;startFill=1;strokeColor=#4BDD33;" parent="1" source="7C8ybS8YBStuCCjqtTJ8-36" target="7C8ybS8YBStuCCjqtTJ8-37" edge="1">
          <mxGeometry relative="1" as="geometry" />
        </mxCell>
        <mxCell id="7C8ybS8YBStuCCjqtTJ8-39" value="&lt;font color=&quot;#dde9f5&quot;&gt;netns:&lt;/font&gt;&amp;nbsp;container2" style="rounded=0;whiteSpace=wrap;html=1;fontSize=12;align=center;fontFamily=Manrope;fontSource=https%3A%2F%2Ffonts.googleapis.com%2Fcss%3Ffamily%3DManrope;fontColor=#FFFFFF;fillColor=#98A2AE;rotation=90;strokeColor=none;horizontal=0;verticalAlign=middle;" parent="1" vertex="1">
          <mxGeometry x="351.5" y="371.5" width="26.5" height="190.5" as="geometry" />
        </mxCell>
        <mxCell id="7C8ybS8YBStuCCjqtTJ8-40" value="eth1" style="rounded=0;whiteSpace=wrap;html=1;fontFamily=Manrope;fontSize=12;fontColor=#FFFFFF;align=center;strokeColor=none;rotation=0;horizontal=1;fillColor=#001135;" parent="1" vertex="1">
          <mxGeometry x="200" y="404" width="30" height="16.25" as="geometry" />
        </mxCell>
        <mxCell id="7C8ybS8YBStuCCjqtTJ8-41" value="eth1" style="rounded=0;whiteSpace=wrap;html=1;fontFamily=Manrope;fontSize=12;fontColor=#FFFFFF;align=center;strokeColor=none;rotation=0;horizontal=1;fillColor=#001135;" parent="1" vertex="1">
          <mxGeometry x="280" y="404" width="28.5" height="16.25" as="geometry" />
        </mxCell>
        <mxCell id="7C8ybS8YBStuCCjqtTJ8-42" style="edgeStyle=orthogonalEdgeStyle;rounded=0;orthogonalLoop=1;jettySize=auto;html=1;exitX=1;exitY=0.5;exitDx=0;exitDy=0;entryX=0;entryY=0.5;entryDx=0;entryDy=0;fontFamily=Manrope;fontSize=12;fontColor=#FFFFFF;endArrow=oval;endFill=1;startArrow=oval;startFill=1;strokeColor=#001135;" parent="1" source="7C8ybS8YBStuCCjqtTJ8-40" target="7C8ybS8YBStuCCjqtTJ8-41" edge="1">
          <mxGeometry relative="1" as="geometry">
            <mxPoint x="145" y="373.37" as="sourcePoint" />
            <mxPoint x="145.0050000000001" y="318.37" as="targetPoint" />
          </mxGeometry>
        </mxCell>
        <mxCell id="7C8ybS8YBStuCCjqtTJ8-62" value="&lt;font&gt;Client1&lt;/font&gt;" style="text;html=1;align=center;verticalAlign=middle;resizable=0;points=[];autosize=1;fontSize=14;fontFamily=Manrope;fontStyle=0;fontColor=#FFFFFF;" parent="1" vertex="1">
          <mxGeometry x="65.5" y="713.01" width="64" height="30" as="geometry" />
        </mxCell>
        <mxCell id="7C8ybS8YBStuCCjqtTJ8-63" value="&lt;font&gt;Client2&lt;/font&gt;" style="text;html=1;align=center;verticalAlign=middle;resizable=0;points=[];autosize=1;fontSize=14;fontFamily=Manrope;fontStyle=0;fontColor=#FFFFFF;" parent="1" vertex="1">
          <mxGeometry x="607.5" y="713" width="66" height="30" as="geometry" />
        </mxCell>
        <mxCell id="7C8ybS8YBStuCCjqtTJ8-64" style="edgeStyle=orthogonalEdgeStyle;rounded=0;orthogonalLoop=1;jettySize=auto;html=1;fontFamily=Manrope;fontSize=12;fontColor=#FFFFFF;endArrow=oval;endFill=1;startArrow=oval;startFill=1;entryX=1;entryY=0.5;entryDx=0;entryDy=0;strokeColor=#98A2AE;exitX=0;exitY=0.5;exitDx=0;exitDy=0;" parent="1" source="hSaHa6GIb4maSIc4nTPl-31" target="7C8ybS8YBStuCCjqtTJ8-65" edge="1">
          <mxGeometry relative="1" as="geometry">
            <mxPoint x="298" y="654.12" as="sourcePoint" />
            <mxPoint x="373" y="624.12" as="targetPoint" />
          </mxGeometry>
        </mxCell>
        <mxCell id="7C8ybS8YBStuCCjqtTJ8-65" value="eth1" style="rounded=0;whiteSpace=wrap;html=1;fontFamily=Manrope;fontSize=10;fontColor=#FFFFFF;align=center;strokeColor=none;rotation=0;horizontal=1;fillColor=#98A2AE;" parent="1" vertex="1">
          <mxGeometry x="132" y="646" width="36" height="16.25" as="geometry" />
        </mxCell>
        <mxCell id="7C8ybS8YBStuCCjqtTJ8-66" value="&lt;span style=&quot;font-size: 10px&quot;&gt;eth1&lt;/span&gt;" style="rounded=0;whiteSpace=wrap;html=1;fontFamily=Manrope;fontSize=12;fontColor=#FFFFFF;align=center;strokeColor=none;rotation=0;horizontal=1;fillColor=#98A2AE;" parent="1" vertex="1">
          <mxGeometry x="568" y="646" width="37" height="16.25" as="geometry" />
        </mxCell>
        <mxCell id="7C8ybS8YBStuCCjqtTJ8-67" value="192.168.0.1/31" style="rounded=0;whiteSpace=wrap;html=1;fontFamily=Fira Code;fontSize=9;fontColor=#FFFFFF;align=right;strokeColor=none;rotation=0;horizontal=1;fontSource=https%3A%2F%2Ffonts.googleapis.com%2Fcss%3Ffamily%3DFira%2BCode;fillColor=#bec8d2;" parent="1" vertex="1">
          <mxGeometry x="486" y="662.25" width="119" height="15.87" as="geometry" />
        </mxCell>
        <mxCell id="7C8ybS8YBStuCCjqtTJ8-68" value="" style="group" parent="1" vertex="1" connectable="0">
          <mxGeometry x="605" y="645.01" width="70" height="70" as="geometry" />
        </mxCell>
        <mxCell id="7C8ybS8YBStuCCjqtTJ8-69" value="" style="group" parent="7C8ybS8YBStuCCjqtTJ8-68" vertex="1" connectable="0">
          <mxGeometry width="70" height="70" as="geometry" />
        </mxCell>
        <mxCell id="7C8ybS8YBStuCCjqtTJ8-70" value="" style="whiteSpace=wrap;html=1;aspect=fixed;fillColor=#001135;strokeColor=none;connectable=1;allowArrows=1;fontFamily=Manrope;fontSource=https%3A%2F%2Ffonts.googleapis.com%2Fcss%3Ffamily%3DManrope;" parent="7C8ybS8YBStuCCjqtTJ8-69" vertex="1">
          <mxGeometry width="70" height="70" as="geometry" />
        </mxCell>
        <mxCell id="hSaHa6GIb4maSIc4nTPl-40" value="" style="sketch=0;outlineConnect=0;dashed=0;verticalLabelPosition=bottom;verticalAlign=top;align=center;html=1;fontSize=12;fontStyle=0;aspect=fixed;pointerEvents=1;shape=mxgraph.aws4.client;" vertex="1" parent="7C8ybS8YBStuCCjqtTJ8-69">
          <mxGeometry x="10.870000000000005" y="10.990000000000009" width="49.26" height="48" as="geometry" />
        </mxCell>
        <mxCell id="7C8ybS8YBStuCCjqtTJ8-75" value="192.168.0.0/31" style="rounded=0;whiteSpace=wrap;html=1;fontFamily=Fira Code;fontSize=9;fontColor=#FFFFFF;align=left;strokeColor=none;rotation=0;horizontal=1;fontSource=https%3A%2F%2Ffonts.googleapis.com%2Fcss%3Ffamily%3DFira%2BCode;fillColor=#bec8d2;" parent="1" vertex="1">
          <mxGeometry x="132" y="662.25" width="119" height="15.87" as="geometry" />
        </mxCell>
        <mxCell id="7C8ybS8YBStuCCjqtTJ8-76" value="Addressing and protocol configuration" style="text;html=1;align=center;verticalAlign=middle;resizable=0;points=[];autosize=1;fontSize=14;fontFamily=Manrope;fontStyle=1;fontColor=#FFFFFF;" parent="1" vertex="1">
          <mxGeometry x="246.75" y="762" width="257" height="21" as="geometry" />
        </mxCell>
        <mxCell id="hSaHa6GIb4maSIc4nTPl-1" value="" style="rounded=0;whiteSpace=wrap;html=1;fontSize=12;align=center;strokeColor=none;fontFamily=Manrope;fontSource=https%3A%2F%2Ffonts.googleapis.com%2Fcss%3Ffamily%3DManrope;fontColor=#DDE9F5;fillColor=#BEC8D2;" vertex="1" parent="1">
          <mxGeometry x="500" y="365" width="174" height="89" as="geometry" />
        </mxCell>
        <mxCell id="hSaHa6GIb4maSIc4nTPl-2" value="Linux" style="rounded=0;whiteSpace=wrap;html=1;fontSize=12;align=center;strokeColor=none;fontFamily=Manrope;fontSource=https%3A%2F%2Ffonts.googleapis.com%2Fcss%3Ffamily%3DManrope;fontColor=#FFFFFF;fillColor=#124191;" vertex="1" parent="1">
          <mxGeometry x="536.5" y="400" width="120" height="44" as="geometry" />
        </mxCell>
        <mxCell id="hSaHa6GIb4maSIc4nTPl-3" value="eth0" style="rounded=0;whiteSpace=wrap;html=1;fontFamily=Manrope;fontSize=12;fontColor=#FFFFFF;align=center;fillColor=#4BDD33;strokeColor=none;" vertex="1" parent="1">
          <mxGeometry x="574.75" y="385" width="43.5" height="15" as="geometry" />
        </mxCell>
        <mxCell id="hSaHa6GIb4maSIc4nTPl-4" value="&lt;font color=&quot;#dde9f5&quot;&gt;netns:&lt;/font&gt;&amp;nbsp;container3" style="rounded=0;whiteSpace=wrap;html=1;fontSize=12;align=center;fontFamily=Manrope;fontSource=https%3A%2F%2Ffonts.googleapis.com%2Fcss%3Ffamily%3DManrope;fontColor=#FFFFFF;fillColor=#98A2AE;rotation=90;strokeColor=none;horizontal=0;verticalAlign=middle;" vertex="1" parent="1">
          <mxGeometry x="573.75" y="380" width="26.5" height="173.5" as="geometry" />
        </mxCell>
        <mxCell id="hSaHa6GIb4maSIc4nTPl-6" value="eth2" style="rounded=0;whiteSpace=wrap;html=1;fontFamily=Manrope;fontSize=12;fontColor=#FFFFFF;align=center;strokeColor=none;rotation=0;horizontal=1;fillColor=#001135;" vertex="1" parent="1">
          <mxGeometry x="200" y="424" width="30" height="16.25" as="geometry" />
        </mxCell>
        <mxCell id="hSaHa6GIb4maSIc4nTPl-7" value="eth3" style="rounded=0;whiteSpace=wrap;html=1;fontFamily=Manrope;fontSize=12;fontColor=#FFFFFF;align=center;strokeColor=none;rotation=0;horizontal=1;fillColor=#001135;" vertex="1" parent="1">
          <mxGeometry x="280" y="424" width="28.5" height="16.25" as="geometry" />
        </mxCell>
        <mxCell id="hSaHa6GIb4maSIc4nTPl-8" style="edgeStyle=orthogonalEdgeStyle;rounded=0;orthogonalLoop=1;jettySize=auto;html=1;exitX=1;exitY=0.5;exitDx=0;exitDy=0;entryX=0;entryY=0.5;entryDx=0;entryDy=0;fontFamily=Manrope;fontSize=12;fontColor=#FFFFFF;endArrow=oval;endFill=1;startArrow=oval;startFill=1;strokeColor=#001135;" edge="1" parent="1" source="hSaHa6GIb4maSIc4nTPl-6" target="hSaHa6GIb4maSIc4nTPl-7">
          <mxGeometry relative="1" as="geometry">
            <mxPoint x="145" y="393.37" as="sourcePoint" />
            <mxPoint x="145.0050000000001" y="338.37" as="targetPoint" />
          </mxGeometry>
        </mxCell>
        <mxCell id="hSaHa6GIb4maSIc4nTPl-9" value="eth2" style="rounded=0;whiteSpace=wrap;html=1;fontFamily=Manrope;fontSize=12;fontColor=#FFFFFF;align=center;strokeColor=none;rotation=0;horizontal=1;fillColor=#001135;" vertex="1" parent="1">
          <mxGeometry x="428.5" y="404" width="30" height="16.25" as="geometry" />
        </mxCell>
        <mxCell id="hSaHa6GIb4maSIc4nTPl-10" value="eth1" style="rounded=0;whiteSpace=wrap;html=1;fontFamily=Manrope;fontSize=12;fontColor=#FFFFFF;align=center;strokeColor=none;rotation=0;horizontal=1;fillColor=#001135;" vertex="1" parent="1">
          <mxGeometry x="508.5" y="404" width="28.5" height="16.25" as="geometry" />
        </mxCell>
        <mxCell id="hSaHa6GIb4maSIc4nTPl-11" style="edgeStyle=orthogonalEdgeStyle;rounded=0;orthogonalLoop=1;jettySize=auto;html=1;exitX=1;exitY=0.5;exitDx=0;exitDy=0;entryX=0;entryY=0.5;entryDx=0;entryDy=0;fontFamily=Manrope;fontSize=12;fontColor=#FFFFFF;endArrow=oval;endFill=1;startArrow=oval;startFill=1;strokeColor=#001135;" edge="1" parent="1" source="hSaHa6GIb4maSIc4nTPl-9" target="hSaHa6GIb4maSIc4nTPl-10">
          <mxGeometry relative="1" as="geometry">
            <mxPoint x="373.5" y="373.37" as="sourcePoint" />
            <mxPoint x="373.5050000000001" y="318.37" as="targetPoint" />
          </mxGeometry>
        </mxCell>
        <mxCell id="hSaHa6GIb4maSIc4nTPl-12" value="eth4" style="rounded=0;whiteSpace=wrap;html=1;fontFamily=Manrope;fontSize=12;fontColor=#FFFFFF;align=center;strokeColor=none;rotation=0;horizontal=1;fillColor=#001135;" vertex="1" parent="1">
          <mxGeometry x="428.5" y="424" width="30" height="16.25" as="geometry" />
        </mxCell>
        <mxCell id="hSaHa6GIb4maSIc4nTPl-13" value="eth2" style="rounded=0;whiteSpace=wrap;html=1;fontFamily=Manrope;fontSize=12;fontColor=#FFFFFF;align=center;strokeColor=none;rotation=0;horizontal=1;fillColor=#001135;" vertex="1" parent="1">
          <mxGeometry x="508.5" y="424" width="28.5" height="16.25" as="geometry" />
        </mxCell>
        <mxCell id="hSaHa6GIb4maSIc4nTPl-14" style="edgeStyle=orthogonalEdgeStyle;rounded=0;orthogonalLoop=1;jettySize=auto;html=1;exitX=1;exitY=0.5;exitDx=0;exitDy=0;entryX=0;entryY=0.5;entryDx=0;entryDy=0;fontFamily=Manrope;fontSize=12;fontColor=#FFFFFF;endArrow=oval;endFill=1;startArrow=oval;startFill=1;strokeColor=#001135;" edge="1" parent="1" source="hSaHa6GIb4maSIc4nTPl-12" target="hSaHa6GIb4maSIc4nTPl-13">
          <mxGeometry relative="1" as="geometry">
            <mxPoint x="373.5" y="393.37" as="sourcePoint" />
            <mxPoint x="373.5050000000001" y="338.37" as="targetPoint" />
          </mxGeometry>
        </mxCell>
        <mxCell id="hSaHa6GIb4maSIc4nTPl-15" value="veth&lt;font color=&quot;#bec8d2&quot;&gt;XXX&lt;/font&gt;" style="rounded=0;whiteSpace=wrap;html=1;fontFamily=Manrope;fontSize=12;fontColor=#FFFFFF;align=center;fillColor=#4BDD33;strokeColor=none;" vertex="1" parent="1">
          <mxGeometry x="568" y="307.5" width="52.75" height="20" as="geometry" />
        </mxCell>
        <mxCell id="hSaHa6GIb4maSIc4nTPl-16" style="edgeStyle=orthogonalEdgeStyle;rounded=0;orthogonalLoop=1;jettySize=auto;html=1;exitX=0.5;exitY=0;exitDx=0;exitDy=0;entryX=0.5;entryY=1;entryDx=0;entryDy=0;fontFamily=Manrope;fontSize=12;fontColor=#FFFFFF;endArrow=oval;endFill=1;startArrow=oval;startFill=1;strokeColor=#4BDD33;" edge="1" parent="1" target="hSaHa6GIb4maSIc4nTPl-15">
          <mxGeometry relative="1" as="geometry">
            <mxPoint x="594.87" y="385" as="sourcePoint" />
          </mxGeometry>
        </mxCell>
        <mxCell id="hSaHa6GIb4maSIc4nTPl-21" value="" style="shape=image;verticalLabelPosition=bottom;verticalAlign=top;imageAspect=0;aspect=fixed;image=data:image/png,iVBORw0KGgoAAAANSUhEUgAABkMAAAIDCAYAAAC3uGl1AAAACXBIWXMAAEzlAABM5QF1zvCVAAAAGXRFWHRTb2Z0d2FyZQBBZG9iZSBJbWFnZVJlYWR5ccllPAAAx8JJREFUeNrs3X9wHPWd//m3NKORLCRbtuxIxsLIawNZ724skm+mSeELMlVZXKE2MfFWbXLf/YJcue/eLvlWYfIH2VTlgk2ouiRXBeZqk28llz2bkK2E+4bYbH0hYZPvWrDhltFeQLDfkPC1sx4Mgy1s2bIly9Lo1/W7e1ruGc1ofmh+dE8/H1WT0bQUbH8kdU/3q9/vd1gAAAAAAEDdMYxof8amDvPRl+VLbzQfvXn+c/1V+CsPm4+xZT4fNx9v59gez/xvxWJDY/wUAAAARwNLAAAAAACANxlGNDPA6Hd9vEPsgCPb55AuLumBiQYvl1Ifj6VeW2KxoUGWCwCA+kMYAgAAAABAlRlGVAOODkmv1nCHG/2skicMpp41MHk99fFiBQvBCQAA/kEYAgAAAABAGbmCjt7Uw2lDlatNVc3t6J5a9vPb1iWlLbJQsT9/ItkgJy9Elv2a35mfn0g2evXb7gQk7tBkUP+HwAQAAG8gDAEAAAAAoAiu1lW9kh52OCFIVXS3zUqX+XBkBhZbrdfzaf+ffKGHH2ULSV4/25L2+uSFprSvyfx8lTiBidOia/E1800AAKg8whAAAAAAADJkCTzukApXdmhwoQGGcgcb7lAjW8CBlXGHKWcnwjJiPuyPQ9brzK+poMHU84tyLTSJx2JDcb5LAACsHGEIAAAAACCwDCPaK3bY0S/XKjz6y/3nOBUZTsihFR3dqaqOeqzWqGdOVYk7OBk+22w9VzA0sYIRsVtwxVMPKkoAACgCYQgAAAAAoO5VMvRwKjr0edu6GbnOerYrPAg6gskJSjQYsQMSeyaK87qMnAoSfbztfExIAgDAUoQhAAAAAIC6YhjRfrHDjh1it7Va8SwPZz6HU9nhhByEHSjFtZDEfnZacmmA4rTmWiFCEgAAMhCGAAAAAAB8KxV8aNjhDj5KpuFGt9XCam6x2oPAA9XmBCXaksupKilTC6546qFzSZyAJM6KAwCCgDAEAAAAAOAL5Qw+3KGHfuye4QF4mQYkThXJyQtN1sdlaL01KHY4ojNJNCAZZqUBAPWGMAQAAAAA4DmpGR/9ci346C/lv6PVHd1We6sZQg/UNbvdlh2MlCkkGRQCEgBAHSEMAQAAAADUnKvq4w6xg4+iZ3xo2KEzPbra5qxn2lsBkgpHIlYlyfDZ5pW22xoUOyCx2mzRYgsA4CeEIQAAAACAqjKMqAYdTrWHE34UxQk+tq6bST0nWVigQM7gdm25tcIqEh3IPih29chgLDY0yOoCALyKMAQAAAAAUFGp8KNfrgUfRc360KDDCT76uqcIPoAKscMRHdbetDi0vQRaOTIoVI8AADyGMAQAAAAAUHaGEd0jJYQfbZF5K+zo6562qj/0Y90GoDacgOT1VIstrSIpUlyuhSODhCMAgFohDAEAAAAArFhq5oc+imp7pcPM7dCDqg/AD9wttkqcQeK01nLCEQazAwCqgjAEAAAAAFA0w4j2mk/u6o+CBp474ceOVOWHvgbgb86Qdq0e0ZCkyOoRwhEAQFUQhgAAAAAACuJqfaXPvYX8fwg/gODRShENRTQcOZmqIilCXGirBQCoAMIQAAAAAEBWGdUfewr5/+h8j9s3TxJ+AEhjhyN2a60SwpFjci0cGWM1AQClIAwBAAAAACwyjKgOO79Pihh87oQfzPwAUKgVhCODYgcjx2ipBQAoBmEIAAAAAARcqv3Vp8UOQHrzfb1WezgBiD4DwEqVGI5olYhTNXKMqhEAwHIIQwAAAAAgYAwjqsPO3QFI3uHn7vCD1lcAKsk9c2TYfNYB7QXSSpFnhaoRAEAWhCEAAAAAEAAZAUje+R/O4PPbN1+l+gNATZ2dCC+GIy+fbrXCkgLExW6p9WwsNnSMVQQAEIYAAAAAQJ1yDUDXGSB553/ovI+dqfCD2R8AvEorRTQUKbKllgYiTtUI7bQAIIAIQwAAAACgjpQSgNy17QrtrwD4klaJaDBSZNWIttB6UuxgJM4qAkAwEIYAAAAAgM8VG4Bo8OG0v2qLzLOAAOqGUzXyy9OrCp01osHIoPl4kjkjAFDfCEMAAAAAwIeKCUA08HDP/yAAARAEzqyRl0+vsgKSAsTFbqdFMAIAdYgwBAAAAAB8otgAxF0BAgBBpu2z3MFIAe204kIwAgB1hTAEAAAAADyMAASovIZQozS25m6p1NjeUuB/p2HZ/85KzCdnZWF6rrCvHZ/Kun1hbl7mJ5N8w00aiGgwogGJVpDkEReCEQDw//GeJQAAAAAAbyEAAQoTyggpMkOLxtYmK+hwa2iNLNkWdFZAMpfePm9ufDr9a1wBS72FKjpb5IWT11kBSQHBCMPXAcCnCEMAAAAAwAMMI9oh1wKQ/uW+lgAE9SatMiOjSiPU3nzt6wgyPMkdlGhIsjC3sPixE7LM5ahW8ZoSg5EjsdjQGD8JAODx9xssAQAAAADUjmFEB8ynT4sdhOREAAI/anTCC1fAsVitkac1FerTgtXua9b62Kk+cbZ5reKkyGBE22g9G4sNHeG7DADeRBgCAAAAAFVmGFENPpwApGO5r71r2wQBCDzLaVPltKdyqjgKnbEB5OJUmziBiVNlYleezFf976OzRZxgJM/wda0QceaLDPKdBADvIAwBAAAAgCowjKjO/tAWWBqA9C73te4KEK0IAWrJCjxSVRwNzSFpjIRpV4Wac4clGo4sTCZTQ+ZnK/5nO8PXXzjZlu9L43KtjVac7xoA1BZhCAAAAABUSGoOyIAUMAh967qk7N0+TgCC2lwccMIO89EYCS1+TOABP3KqSKygJBWQVKKiRCtEnGBEn/OgjRYA1Pr9DksAAAAAAOWVaoPlVIHk1N02K59JBSD6MVDxiwCEHgiwxQoSq4pkbvHjcoQkOlNEA5GfvNmeb76IttE6InYbrWG+KwBQxfdBLAEAAAAArJxhRHvNpwfErgTJOQdEqz50Dshd265Y1SBAxU74m8PSuCpiBR46y0NfN0TCLAyQwQlJnEqS+VRIUipn8Lq20cozX0TDkCfMx7FYbGiM7wQAVPi9EUsAAAAAAKVJtcHS6g8NQZZtg8UgdFT05D4z+KDaA1gxKxS5qsHITCosmSr6v6GBSAFttJyh609QLQIAFXy/xBIAAAAAQHFSw9A1ANEgJGcVCHNAUJETeYIPoGZKDUi0ddY/nGyzKkbytNEaFLuF1hFWGwDK/B6KJQAAAACA/FzD0DUE6c31dTr7Q8MPnQXCHBCUQ6i9xQo8NPiwZnzQ6grwlPnxKSsk0TZbGpTowPblvH62ZbGN1jKc2SJaLRJnlQFg5QhDAAAAAGAZriqQgeW+TgMQnQNCGyys6CRdB5y3tywGH/oxAH9x5o5Y4UgqKMlG54loIFLA0HVtoaXVIsdYXQBYwfsslgAAAAAA0hU6C0QrP7QCROeB0AYLJZ2UN4etyo/G9ma7AoSqD6Du6IB2DUWWC0e0WuSZN9vzzRaJiz1w/QgD1wGghPddLAEAAAAA2Awj2ivXqkByzgLR8EOrQHZ0T7FoKO4knPADCLzlwpECZ4s4A9cP0kILAIp4H8YSAAAAAAg6w4g6VSD9ub6GKhCUdNJN+AEgDw1H5sYmZX582hrI7swceSEVimjVyDIGxZ4rQgstAMj3vowlAAAAABBEhQ5EpwoERZ1kOzM/1q4i/ABQEq0UsSpHxq5a4YhWiHx/eI3VQkvnjOQQNx8HzccxWmgBQI73aSwBAAAAgCBJtcJ6WOyZIFlbYWkViAYgf7xtwvoYWI6GHqGOVVYIokPPAaBcFltqjV2VS6NJ+dmvW/INXNcgxJkrEmcFAeAawhAAAAAAgWAY0X6xq0D25Poarf7QEESrQYCcJ9La+qqjVULtzVYAotUgAFANWjUyO3pF/unXjfJf/r/mfC20jojdQmuYlQMAwhAAAAAAdc4wogPm032yzDwQDT/2bh+XreuSLBiycsKP0NpWWl8B8ISF5Kwk3knK//3fwvJPvw0v10JrUOxh64OsGoAgIwwBAAAAUHdS80C0AkTbYfVm+xqnFdZntl9mIDqWniynBp877a+o/gDgZeMT8/L/vNQoz8VEzozm/LK42KHIEVYMQCDf37EEAAAAAOpFKgTZL3Y7rKzzQLT6Q6tAaIWFTDrvQ4OPcOd1zP4A4FsaiPzt8/lDEWHYOoCAIQwBAAAA4HupoegagAxIjhDk9s2TVgiic0EAh1P9QfsrAPXm1RN2KKLPOTjD1g8RigAIAsIQAAAAAL6VCkG0FdZArq/RCpB7+y5ZbbEAZc3/WLvKeqb9FYB6d+JdkacHRZ57JeeXEIoACATCEAAAAAC+ky8E0RkgWgXyx9smCEFgBR5a+cH8DwBBduaCXSny4usiE1dzftkRseeKxFkxAHX3npAlAAAAAOAXhYYgDEWHOwDRChAAgE2DkKePi/zoOKEIgIC9P2QJAAAAAHhdvhBEqz+0FZbOBSEECfAJLgEIABSMUARA4N4rsgQAAAAAvKrQEETngiC4nBkg4c42FgMASvBczG6hdWY055ccEUIRAD5HGAIAAADAcwwj2mE+PS6EIMiBIegAUH6EIgDqGWEIAAAAAM9IhSD7zccD5qMj8/OEIMHW2BqRcOd1ViushkiYBQGACiEUAVCPCEMAAAAAeIJhRA8IIQgyT1qbw1b1R1NXOwEIAFRZAaHIQfNxKBYbGmO1AHj+fSVLAAAAAKCWDCM6IPZckN7Mz+kw9PujFwlBgnaimhqErlUgje0tLAgA1FieUESDkCeEUASA199jsgQAAAAAasEwov1izwXpy/ychiB7t4/LZ7Zftj5GMITaWyS0/jrmgACARxUSisRiQwdYKQBeRBgCAAAAoKoMI9prPh02H/2ZnyMECeBJaXNYwp1tEl5/HW2wAMAnnj4u8r3nRSauZv10XOx5IkdYKQCeet/JEgAAAACohtRwdG2HtT/b57UVls4F0fkgqH/h9W0S6lhlVYEAAPxHgxANRX50PGcoMmw+HozFhgZZLQBeQBgCAAAAoOIMI6oBiAYhS4aj7+iekod2jhKCBOEEtDksTR9ol9D6NtpgAUCdcEIRrRTJYVDsUGSY1QJQ0/eiLAEAAACASknNBdGWWL2Zn9u6LilfiF60whDUN60CYRg6ANS3MxfseSLPvZLzS46I3T4rzmoBqAXCEAAAAABll5oLosPR92R+TmeB3B+9aLXFQh2fbFIFAgCBpKHIo0+JvHoi66etIevm41AsNjTGagGo6vtTlgAAAABAORlG9ID59IBkaYl1X98lhqPXOZ0B0tTVThUIAASchiGHnhE58W7WT8eFIesAqowwBAAAAEBZLNcSi7kgdX5iGWqUcNdqCa+/ThoiYRYEALDouZjdPuvMaNZPDwrzRABU6z0rSwAAAABgJQwjqhUg2hJrIPNzGn5oS6zbN0+yUHWosTUi4a52CXe2sRgAgJycIes/Om5/nMURsUMRWmcBqBjCEAAAAAAlM4zogNhBCC2xAoSB6ACAUuQZsq5BiLbOOsRKAagEwhAAAAAARUsNSNeWWP2Zn6MlVp2ePNIKCwBQJjpPREORHEPWtWWWVokMslIAyvp+liUAAAAAUAzDiO43nx6WjGoQrQDREISWWHV20tgclqbr19AKCwBQdjpP5NCPaZ0FoErva1kCAAAAAIUwjGif2NUgfZmf27v9stzbd4mWWHUk1N5ihSC0wgIAVJIGId973p4pkgWtswCUDWEIAAAAgLwMI3pA7GqQNNoKS6tBtDUW6oPOA9EQhFZYAIBqOvGuyKFncrbOGhS7SmSYlQJQKsIQAAAAADktVw2iA9Lv7aNzRV2cGIYaJaQhSFc7IQgAoKbytM7SKpEDrBKAkt7zsgQAAAAAsknNBnk8c/vWdUn50s5R6xk+PyF0hqJrCGJ+DACAF+RpnRU3H/sYsA6g6Pe+LAEAAAAAN8OI9opdDdKf+TmqQerkRJCh6AAAH9CWWdo6S1toZaFzRA4yYB1AoUIsAQAAAACHYUQHzKej5uOD7u1aBfKNT7wvu7ZcYZF8TEOQyOa10ty7XhpbIywIAMDTNnaK3LPTvpv7f7wrkpxN+/Rt5uOzPT2b3k4kEr9ltQDkfS/MEgAAAAAwjGiH2NUgezI/RzWI/4XaW6xWWKGOVhYDAOBLZy6IPPpUzgHrx8RuncUbFgC53xOzBAAAAECwGUa033z6qdh3WC7qbpuVx3aPUA3i5xO+9hZp3tIpTdd3SGNLEwsCAPCt9lUid99mP//3+JIqEa1o/cuenk1vUSUCIBcqQwAAAIAAM4zoAfPp4czte7dflnv7LklbZJ5F8iENQXQmSKP5DABAvdEB6197SuSlN7J++oj5eJAqEQCZCEMAAACAAEoNSdfZIH3u7Rp+PLRzVG7fPMki+RAhCAAgSDQM0VBEw5EMcbHbZg2ySgAW3yuzBAAAAECwGEZU54JoW6xe9/Yd3VPyN3eflW3rkiyS307sXO2wdEg6AABBcGOXyGf+J5G3R+yHi85CG+jp2dSRSCReYKUAKCpDAAAAgAAxjOjj5tP+zO33Ry9arbHgL1SCAABgey4mcujHWatEhsWuEhlmlYBgIwwBAAAAAiBXWywdkv7InedkK9UgvkIIAgDAUmcuiDz6lMirJ7J+WueIHGKVgOAiDAEAAADqXKot1mGxW0Ys0rkgOh+EIek+OoFrDlshSLizjcUAACCHp4+LHHom66eOiV0lwnB1IIjvpVkCAAAAoH4ZRvSA+fRw5nbaYvnsxI0QBACAopx4V+RrP7CfM2gQcg/D1YHgYYA6AAAAUIcMI9rR07NJh6QPuLdrW6zHdo9YVSHwvoZQo0R6OqT59zZIY2uEBQEAoECdq0U+8RGR5KzIr+Npn9IekzpcvSGRSAyyUkCA3luzBAAAAEB9MYyozgXR+SC97u20xfLRiVqoUcJdq81Hu/UxAAAo3UtviHztqazD1QfFrhKhbRYQhPfYLAEAAABQPwwjOmA+PS4Z80Foi+Uf4fVt0nTDWkIQAADKSIOQL30363B12mYBAUGbLAAAAKBOGEZUQ5Cvi93+waJVIF//xPuya8sVFsjrJ2cdrdJy8wesuSANjdy3BgBAOUWaRO6+zb4zPCMQcdpmXUokEq+wUkD94h02AAAA4HM6H8R8Omw+9ri3b12XlEfuPGfNCYF3hdpbrOHoje0tLAYAAFWgYYhWiWRpm3XMfOyjbRZQnwhDAAAAAB9LzQfRIKTPvf2ubRNWayzmg3j4ZKw5bIUgWgkCAACqS4OQ+58QOfHukk8Nix2IDLNKQH2hTRYAAADgU4YR7TeffioZg9I1BPmPHxmTSGiBRfIgnQXStHGNRLZ0Sui6ZhYEAIAa0LZZ9+y0Q5Ffx9M+1W0+PtvTs+mtRCLxW1YKqB+EIQAAAIAPpQalHxXmg/iKDkdv3rremg/CXBAAAGrvtu0iGzvt1lnJa51F9f3VZ5kjAtQXwhAAAADAZ1yD0hfpfJCv3XlOfn/DNAvkxROv9hZp3tIp4a7VVmUIAADwjpt7RD62XeSV3yyZI7K7p2dTr/l4MZFITLFSgL9xKxIAAADgE6lB6RqEDLi37+iesgalMx/Egydc2hJr81rmggAA4AMahOhgda0SyaDzQ3YxWB3wNypDAAAAAB9IBSHHzcdu93YdlK5BCPNBvKfp+g6JaEss5oIAAOALOkfk7tuWnSOiFSJnWSnAnwhDAAAAAI8zjGif2EHIB93bnUHp8NhJVnuLtHywi7kgAAD4lDNH5KU30jbrjSkaiMQSiUScVQJ8+D6dJQAAAAC8yxWEdDvbtB3W/o9dkD+5ZZwF8pCG5rA1F6SpZy1zQQAA8DmdI3LHh0R+/qslg9UHeno2vZ1IJIZZJcBfCEMAAAAAjzKM6ID59EOx70S0aBDy2O4R+eimqyyQh1gtsbZ0SmNrhMUAAKBOdK62B6v/97jIhctpn9rT07OpIZFIDLJKgH8QhgAAAAAelApCDot9B6Jl67qkfO3Oc9YzPHJCRUssAADqmgYin/iIyCu/WRKI9Pf0bOpNJBLPskqAT967swQAAACAtxhG9ID59Lh7mwYgWhHS3TbLAnmAtsGK9K6TyA3raIkFAECd08HqGohcGBc58W7ap/oIRAAfvYdnCQAAAADvMIyoVoMMuLfdtW3CGpauLbJQe+H1bdJ0A3NBAAAIokd/IPLcK0s26/yQXbHY0BgrBHgXlSEAAACAR+QKQh7aOSqR0AILVGM6IL1l2wYJd62mJRYAAAH18Q+JtK+y22a5dJuP3T09m55OJBJTrBLg0ffzLAEAAABQW4YR1QHpR81Hv3v73u2XrYoQ1J4OSG+6fg0LAQAALM/FRB59aslmKkQAD6MyBAAAAKihVBBy3Hzc5t6u1SCf+6PLLFCtT5jaW6RZq0HWXcdiAACARTf3iGzsFHnpjbTNVIgAXn5vzxIAAAAAteEKQvrc2zUI0fZYqB1rQHpPh0Ru7JSGJk6bAADAUhqIfPgmOxBJzi5uJhABPIp39QAAAEANEIR4+CRJq0Fu/oCE1qxiMQAAwLK0OuRj20V+/isCEcDz7/NZAgAAAKC6DCPaaz79VFxBSFtkXv7m7rPy0U1XWaAaSasGMT8GAAAoROdqAhHADwhDAAAAgCoyjKgGIP9sPnqdbRqEPLZ7RLauS7JAtTox6miV5ps2UA0CAABKQiAC+OA9P0sAAAAAVEcqCNHWWB3ONoKQ2rKqQXrXSaRnLdUgAABgRQhEAG8jDAEAAACqgCDEgydDzmwQ8xkAAKAcCEQA7+LWJwAAAKDCCEK8xaoGuWGtNN/SJQ2RMAsCAADK6qYekW8/YL7fS+++qe8HD7M6QO1QGQIAAABUEEGIx06AnGoQZoMAFTU/PiULydmyPaRBaGUHwFe0QqS3W+QXv0rb/MGenk29iUTiWVYIqL4GlgAAAACojGxBSHfbrDxy5zmCkBpour7DfKxhIYACaaDhmBufvrZ90tx/zc27Plf9ji8ajDS2RhZfN6ba3TWEGha3N9ICD4AHPBcTefSpJZsPxWJDD7I6QJXfP7AEAAAAQPllC0I0ANGKEK0MQfXohdFIb2fahVMgyKxqi2nzMTcv85Mz1jYn+JhPfa7e9gFWeNLeshiWNDSHaZMHoGpyBCL7YrGhI6wOUD2EIQAAAECZEYR4R7hrtTUfBAgaq01VKuxwwo96DDpWSlvnNbRGpDESskISqkkAVMqhZ0SePr5k8z2x2NAxVgeoDsIQAAAAoIxyzQj5zqfOWC2yUKUTnVCjNG/bwIVN1LWsgcdk0tqG0lmhiBWMNEvjqghVZQDK5tEfiDz3StqmMfOxKxYbGmZ1gCqcI7AEAAAAQHkYRlQDkFPCsPSaCnW0SmRLJ8OWUReckENndmjIsTCZJPCoMqfFVqi9WUJrW2mvBaD0fbq57/7CEyKv/Vvae5S4+bg1FhsaY4WACh/TWQIAAABg5VJBiFaE9DnbCEKqT1tiaWsswG+0ysNuYzVnhx1Ju8oD3qPzRrS9VqhjVWoOCcErgMJNXBX5q2/OyslzacHqcCw2dCurA1T4GM4SAAAAACtDEFJ7DEmHX6SFHosf00LPz7QaLbR2lfVMMAKgECfeFbn/sXmZSKbtM47EYkP7WB2gcghDAAAAgBUgCKm98Po2abphLRch4SnXqjtmCD0ChGAEQKF+9etZ+U//eUnbvX2x2NARVgeoDMIQAAAAoEQEITU+mQk1StPmtRLubGMxUDPuOR7zV2fsZ9pbQeygVltpaTACANn88Pmk/J/Pp1W1MlAdqKAQSwAAAACUpqdn00/Np9uc1wQh1aPtsFo+2GX17QeqxQo+rkzL7OgVmR0Zl5nEmMy8O2a9nrs8ZVeDzMyxULDoz8PchUnr50PmFqSxOUy1CIA0f/h7DfLeezNycmTxEq2+sbnNfI/5dCKRmGKFgPIiDAEAAABKYBjRw+bTHve2r3/iffn9DdMsToXp3dbNN32Ai4qoOG1vNTc2KTNnL6cFH7p9YWpGZG6eRUJ+5s+J/sxogLaQnLP2XTqEHQAaGhvkw7c0yD+/PicXJhff13TrI5FIPMsKAeVFGAIAAAAUKRWEDLi3PbRzVG7fPMniVJBeQIz0rpOm6ztYDJSdzvfQ4EPDDg0+km9fWKz4IPhAuWi1iB2oTduVIoQiQOA1RxrkDzbPyy9+JZKcW5xo0NfTs+ntRCJBuyygjAhDAAAAgCLkCkLu2jbB4lSQtsVq3rZBQmtWsRgoC7uF0RW76uPtC9bz3NhVmb8yTasrVJyGb1a7NfPREG609nEAgmv92kZZG5qWf/ptWkDan2qXNcYKAeVBGAIAAAAUyDCiA+bTAfc2gpDK07ZYkd9bb91FDZTKalOkF5/fuyQz71yU2ffHr1V9LCywQKiNuXkrhNOfzVBrhEoRIMBuvrEx2/yQvkQi8SSrA5QHYQgAAABQgFQQcti9be/2y/K5P7rM4lRQ5Ia10tSz1uqpDRQjs/Jj9tyEPesjOUv4Ae+Zm6d9FhBw+l7n1q0L8ouheZlILs4P6e3p2XQpkUi8wgoBZfg9YwkAAACA5RlGVAelH3Vv02oQrQpBhU5UQo3SfEsXrWNQMGvmx/iUdTF57uKkLDDjAz6mFXFN16+RhgihCBA0v/3NlOz7Vkvm5i2x2FCc1QFWhsoQAAAAYBmGEe0TOwhZPCslCKksDUBa/mAjbbGQl1Z6zLw/bg08n3l3zJ75MZmk8gP+/9nWyqbzV8yfZZFQewsLAgTI+g1h6/g2fDrtfRDtsoAyIAwBAAAAckgFIcfNR4ezbeu6pHzljvMSCXGxtRLCXautQem0xUI2Wu0xd/GKNe8jeWrUbn3FwHPU7Q/8gnVBVEO+xpYmWmcBAfLhm0VefHVeLkzSLgsoJ84wAAAAgCwMI6oBiAYhfc42DUIe2z0ibRHa71RCZEunhDvbWAiksdpfXZy0LghrGywgqDQstlpnhRpZDCAAsrTLGhO7XdYYqwOUhsoQAAAAIEO2IEQDkO9+6gxBSAXohb2W3++W0JpVLAYsVgByfkKSpy/Y7a8upwafAwGmVVAaDGrbrIYmLucA9U7bZV0eTcqbicXfd01GuhOJxLOsDlAajp4AAABAhp6eTT80n/qd1xqAaEVIdxsXY8uN+SBwZA1AaH8FpJubt9rDaaMPZokA9e8PtzbIz/9lQSamF5v79JnvU19MJBJxVgcoHmEIAAAA4GIY0cPm02fd2/7m7rNWiyyUV3h9mzTf9AHmgwQYAQhQGp0lMj8+LaG1rexDgTrWHGmQ7utm5L+9kXYJV4epf4fVAYpHGAIAAACkGEZ0v/n01+5tD+0clY9uusrilFnkhrXS1LOWhQggZwj6zDsXJWk+CECAEn+XNEw8NyGhtmaGqwN1rLcnJK/+dl7OXlwMPrt7eja9nUgkhlkdoDiEIQAAAIBYQciA+fSf3dvuj16UP7llnMUpI50P0rx1vVUVgmCZG5uU2bOXJflv561h6MwAAcpgYUFmR69YYYi2HQRQn266fkGO/b9pVWBaHfIEKwMUhzAEAAAAgWcYUR2UrnNCFhuw37VtQv7jR8ZYnDKygpBbuuhzHyAaeMy8d8kKQPSC7fwk7eaASrADxjkJdbSyGEAd6uxokLMXRE68u7ipo6dnU0MikRhkdYAizkdYAgAAAASZYUR7zafX9KTS2Xb75kl55M5zLE4Z6R3LGoRoIIL6ZrXB0iqQkXHCD6DKNGyObNvAvhaoQxNXRe75qv2conftbInFhrh7Byj0OMkSAAAAIKgMI6oByE/NR6+zTQelaxASCS2wQOU66WhvkeabP8DFuTqnwcdMYkxm3r4gcxcmmQMC1IBWY81fnpLQuusYrA7UmUiTyMysyKsnFjdpqe001SFA4TgbAQAAQJAdNR99zou2yLw8tnvEekZ56GwQKkLql1aBzI5OyNSbZ6zH7PkJaxuA2tFgcvqtEebyAHXoz3aZ71dXpW16IHVzD4ACUBkCAACAQDJPHA+bT3uc104Q0t3GxaNyCXetlsiN61iIOuTMApk5NUoVCODF31Hzd3Lu/BUJrVklDU1c+gHqRY7qkLcSicQwqwPkx+1ZAAAACBzDiA6YTwPubQ/tHLVaZKFMJ+tbOiVyw1oWos7Mj0/J9MlzcvWNhMyOXKYKBPAw/f3UChFm9wD1JUt1yMOsClAYbg8AAABAoBhGtF/s9liL7o9elLu2TbA4ZaJBSLizjYWoE9ZA9ItXZPp356yh6AtTMywK4Jtf4AWreosKEaCO3mc1iZx+X+TEu4ubOnp6Nr1NdQiQH5UhAAAACAzDiOp8kLQgREOQvdsvszhloHNBWm7pIgipE04rrKk3EpI8NSoL07SQA3z5u5yqEKGSC6gfn//kkk33sSpAftwWAAAAgEBIDZfUIKTX2aZtsb7+ifdZnDLQIEQHpTe2NbMYPmeFIO9ctAIQbYuld5YD8Psv9oLMX56S0LrrpKGxgfUAfK59lV0Z8vbI4qbenp5NTyYSiTFWB8iNyhAAAAAEhQYhfc4LHZSuA9OxcotBSGuExfAxax7IWyP2PJDztI0D6u53fDJJhQhQR3R2SIYHWBVgeYQhAAAAqHuGEX3cfOp3XrdF5uWRO89Zz1gZghD/mxubtC6QTpmPOa0EAVC3NBDRyi8A/vfhm0Q2dqZtGmBVgOXRJgsAAAB1zTCiemL4dfe2r9xxXnZ0c9F3pTQAafmDjdLYHGYxfGh2dMIein5uwmqNBSAYNBARaZBQewuLAfjcxFWRV08svmzp6dn0eiKR+C0rA+Q4f2EJAAAAUK9SA9MPu7fdH70ot2+eZHFWeiLRGrEqQrQyBP6iIcjVf2UoOhBkM++NWfsCAP72yduWbPo0qwIscw7DEgAAAKAepQamH3dvu2vbhOzdfpnFWelJBEGILxGCAHCbOX0xVSUCwK82rhO5qSdt0x5WBVjmPIYlAAAAQJ3SIKTDebF1XdKqCsEKTyAIQnyHEARANjpIPRkfZaA64HN3G2kvOwwjSiAC5DqXYQkAAABQb8yTQG2N1ee8ZmB6mU4eCEJ8hRAEQD4MVAf87+M7lmy6g1UBcpzPsAQAAACoJ6mB6QPubY/tHpHuNi4Gr+jEgSDENwhBABS1zzg/wfwQwMdolQUUcU7DEgAAAKBeZBuY/tDOUatFFlZw0kAQ4guEIABKpfNDFpLsNwC/+vBNaS97zffEvawKkOW8hiUAAABAPcg1MF0fWMEJA0GI582PT8n0WyOEIABKZs0PMfchAPzp4x9asqmfVQGynNuwBAAAAKgTSwama1UIVnCyQBDiaU4IMmU+5syPAWAldD8yO3KZhQB8KKMyRDE3BMh2fsMSAAAAwO9yDUzHCk4UCEI8S1vZJOOjhCAAym7mvUu0ywJ8KiMQ6WNFgCznOCwBAAAA/CzbwHQNQhiYXjoNQJq3bSAI8Rirjc07F+XqGwlr4DEAVGQ/Q7sswJcyhqgThgBZcHYDAAAA30oNTH/cve3+6EXZ0c3d8qWyghCtCImEWQyP0IuTerf2lIYgtLABUGFWu6xRAlfAbzLCEH2f3M+qAOk4wwEAAIAvpQamHxXXnBAdlr53OxeLS+UEIdoiC96gFySttjUMRgdQRTOnL0qoo5UKQcBHNq5bsqmXVQHSEYYAAADArw67T/J0YLpWhaA0BCHeosPRNQRhJgiAWrAq0t65KJHeThYD8IksQ9R7WRUgHRE/AAAAfMcwogfMpz3Oax2Y/qWdo9YzSqMzQghCak8HF0+fPMdwdAA1p7OJ5tkPAb6yMT2/3MGKAOkIQwAAAOArqf7HD7u3PbRz1KoMQWkiWzqlsb2FhaghZy6IDkefG5tkQQB4QvIdKi4BP8loldXBigDpCEMAAADgG645IYt0Rsjtm7l4XCoNQsKdbSxEDelckKk3z8jMe2MsBgBPmZ9MyuwIs7gAv8ioDOljRYB0zAwBAACAnxwX111uzAlZ4clA12qCkBrSi4zak592WAC8TKvWQuvbGKYO+ACVIcDyOJIBAADAFwwj+ri47nDT+SCP7R5hYUoUXt8mkRvWshA1oC2xkvFRqxqEIASAH/ZZsyPjLATgz/fPBCKAC2EIAAAA/HAip8PS97u3PXLnOQamlyjU0SqR3k4Woga03czUGwlrMDEA+IW28VtIzrIQgMfdetOSTbTKAlxokwUAAABPM4xor/l02L3tvr5LsqObO+pL0dgaseaEoLrmx6esQcTaGgsA/EjbZRGkAwD8jDAEAAAAXqcD0xdL/DUEubePQdOlaGgOS/MtXfR9ryJtL6NzQagEAeB3uh9run6NNES4lAQA8CfOggAAAOBZ2eaEaHssFE8DkOatGwhCqoiWWADqTfLUKIsAeFj7qiWbelkV4BrifAAAAHhStjkhOjCdOSGlad62wWqRhcrTVlhaDcJwdAD1Rvdr2vavsb2FxQA86KaeJZt6WRXgGsIQAAAAeE62OSH3Ry/K1nXMWyiFzgjhwlXlWS2x3rtkVYQAQL3S/VzzLRxTAAD+QxgCAAAAL0qbE3L75knZu50LzCW94e9aLeHONhaiwubGJq0B6QvTsywGgPre341PyUJyltkhAAD/nRuxBAAAAPCSzDkh3W2z8tBOepSX9GZ/fZtEbljLQlSQXhBMnr5ohSEAEBRaHRLp7WQhAAD+Oj9iCQAAAOAV2eaEaBDCnJDi6XyQJoKQitJ2WHpBUNtjAUCg9n/nJ6Tp+jVUhwAA/HWOxBIAAADACwwjqm2x0uaE3Nd3SXZ0M4S6WA2hRmm+pct6RvnpgPTpt0bstlgEIQACamZknEUAAPgKET4AAAC8Im1OiIYg9/aNsSolIAipHK0EmXmPn0sAmDs/IQtaHcLxBgDgE4QhAAAAqDnDiB4wn/qd19oW65E7z7EwJYhs6bRaZKG85senZDo+yoB0AEjRyjgNRMJdq1kMAIAvEIYAAACgpgwj2m8+PezepkEIc0JKeHPftVrCnW0sRBnpxT6tBtH5IACAdDPvjxOGAAD8c77EEgAAAKBWmBNSPqH2FokwML2sqAYBgOXp/lH3lY3mMQgAAK8jDAEAAEAtaRDS67zYui7JnJASNDSHJbJtAwtRJloNkjw1KnNjkywGAOQxO3pFIoQhAAAfYMoVAAAAasIwovvNpz3Oa+aElEYH1zZv3cAA2zLRAGTqjQRBCAAUaFYHqc/R2hLwghPvLtkUZ1WAa6gMAQAAQNUZRrRPMuaEPLRzVLrbaEdUrKbNaxmYXgZUgwBA6XTfycwqoPbGry7ZFGdVgGsIQwAAAFBVrjkhHc62u7ZNyO2buQhd9Jt5BqaXhV7E0yCEO5sBoMT96MWrHI8AAN4/f2IJAAAAUGVaEdLnvNA5IfdHL7IqRWJg+spp+DHzzkWrxQsAoHQaKi8kZ6UhwmUmAIB30VgYAAAAVWMYUZ0Rst+97Us7R615ISiczgdhYPrKzI9PydSbZwhCAKBM5i5S4QnU2pkLSzaNsSrANUT2AAAAqApXe6xFWhGilSEoTvMtXQxMX4GZ9y6ZD64NAEA5zY1PS7iLdQBq6exo+utYbGiYVQGuIQwBAABAtRwV15yQHd1Tsnf7ZValSNoai4HppdEWLtMnz8n8JAEcAJSb1Sprbp6wHgDgWRyhAAAAUHGGEdXWWP3Oa22L9cid51iYIoU6Wq2h6SieXqSb+vUZghAAqPC+FkDtZLTJogwWyEBlCAAAACrKMKI6LP1x97aHmBNStIbmsES2dLIQRbKGpL93SWZHqEICgEqbH58W6WxjIYAaOZPeJosWWUAGwhAAAABUWtqcEG2Ndftm7hwtVvPWDbQeKZJWgSTjo1SDAECVzI1PsQhADY1fZQ2A5RCGAAAAoGIMI6oVIX3Oax2Wfm/fJRamSMwJKZ62akmeGrUqQwCUbiLZKL+7kH//o/t3Kv6wMD1rzWdqiHC5CaiFE++mvaQyBMjA0QkAAAAVYRjRfvNpv3vbl2iPVTTmhBQv+c5F2mIBBXCCjpPm44r58ckLTda2kYmwnJ0o/XKBE4x0t82ajznrtT70NeqfVoeEaZUFeAF3IAEZCEMAAABQdoYR7TCfjrq33dd3yboYhsIxJ6Q4ejfy9MlztMUCsnBCj99daEo9R6zgo1J/lno9y+d2dE/JNvNYsKN72vqYgLz+MDcEqI1XTyzZFGdVgHSEIQAAAKgEnRPS4bzQC1739o2xKkViTkjh5senrCCEtliAXfHx+tkW89FsBR/6sVfYf68WeeZN+7WG5H3mMeKubVcIzOsEc0MAz4izBEA6whAAAACUlWFEB8ynPc5rvev3oZ2jLEyRmq7vYE5IgWbeu2Q+CNsQXBp+vHy61Qo/NGhYQYsr/UVyesy/6No+mOf/p+G3Mx9qjevj/nx/4O9SVSrPvLnaaqN1++ZJghGfs+aGzM0T5gNV9trSyhBmhgAZCEMAAABQNoYR7TWfHndv0yCEPvHFCbW3SNP1a1iIPPRimw5J12HpQNBo6PHy6VUybD4XMuA8g14gi4vdycr6OBYbWulFs2PLHBf00W8+dogdlPRm+1oNcTQUcYIRDUX+eNsExxA/7p8nk9LQ3sJCAFU0fjX9tblf504RIANhCAAAAMoprT2W3uGrDxRO76SNbNvAQuShc0Gmf3fOugMZCAINCpwARJ+LmPcRF7uywwo+YrGhwWr+vc0/L+76O1hSAUm/+bgj9dyb7d/75PAa63HXtgkrGNGWi/CHufFpaSQMAarqxLtpL6kKAbIgDAEAAEBZGEZ0v7haouidvLTHKp4OTKe1yPJmRydk5vRF5oOg7mkgoO2vXjh5XTHVH3oBbFDsNleDXrwzOBWQHEk99Pih1SL3id1isTfz61842WY9NAy5r+8SoYgPLCQJqoFq+x/pYUicFcl77uK0eHS3etwhrhu7Uvoytg3mOPZekmvtJsfKUHGJCmhgCQAAAFCGkwk9SXjNve2x3SNcsCpSuGu1RG5Yy0IsI/nORZkducxCoG5p6KHhh4YgBc7+iIt9YeZZ8Wj4UcLxRIORAVl6QcpCKOJ92u6x+ZYuFgKooo/9p7SXB83jwQFWZfHYoseTfrErEvukgJlWZRJPPTQYcSo0CUlqeb7FEgAAAKAMDrtf7N1+mYtURWpoDjMnZBnWfJCT52RunJ8r1J8SApBBscOPY6kqi7qRukikjwcNIzpgPj8g1+7YtWibsC/+rMU6zjCXypu0lSGA6nl16fD0OKtihSD9qePInhr9FXrl2tws5+/kHMf1WOfZKs66PediCQAAALDCk4wD5tPDzuut65JWVUhbhBZGxWjZvlEaWyMsRBbMB0E9KrIFll4k0QHletHkWNAumqQuZulxpj/b5zWAv7fvEscdj2n9dzeyCECVPH1c5NAzaZtuDXIFQmo21WEpsgKkbZXIzT3p2zZ2mo919sc6pD5jNkvWbSXQ75VzkwOVIxVEGAIAAICVnGjoCcZx97bvfuqMFYigcE3Xd1AVkgPzQVBPdOi5E4BodUMeTgDybCw2dIzVWz4U0SBEq0Ru3zzJQnlEyy1dDFEHqkSDkKdd78jN40Zgr/mmqgoflxytFjXcuGmTHXrc1HMtANHnldJQxAlHJq7aFTtnLpiP4sYoxiVVAcrxv/wIQwAAAFDqiYaeYOickF5nm/Zwv7ePKu9iaDWIVoVgKeaDoF5oAPLy6VXWEPA8CEAKO/70i32hqy/zcxqGaChClUjtEYYA1fOFJ9JaZelcilsDenwYkIz2vUpDj7sNkY/vuFblUW36/dGQ5EQiFZIUFpDo+4Ij5uNJKkbKgzAEAAAApZ5s6IWo/c5rrQbRqhAU8WY81Cgtf7BRGiKM8nNjPgjqgbbB+oeTbVYVSAFzQDT4eJIApOjjkB6DtFIk7e5fDUIeufMcs6tqLHLDWgl3rWYhgCrIGJ5+xDye7AvgMaFX7Bu1Fo8JGoLs3yvy4Zu89/fVihENRV4zHy++bleS5KFhyJOp7y93n5V6/sUSAAAAoISTjX5xtcfSC0/f+dQZhtgWiQtFS+l8kGR8lOG78K0XUgFIAW2w9KLGExLAGSBlPh7pRS+9C3jJcFydJXJ/9CKLVCO0gASqQ6sN7v162qaD5nHlQACPB3osGHBe332byFf+3F/fx+di1ypIluFUker3Oc5vQHEIQwAAAFDsicaS9lh6sUkvOqFwofYWab6li4VwmRublOSpUeaDwHe08uMnb7ZbQYjOBVlGXOwLGE9wAaPsxyYNQ/RCWFqViFYtPrZ7hLZZNUAYAlSHXkB/9Km0TbvMY8xgAI8DF51jgM4F+clB//5btGpEZ8C89Ebedlr6fT4YxO93qQhDAAAAUOyJxlFx3YGrbUj0QhOKeBNOe6wldDaIzggB/KSIKhDaYFXn+JS1SkSDED1OaTCC6gmvb5NIbycLAVRY5vB009qgVRxmVq1ra6w/21Uf/zatFHk+lreV1qAQihR2HsYSAAAAoIgTDb3AdNR5TXus0tAe6xqtApnRQennJ1gM+EIRs0DiYrfBord39Y9VOkvk8cztOlj9rm3sa6qFCkigOhievjQM+dYD3pwTshIahDz3isjTg8tWi5ifJRRZDreiAQAAoNCTDOeO20XaHosgpDihjlaCkBQNQqbfGmE+CHxBqz80ANFqkDyOiF0FMsiq1Ya59ofMY5auv14YW2yb9c1fdsrIRFju7SObAlA/XEGIGmZF6lPbKrvaRR/aPkurgTK+96pfH6lj4D5aci5FGAIAAIBCpfViv33zJHfYFknbY0W20DJEaQCiQQjzQeB1Gn4882a7/O5CZLkvi5uPJ8WuAomzarVnfh+GDSO6RexApM/Z/uTwGjk7EbKqRADA77JcDH+RVbFnbtSzj3/Ifuj3/2+fzxmKnDKPg4fErhThLgDnfIwlAAAAQD7Z2mP93Z8mGEhbJA1Cwp1tgV+H2dEJmTl9kSAEnuW0wtIQJM9A9EGxh6EzC8S7xy8N8bVl1oB7u4b5BCKVRZssoPL0Qvj3nk/bdKuGwQHd3y84H999m8hX/jw4//ZlQhGlQciD5s/FEX5jCEMAAACQ/8RCLySdEldVyCN3nrMqQ1A4LgrZZt67ZD64OQ3epNUfGoDkaYWlP8AafhykCsRXxzKtbhxwbyMQ4bgH+F3GvJAx87i0NsD7+dckVQmoLaV+/n8Ebw30Z+HRH+ScKTIotM6SRnYbAAAAyGNJeyyCkOLQHsueD5KMjxKEwJNePt0qX/xZl/zF329cLgiJm4+D5mNLLDZEH26f0e+Z+bTPvU2/1zpHBAD8KqMSYDDgy/Gk84EOG9e5GkGjQ+N/Yr5T2b/XDoQy9JuP1wwjuj/IPyTMDAEAAEBOqfZYe5zX2haLu2iL13T9GmmIBPetN4PS4VV6Mfz71gyJZX8/B8UeiH6EFfM3/R6axzX98LD7Z0BxbAPgN8wLWUKrNh93XuiAcZ2rEUQ6ZF1bhR16RuS5V9I+ZbWONI+Fn5aAVomE2HUAAAAgG/NNcq/59FPz0eJs+8od52XbOi5oF/WGu71FIjcG985ja1D6m2dkITnLDwM8QWeA/Ohf18hX/3GDHD913XIzQY6I3WP7YCKRGGbl6oN+L3t6Nr0trqBf26ONTITl9s1XWaAyamwOS3g9c7KASnk+tiQQ+bK5jzsb4P37mLl/7zc/1HMYa4i6VkpsDOjb8EiTHQbpGrx20q6WcdE1GjDXayRo73EIQwAAAJCV+eZYB6Z/0HmtrbHu67vEwhRB22M13/wB6zmIdFB68t/OMygdnqDVH1oF8s1frpd/SayS5FzWEZrax+1H5uOeWGzoyUQiEWfl6k+uQORKslE+ummKBSoTwhCgsnRgtl7wd45f5nHrQc5frH37wOKx/4JdIRFkGgZppYi+68kIz/SGtz3mmvWajxfNY2MgDoCEIQAAAFgi1Uv2L53X2h7rsd0jEgktsDhFaNq4RkIdrYH8t8+OXJbk2+YZ6AI/M6gtDUG+PbTWCkF+c655uRDkG+bjc7HY0NN6dykrV9+yBSL689HdNkcFZJmE1rZKaM0qFgKoAL3L/5s/Stv0M3O/9jT79kQ8szrk5h6RG7v4mdEKkTs+JPLKb5ZUiejQ+d3musWCUFlEGAIAAIA0qfZYPxTaY61IY2tEmn9vfSD/7dag9LOX+SFATb1+tsUKQQ79c6d1138OcfOhd9L+VSw29LOg3BUJWyoQ0WNen7Pt5dOt0tc9Ld1ttPZbKQ1CtFUkgPLTC9q/+FXapm/Q0tGWWR3y67hdHaJto4Kuc7W9FhfGRU68m/apbvPxWXPt3jJ/jn5b18cmfgwAAACQcQKR1h5r7/bL5mOchSlS800fkIamYL3dtgal//aszF2i7z5qR0OQb/6yU74/3CHvXMp55SMu9jyQfXrxiBAkuMzv/bPZApFdWyatqkiUToMQwhCgMp76+ZKL2Q9S1bi4X9fqkD7nfEarIJqb7MoIXJslou2ztG2Wa6yf7rA1EGkw13CwXv/9DfwIAAAAwJFqj/W481rvjP3Op85wQahI4a7VErlhbaD+zTooXStC9BmoBQ1BnhxeYz0vQ0/uD8ZiQ4OsGDKOf6+JKxDZui5ptYfk+Fc6PQ7q8RBA+X3mYZEzo4svh83j2q2sSto+vdd80v16h7Pt+38tclMPa+OmgdrXfrAkWFNHxL5ppO4Ctka+7QAAAHCdNDzs3vbQzlEuBBWpoTksTdevCdS/WQOQ6bdGCEJQEy+cbJO/+PuN8sWfdS0XhAyaj13mSf0ughDksEvsiiGLtlbTNmsonbaLBFB+euHaFYQ4xzi4mMd63Z8fdG/Ti/5Ip+HQtx+wK0UyDJiP4+b5YUe9/ZtpkwUAAABLT8+mw+K6K1bbY/3JLRMsTJGat3QG6gLQ7OiETJ94n0HpqDoNQR7+xw3W88WrOU9tB83Hvlhs6KC2zWDVkIu2SjOPgy+aH35WUjOzNBBpiyzI9g3TLFAJwuvbrBsEAJTXsV/a7Y1c/ioIg69L2K+/4h6mfuGy3SKJdlnptG3WJz5ir03Gz5XOEdHB6i/UUws2KkMAAACgVSF7zKc9i+9822bl3r5LLEyRQh2t1iMoZt67JMlTo3zjUVUafvz7H2+y5oKcnch5ofWI+biVShAUw/xZ0eHDD7q3fX94jRWKoHgNVIYAFfHiG2kvx1L7LmS3T9fIefG955dc8EfK5z8p8pX/sGSz3ij3mnmu2Fcv/07CEAAAgIBLlT8fdm+jPVbxGkKNEtkcjJYqOihd54PMvMecTlRPESHIFh2MzsUhlML8uTmS+jmyTCQb5Rvmz5w+o/jjIoDyOnNhyXyHY6zKsvv0uGS0y3r0B/ZQdSx1t2HPVmlblbZZzxWP10sgwpEJAAAAh8U1XPD2zZOyo3uKVSmSDoltiNR/OxANQnQ+yOx5WqihOkoIQeKsGlZIq0MWwzStDNEKERSOeSFAZbz0+pJNz7IqyzPfFxwS11wVnbfytadYl1ycOSL1GogQhgAAAARYZnssrQbRqhAU+aa6NRKIoek6IH3qzTMMSkdVEIKgVsyfJS17S2ut8sybq+X1sy0sToGoCgEq47lY2kttkUVlSGHuce/TX3pD5OnjLEouTiCizy51EYhwdAIAAAgo2mOVT+SG+m+PpQGIVoQsTM/yDUdFEYLAC1Jt1tJaq3yTdlkFa2wnOALKjRZZK9qnOyH3okPPLFlPuNRrIMJRHAAAILiWtMfSB4oTXt9W9xd9ZkcnrIoQbZEFVAohCLwms7WK/lzSLqswDaEGFgEoM1pkrXifruHRIfe2rzE/ZFnaKqveAhHCEAAAgACiPVZ5aBuQpjqvCpl575IkT/GzgcrR1kMFhCCDQgiC2ljSLktniGB5zAwByu/pwbSXtMgqgblmaTOhtDJEK0SQW70FIoQhAAAAAUN7rPLROSH13Bc9GR+VmffG+EajIjQE+eLPuqxHnhBkVyw2tIsQBLWQ+rlLa5f1jV92sjB5NBCGAGWlF+3PpN+bQhBSurSQ+7lXmB+SzzKByOHUuaVvEIYAAAAED+2xyvFGujUi4a7Vdflv03ZY2hZr9vwE32iUnTsEWWYg9aBcC0EGWTXUUqpd1uKdxFoZohUiyK6hOcwAdaDMMganqydZlZL36bo/f9C9jfkh+Wkg8r/9uf3sopUhx/0UiHB0AgAACBDaY5VPvQ5NX0jOWoPSdWA6UE56AZkQBD6WNnhXZ4cwTD27xkiYRQDKTKsXXOIcI1fGXL8jYs8hW/Sl/4v5Ifk4Q9WzBCKP++XfEOLbCAAAEAypO3a0CHzxKuRX7jgv29Zx0bvoN9EdrdK0sf6G6GoAMv2bs1YgApSLtsD69tBaOfTPnTKSux1W3HzoPJAvJxKJOKsGrzF/Ls/29GzS4+ht+jo51yAz5uOjm6ZYnAzh9W0Sam9hIYAy0aqQX/wqbdMT5j5pkJVZ8X79WXO/rjeJdetrDULeHhH5xEdYm+V0rhb52HaRo79M29ynx0hzTV/w+t+f2xgAAACCg/ZYZaCtPyKb668qZG5s0qoI0RZZQDloCKJD0XU4+gsn23J9WVzsEGQLg2DhAzo7JG2Y+jLzbgKrsbWJRQDK6KXXl2w6wqqUzT3u/fpLbzA/pBBaIfKV/7Bk837DiA54/e9OZQgAAEAApNpjHXBea3usx3aPSCS0wOIUSStCtDKknsyOTkjy386LLPDzgJXT1kE/+tc18tV/3GC1xspBLzx8ORYb+lwikRhm1eAH5s/qVE/Ppmnzw93ONq122rWFGwvcIjd2SkNjAwsBlMGZCyLf/FHapkHz2PkEK1O2/fqYuV9/y/zws862V34jcseH7AoI5HZzj4ju6V89kbZ5j7mez2o1pVf/3lSGAAAA1LlUe6zD7m06J0QDERRHh8KGu9rr6t+UjI9K8hRzY7ByGoJ8f7jDqgR5cjhnGzkNQfTu+i2podSAr6R+buPO65dPty43AyeQx0mGpwPlk6VKgcHp5d+va2Vq2nuSr/2A+SGF+PwnRe6+bcnmo14eqM4RCgAAoP7RHqtMdGh6vVzk0XZYGoTMnp/gG4sV0zZYTgiyzFBpvdCgIcgB8zHGqsHHHnS/WCb8C5zGVREWASijjMHpY6nB3yg/vVFjsVL1xLvmm5ZnWJRC7N9rt81y6TUfRz17nOJbBgAAUL9SfVv3OK+1GkSrQlA8HQZbL+2xNAjR+SAEIVgpJwTR2SDLhCBHxA5BHiQEQT1I3UU86LzWyhCqQ5xjZTOLAJSJDk7PqE6gPVbl9uv6/mSfuOaHaBClM0SwvLZVIt/4C/vZpd88Dz3gxb8vTRwBwIPMg0av2Gl6n9h3c69JfexwPp9NXFyl+2Lf3XDJtX2YCxFAoPYlr4mrKuSRO89RFVKilu0bpbHV/3e8zk8mrYoQfQZKpRd+9W74PBeAB82HBiDMBEE9HmP7zafFBjY7uqesWVwcK+vjWAl4wb1ftysUXPTGgjgrU9F9+4C42gvrBf7vf1lk4zrWJh+dHfKFpXHdLvNndtBLf0/CEACo7YFWL1BqyKEnUzvkWgBSaRqG6IWJF1PPw7ypAupyH3M8tX+xaAiiYQiKF17fJpHeTt//OzQA0YoQrQwBSqED0b81tLaQEOSg105+gUofZzUM0VAkyFr/3Y38YABlkOXC8hHzuLqPlanKvl1bPC1W1n/4JpFvPcC6FOJvnxf53vNpm/Ta0xYv3ZAb5tsEAFU9qPamTpjuSD331uiv0pH68/tdf7e42BcvntVnqkcA3+9vDrh/x7vbZmmPVSKdEdJ0vf/7wc+OTsjM6YsEISjJ2YmwfH94jdUWaxn6XuIg/cwRIAfdx9pn3mwPdBii7SQBlAeD02tKQye9SbVXX2gwpd+PP9vFwuSjA9V1vfSRoteetNLmHs+c2/FtAoDsDCPqtKjKerJfaCVFqoT+06kTpZKrPtwnVtrzf9u6maxfd/JC02LPbn3WOzhLpL2QNRg5RjAC+HL/9Zp7G3erlq7p+g7fhyEahCRPEYahePpe4idvrs43IFrfJ2gIcogVQwCPuWnVIX/3pwnrBgSOlwBKdeaCyGe+mrZJb1bkUnx19+26X1+MpGiXVcR7x6si93x1ybybfV65WYYwBEBQD2xOeyon8Lgj9an+Ev5zcdfjbbGrK/S/qQHIHskdqKTRgGPruqRsMx9tkQXroqWzrRy0nYUTjmhgos96l2eB9KD1JO0uAN/s3zQI6XW27d1+We6PXmRxSnmz3By2+p9rdYhfJd+5KLMjl/lmomjfH+6w7nRfZjC60jvjD3HjBAJ83B0QV3/5u7ZNBLYSs+WWLmmkOgRYsUd/YA/vdtlH1WVN9u+Pm0/7nde0yyqcDp7/0nfTNun7xFu90J6dMARAEA5g7rkcd8i1AKSmNOTo656SHd3T1se1uINML25oSPL62WYZNp8LqCLRAxftLwBv7/P0gsyAe1/z3U+dYWFKFNnSKeHONt/+/XVQ+uz5Cb6RKIq2wtKWWHlumjiSek8QZ8XAsTd6Slw3ITz7P79j3dQUNMwLAVYuS1WIdqXYwsrUZN++5Caz/Xtpl1WoLKGeJyqcCEMA1OtBq1/K0JqqnDTs0OHFGn44VR9eoxc9NBx5+fQq89G63JfGhVAE8OK+b0Bcd6fqfkbbY5WrwixoGlsjVlWIH+lcEB2UrgPTgULpewBth1XAcPQHzfcAw6wYkP34e1/fJbm3L1jFUjovpPmWLn4YgBWiKsRz+/d+yWiXdfQR+xnL0zZZ935d5Ex6seSDtW6rShgCoF4OUJrYa0sqJwApqvJDg4ou89FtPeasbddZczmyX0TSsOCZN1fn/e/qBci7tl2xKkD8djFSq0Y0ENH2GMtUjMRTB7Nj/BQCNd8P9op959Li/k9bY2mLLJTGr+0+CEJQLL0Z4ttDawu5EWIfLTOBnOcip5xjsJ5T6OyQIGFeCLByVIV4dh+f1i7r7ttEvvLnrEshdJD6F55I26R3CmypZXvVMN8WAD4/6XACkD2F/H+cGRx9rtZUxYQUerFA20Zo+4hc9L+pAcgfb5vw9fBEXSvteawPDUM0FMny7+41H0fN78Wg2BdI4vxkAjVzVFxBiFaiEYSUTu9w9WMQogGIBiEaiAD56I0P+r4mzw0eDEcH8tCLOub74SOSulim5wwaLuqxODDHzQ5ukwZW6m+fX7LpSVbFE3Q+2oBzrqWVO5807BkiWJ6ukbYVe3qxtsZaQw2X9tXq70RlCADfSZUp3icFDCfXMGJHai6HPpcaThQSgtjBwRXrz6lXBayDXiw5wE8pUPX9YtrdSrqv+86nzgSyX3m5aHssbZPlJ/PjUzJ98hxBCArCcHSg7MfiXrGrQywahDxy57lA/NsbQo2y6tYb+CEAViBLVUjN76BH2j5erz8ddV5v7BT5yUHWpRDaLuuer9rPLrtqVW1MGALALwceDT0GzMcD4hpelY2GEbdvvmqdgKy0MiPfxX+nCuQz2y8H6qJjnnXRHuL3UCUC1OaNudKB6cwJKV14fZtEejt99XeeHZ2Q5KlRvnnIi+HoQEWPyXrva7/zWltl+blSvFChjlZp3raBHwBgBbLMCuFGQ4/v4/+XT4p8/pOsSyFeekPkS99N2zRs/nzfWou/C2EIAK8fbHrNp4clTxWIBh9OAFKOUCJf2wg9qbm375JVDRJkOmD1W0Nrs80U0btX9jFLBKjKPjJtTkgQh7aW26oPbZKGiH+6yc6OXJbkOxf5xiHvMbvA4egHmQsClHxcHpAADlKP3LBWwl2r+QEASpRtVoj5uJWqEO+fe/3kEZGN61ibQujsEJ0h4qLXjI5U++9BGALAqweZfrFDkP5cX+MMJ9dAopxVGRqAaBCSrW0EIUh22mpDL7Bk8SA9xoGK7iv1zXif81or4x7bPcLCrIBezNGLOn6RjI/K7HmOScitkFafYl90OViLE1KgDo/Nmk4HapC6324iALwmS1XIPo7Jnt3HHxD7WpVFZ2J86wHWpRBeaQUX4lsBwGMHlv6enk16N5UeYHozP6+hx64tV+RLO0etO622b5iWSGihLH+2Vjf89c8/IP9wsk2Sc+lZsZ7I3G+e1zxk/rnbaD2zhF6A3bn5qvxLYlVmiLTb/H72JhKJZ1kloOz7S91X7nbvH//m7rNl2ycGkfY81zYfDY3ev19I54LMnL5AEIKc9Hj8o39dI9/8Zaf85lxzri/Tk89viH3R5RVWDVg5871vt/l0m/N7qO+R162aq99jZ3NYmq7v4BsPlEjvlD/0TNqmuHlM3sfKeFMikRg09/PauUT39dYFfp0fcnMPa5NP+yp7bsiv44ubtFx5Wte0qsctvhUAvCBfJYiGEZ/ZPl72KhBHrsoG/bO0EmTv9st8kwqgJ3x60eXl062ZnzrCGzqgrPvMAXG14VBaEaLBJEqnF3Oarl/j+b+nBiHTb43I/CThPLLTKpBvD63NNxz9iNgVnLTgAMp7jNaKzdec13r+ojdU1Ss/ztkCvMQrrYNQ1H6+33w67rxuWyVy9BH7GcvLMky96tUhVIYAqPVBpLenZ5MO/j0gWSpB9MLeF6IXZf/HLpS1CsThVIMcP3Xdks9pAPLIneekj4uLBdPvz64tkzIyEc6cI9JHhQhQtv2mXmT5odh30li0ck2r5lA6rQqJbF3v+aoQghAsR+eBfPUfN8h/fat9SZWry6D5uMc86fyOeVzmTQ5QZubv1Vnzfe+ApFpl6fviz/1R/d5YpTcRNLY08Y0HSvBcTOTp4+nHaPP4/CAr4/n9fNzcz+s+3qoCTM7aj9u2szb5RMzDxcxsWgBY9eoQwhAANWEY0Q7z4PG/mx/+SHKEIE4rrM1rZiryd9BqkEdfXC8Xr6bvCnUWyTc+8b41j4R2M6XRYfbdbXOZFSIEIkAZ9p3m01H3fvP2zZNWaIyVadq4RkJrvH07lwYg02+ekQU92wJcdC6IVmZ+71drl7yvcYmLfbfpl/ViLasGVI75nlfTSKuVpQaT29bNVOycptYiN3b6or0k4DV6Z/xXD6fdIa/26YV2VscX+/mY+fSXkrpBTVs/6fyQjRTK5aUtxY7+0g6QUrRd/pPmz35VqkMIQwBUXaq9y08lS0ssdwiirbEq8qYj2WhVg2QOEtWWWHrX1lfuOF/XfX2rRWer5AhEOsyD3AusEFDSm+4fuvedup/8+ifeJ7hdIe13rrNCvMwKQt4asSpDAPd7Gp0LotUg71zKeWe2NRckFhu6xzz+/pZVA6pyvNbAcb/zWo/TerNQvWlsjUhT12q+4UAJnvq5yEtvpG3S1tJPsDL+oNW15r5+xPxwj7PtRELknp2sTT5aHdJsPl75TdrmjmrdOEsYAqBqXC2x9MSgxf05vaCnLakqGYIobd30v/79xiUXDLQa5Gvmn0+bmfLKEYjcZv4cvG0e6IZZIaCofegBse8+smiAq0FIJfeZgXlDvnmtdUHHq2ZHJ2T6xPsiC4ReuEZv6vjyzz8g/5JYtqLpiPn4XCw2dIwVA6pH7251D9it11ZZ4Q3tEmpv4RsOFEmHbn/pu2mb9MaFz1XrzniUbV8/bO7r+yVVtX/hsj0k/A+3sDb56Bo9H0urjOqrVnVII8sPoBoMI6oBiA4S7Hdv14t52uv+7/40UfHBv3rR4C/+fuOSYaIawHz3U2esQATlp0Mj71/awudwaugYgML2oXpB5WH3Nv29Yr+1cloVEu5s8+zfT4OQ5KlRvlFYpHNB9P2MtsVaZkD6oPnYFYsNaVusOKsG1MSTzgf6u6q/u/Um1MG0YKAUjz61ZNMTHK99K23Gy/eeX9L6DDl8/pNLNg1U5djF0gOopNRsEG3rsqQaRC+S613N1RhQrhcMdEaIm3NXtf49UFnbN0xnG6q+x/zZeJq7X4C8+1EdmH7UvQ/du/1yXQ9jrSYvV4Uk46My894lvkmwFDEX5EEdvkrPcaC2zPe5epKTVtH50U1TdfPv05sJIj1r+UYDRcoyND2urSxZGX/SOWwMUy+Nzg7JUh3yHW1BVsk/l8oQABWTuvP/lLh6KCpt6fLY7hF5aOeodVJQSXoXll44yJwPondTV6MaBdfo9ztjvZ1B0ABy70f19+Rw6vfFor9H9zMwvSy8XBWiQcjsecJ62O9l9IaOf//jTZltJzMdNB+3xmJDR1g1oPbM30VtCRt3Xuf5/fWdUEcr32Sg2GP6VZFDP16yeR8r43v6HmzxJk8Nu068y6IU4m4j7aWe8+6v9J9JGAKgIlJtsY6L6wKe0ruZv/OpM1UJIfTiwRd/1rUkCNFKEG2L9f+zdzcwUt1nvuf/TTeNwd24oe2BjjEurunOXTRr2jiXtmSLLqI7ca6ZTYzJCq52DY1CMitHI0O0A3N34xdsSzNmpaHZqzAah8htO6MFzWCTzMWb3CuFhrW1holxY91BG8BKx4lvYzlg426DjTHs+VWdU5xz6tRbd52qc+p8P1a5uk43/fKvqvPyf/7P84QdiEE+9YXx9TfotfsgAAimgGGv88Dpr4TqmP6lmyL3O6lBuhqlEwiB6BxGvc5eGCn6WlU/kEVHjx570rqRbQlES65fj7K7dGsULZ038uwCFXr6pbwSSmqaPszIxJt9/uUplzW4n3Epx9qVxrR5Ky4+ai8IDA1lsgBUlV0W62+tD//SvV2Bhx/0/8GsWTJuWpvDbwDrBEJ8ZZkyq6m/czfzBPWi5753/mfmn37d7t6ctl4zhynnAeTtT3dad+vc+1EaplePskJmpG6O1O/kBEKufvIZT1DCqbeAMltfPjm7WF8QHTdXWxfgz1JyEogm6xx3pvtYPr/ti0z52EY4hlIiC6jMkbeN+fGrnk06dv+7sEsCoTbsZuqqijJfj8fOZ8tA3T6PsSmmdboxn1uXt8dP5zapNPSvNZ5h/UwyQwBUjR29VTbIgHu7skBUkurehRdr8nsUCoSoTJMyU1BfKlFWoKF6B6MD5Pan2o96UoRpmF5dUcsKuXrxcjYQcpHnOMmc8p46jynSbDmz+vDo0WOLWE0KRJv1Hj3gfnzi7IzGOIb+UTtPLlDJ8f1SNivEZyMZnQ2H7JBJUHaIzxNh/jyCIQCqwm7w+5ZxlXMRBR/UH6RWJamCAiH62fodaJQeHXpd+EqlpcI+4AEx2p+mTbZPSM6G3gvsw6ooar1CCIRAnL4g/vKePkMmWxJrkBEDYmPY+aBIkDM+x9Dmaab55jaeVaACAeWxDviDpYg/e5FK7nkdO5eXDYQAKpO16h7PppR1TfxgWD+PYAiAKbMDIcoISbm3KxOjlk1+iwVCaJQePXp9+IJkm+3XEpD0/ekr7m3Kqlvfy6KxaopSVsjV8U8zgRCVyEIyaXJUQRD1BSlSEksX12qOzipSIH5+6r5e8Wevx03znFmZgAiA8hw8mi2R5aLjOE3TG5cnO2TvobxAGAJ8+4G8TY+G9bM4ggGYElcgJFfiSBPcalBey1XMxQIhlJWJJvU9WN97wb/5eUYGCd6fdtjvgdz+VPsvBQ5RPVHKCrlybsJ8SiAksdRIWecuuhVpqjxqsmU0Vlq3EUYNiKVh94ORmGeHRK3MJBBl6hsx+I95m1nY0MCs51bnbtudxwqE7CE7pKSuucYs6/ZsSlvXx6kwfhbBEACTFhQI0cRdPQIQqq9NICR+Aspl9dq9EoAk0v60178fq1WZwaSIyiSOAiGXf0OgK4m0gMMpiVWiZI4upJUNMsSoAfFlBzJzE59x7hvS3DHLNLW28KQCZdr2XF5WwBDlsRJh0L3f33coGxhDcQHZIaGUUicYAmBSohYIef3dWZ5tBELi43v5pdR20kwdCdynKiOEQEjIopIVcnn0HIGQhFI/EKckVhHDJtsX5ElWjgINY9j5IM59Q6bPo3E6UC41zz79e8+mUeMroYTGZJ+/bXdvo3dIacoM6er0bHowjLkhgiEAKlYsEFLriTtNKvgbjaqkDIGQ+NBz5SupptfVZkYGCdqn7rTuBtzb1G+J/Vj1RSErRIGQK3+Y4MlIGGWvqhyWFnAU6Qsyat1W2yWxRhk1oKGccD6Ia9+Q5vYbzLT2G3gmgTKoR4iyAXxWs8ghOaznetA+t8s4+AbZIeVYm/Y87PBfJ1cDwRAAFYlSIEQXEZpUcNMEYi17laA69Lz5Xj+Pkh2ChOxTdXLnCf4poMt+rPrqnRWiviBqlE4gJFk06alzle/+rKvYavDM6kHronkRpTOAhjXsfnAmhsEQeoUA5VE2yNMv5W3eQu+vRPJkhzzzEgNSyqp7jGmb6dlU9UbqBEMAlK1Qc996BEKchulumjxUDwrEj14/a5aMuzeRHYIk7FMH7H2qZz9GICQc9ZzEcQIhX4x/yhORIPtPzs6UxPJnsPoo+KG+IE8yYkDjst7jw+7H75yfHqvfn6wQoDzqD/L0T/L6hBywswSQvH3/kHFlhxw/nb2hMAVC+pd6NqWs6+Z0NX8GwRAAlfA0953fdqVuNe0f/+UtnjITCspoNTXi66ElH5MdgsSws+x2urcpCMJ+LBz1zAq5dvlKJhBy9SJlz5JCGSDKBNl9bE6pklgqh7WaklhAYuRWhY/ErG8IWSFAeZQR4usTovf9RkYm0TzPP71DSvOVypIN1fz+BEMAlCWoue9TX/2gLoGQF0c6PKUmnEbDiDeyQ5Cg/WlguUGVi0M46jWJowDIp/8yRiAkIc5OtGRKYilztUg/AHdJrGFGDUiUXDAkTj1DmjtmkRUClEGT3OoV4jvmb6RPSLLZ53u5cz6yQ0rrXpC9uQxUc6EswRAAJdmlXAbc2xQIqUdzX104vDDindSqV1AG1Ud2CBKwP02ZiPRdSoqm5mmZiZxaUwBEGSEqkYXGp4Uaf/azrlIlsYas2yJKYgGJdcJ/XRMHrQvn8MwBJRw8asye/BX/9AmBw9M7hOyQ0tauzNv0YLW+N8EQAEUFlXJRGZel8+tT9/xZX8P0Db0X6va7oPoKZIcMMDJokP2pXs+vGFcgpJ5ZdknRMm92JiBSS1fOTRAISQhlqqoviBZqFCmJpYkQlcRidSiQbJ5J0Tg0Uc8cQ1tbeOaAIlQWK6Ax9na7XwRAdsgk9N+Zt6lqjdQJhgAoKKhhej2b+2rVpXsFlVZTr+9lTqHRBGWHMCpokP2pp++SU+JP/ZcQDgVBWua11/RnKhBy+TfnCIQ0OJXEUv8ylcTSxwXoJEWrQu+iJBYA/37g/YloBxl0DKVXCFCcAiGP7MrbPEQWKAKQHVIBNVJfdY9nU6+9WHvKCIYAKOYJ45q4q2dNe000+MtjbaPRcGMe9FqvmnsXXnRvSlkHvQcZGcRVsUBIPcoNJkmts0KuvP9xJhCCxuaUxHr93aLl14ZMtiTWICMGwGXU+WDk7IxI/6IKhNQ6sxKIk4lLxmz7UfbeRRlgWxgd+JEdUrkV+dkhVWmkzpENQKC+vuVp42perYk7BR/qVcplR0B5LCYRG9d66/kN46AH1Iky7DyrWFRukH1Y+FpuvrFmP+vy6Dlz+XcfMugNTMEPSmIBmKJR54MoZ4Y0zWjJLCgAEEwBEGWEjJ0LPAfg+I9CPNkh+w4xIMUoGNLlnQqsyiJZgiEA8rjKY+Wsr2PwQZMPqsntUEkZymM1Nj3Hvl4wD9qNp4G47U+f95+0KRDiy35CCFpubqtZnXMFQq78YYJBb1DKTlU5LJXFoiQWgCk67N63RNWMVCfPFFCAEwhRiSzfeQALIVCUfY6Y6x915G1jxs4zLsX4skOqUjWEYAiAICqPlXIeaFJ6zZKP6/bL7D42x/N4K+WxEuH+xZ/4Nw0wKogTOxAy4N9/1avvUtLUos65+oKoUTqBkMak7A+VxFI2iHtRRoAhQ0ksAOUZdT8osW+pi+aOWWZa+w08U0DQuUHhQIgyQkYYIZTB02WG3iHFrV2Zt+mbU/2eBEMAeNgNiTzlseoZfNh/crZn1ZRWU/syBtCgNGHsK8tGqSzEaV9KIKSONJETdlaIEwj5YpxjUiNSVqr6gvj7lflQEgtApUbdD4qU3KsL9QhpXURWCBCkQCDEGAIhqID1WhlyHwsOvkF2SDFdc43pXuDZRGYIgKrb6X6g8lgqWVSXk43MikzvJES9GrijPgIaqfcyKoi6oECI9l0EQmpn+rz2UL//tctXMoGQqxfp+9JoKIkFIGSeCdN3zrdG6/hJ03QgUJFAyEYCIZgET++QV99gQIpZ1ed52GFdbw9M5ftxlAOQY9feSzuP1SOknuWxXj4527NaSr9LvQIzqI81S8b9m8gOQdT3o3mBEAVB6rkvTZrm9htCLe+hAMin/zJGIKTBUBILQC34s8gmLjdF6vhJ03Qg4ByheCBkiBHCJI4Fet3kjgd7D2VfZwi2YmnepimVyiIYAsDNkxXyvTpnYew/eX1lr8olKUsFyaKAnC8A9iCjgqgqFAihz1FtNd98Y2jfWwEQZYSoRBYaByWxANRYbhX5mQhlhky/bQ7PDOBDIAQh2uV+nR1+mwEpRKWylnV7Nj1oXXt3TPb7EQwBkGGnmaWcx/XuzfGLM22+rJBxf/8IJASlshCTfSiBkAhomtFiWjrbQvneX3x0kUBIg6EkFoA6iVxAdfqXOsy0Wa08M4ALgRCEzJNlTCP14h64J2/TpBfKEgwB4HjC/aDevTn8vUK+Rq39xLp/8SdVO+gBYSAQEh2qdR6GK+cmzGdnPiAQ0iAqKIl1wLrdRUksAFU26nxQYh9UEwqChHX8BOJKAZD1f00gBOGxM41zr6Ux69Lx+GnGpZD+O/M2TbpUFsEQAHlZIZrEq2dvDl0UuFdo1vv3QX2pVJYvK+ibjAoitP8kEBIRavja3DGr6t9XgZDLv+H5bBRllsQaNdmSWKut2yijBqDKfhulX6Y11ckzArgoAKKMkDHv6Z8mru8iEIIq2+V+sO8QA1JI20xjVngDIpMulUUwBIA86n5Q794cvzjjrfce0EQbCeMrldU7lfqQQLUQCImW5pvbMgGRarr8uw8JhDSICkpibT969NgiSmIBqBV3aeBaozwW4HXwaDYQ4mtmrfMDLZIYYYRQTfZrKnfOeeRtY8bOMy6FBDRSn1TVEIIhQML19S1PW3e5Hgz1zsLQxYD6hTiUFaAbkm3p/M/8m9KMCuq43+wgEBI90+e1V/X7XR49Z668/zEDG3OTKIn1JKMGIGTD7gfv1KmJOuWxAC/1bHjmpbxAiCarCYQgTC+4H7z6BgNSSLVKZREMAbDB/SCgP0NNqXyFG1khkKXzP807DjIqqAc7K0kJzAOeHWnvBQIhddSirJDWlqp9v0wg5A/0qoo7BT8oiQUAwSiPBWQp+LHtOWP25DewJhCC0Nml1z5yHis7CcFUKqt7gWdTelLXjgwlkFz2pN6A81gZGAGTztkThMvT8lYtBW2bCv1sf4ksX3kkJJSylXRzlTZJMyqo0z5TgZBe93YFQZQVgvpp6byxKt9HDdI/+/X75upFMhLjTMeK3cfm5C2wCLCdTBAASUR5LCBL/UGe/klgo/Qh67bFbnINhE2vt836QL1qVC5rxZ0MSpBVfcYMXn+/qmLDg9b79EBF144MI5BM9qTeE+5talKtetqOEuUkQuBdualAiK9xNhJMwbKz10uo9TIiqMM+k0BIBGkyZ1r71I9XBEIag0pi7T/ZXqoG/7B120gmCIA68awy1zVXoQVpYR03KY8FZFfgD/5jXlksYbEEak2N1Dc7DwiGFKa+IYP7PZtUKotgCIDMxJ0m7DR559wv9T3OU/vgR3H3LrzEE4kc9Q1x95NRvxsa3KKG+9NXrFvKvZ1ASDS0VKFXyLXLV8xnZz4gEBJjOofZ8VpnseboMmqyqzwPMGIA6kUrza1zi7r87KbmaZTHQuIp+KHJ1IP5vRmUBbKR8wTU4bgwah0XFCjPLLzTa3PzmmxZKHh1zc2WynJlc6Urvn5kGIH4cgU89Oa/yd5xpoxvwi6uarlCCtG3eG7eJKVe78OMDGqwnz1kXEFkZaw9svxDAiERoEmdls62KX0PBUCUEaLMEMRPJSWxrNsg5S4AJJkyQiiPhSQrUhZLE9Eb6Q+COlJ2yPPOg8NvZ0tCId+ybs97OKVr9kreuwRDgBiwJ+NSJjv5u9T1cdWpb4hTmirbp+GL3OeCghPVClgE9R/5pHiJCyTMHfnBkKWMCkLe9z5on5B6AiF/8/X3g16PqIOWebOn9O8JhMRbBSWxtjC5ASDpmjtmTfm4CcTZj18NbJIuQ4b+IKi/A8YVDNl3iGBIIRoXjY+LrtsJhgBxZNekV5Ajbd1utz+uStBDE3hOoGPx3M8z25xAxjy7OXU96fciEwSl6DXiKueWYkQQ4v54wH0y6uynCIRES8vNk2+cfnX800xpLAIh8aPjwA+PzclbROGjCQ1NbAwxYgCSLlMeaxHlsZBMY+eNeeYlY46f5lwB0WWXUNRrUdehmcwHvXZVFgpeKpOlEmKufj/qG/Jk2deQDCFQH9ZOLmWuBzv6TRXKWznBjt75n5kbM0GPy7kgCNAIFLQ7cf1hmhFBSPtnnUg94d+/PvXVD+oeOMZ1WuHa1Dq5U9kr5ybM5d+cYxBjRhkgKonl7h9VwKDJNj9lhScAWGYsviUTEAGSRtkgew8FNknXKvLV6tXAKCFCfmrsYIgcOWHM2pUMSpD+pZ6+P72aYy33/UwwBKgBX8bHUnO9t0fFnOCGAh3z2r6w768wQYdEcJdts99bKU5gUeX99fPuE1DRPlcZIU4JQUTD9Ek2TicQEk/7T842L47cVKokFvW+AcBHpbGmtd/AQCBRlAWiJukBvUFECyaeZJQQNdbr8oB1ParFPJkyzQePEgwpZMWdnmCIpE225F3p4yLDB1SfnfWhN6IyPiZd6kolgdxBD3c/DyCJsqXUbnJv0nttlJFBFfbbOuE85N9fq0m6mqWz742Wphktk5rYufL+x+by7z5kAGOkgpJYmtgYZMQAxMSofR5rzpyfHtoPUbP01tvmMNpIDGWAKAjimyR1sGgCcaDeIQP6gFJZhamJuo9KZQ2V828JhgBVYDc4T5ts8EP3HZX8eyfbQ+Wt7rCDHmR6AMHvFZ8Uo4Iq7cOVEZIXCNl6HxkEUTT9jyrPCrk8es5c+cMEgxcTygBRJogyQkrQRQ9NTwHEzahzHlsi423SVBZL5bGApFBDZTVIDyiJJWSDIC4olVUG9QxRQMTVCyhd7r8lGAJMgj1x9qDJlrzSG67s4AeBD2DyAvrfpBgVTHF/rn34K/79uIIgCoYgmppvbqvo6wmExIt6gqg3SBklsRQEGWbEAMRQbgHG4pD6O6ph+mR7awFxcuTtbDbIWPAaJp0nbKS0MuKCUlnl8wVDOjRXW07mF0dGoAxTyfzIBj4+te4/z5T4IfABAJHZtw+YbEZIjgLWCoTcu/AiAxRRLTe3ld0E9toXV83nv/uQQEhMqBSWSmKpNFYRujjcxepOADHXcf3c41oox8rmjlmMMhqaJkHVIN01Geo/X9CiiSFGCjFEqawyqG+IssFctGidYAgwGXbt+LTJ1px70FQQ/FDAQ1kfus/2NwBQTQowumrH9zMimOR+Pq9RugIhapR+R0grNFEdLZ03lvV1CoR89uv3zdWLPJ9RV0FJLF0YbmF1JwAUpj4h0+kTggZWIggi263bICU0EWOeUll6ra/qY1D8uhdky2W5SuOVNT9EMASw2QEQBT6cAEhJmjjLBj0+s7M/mHABwkYja1RhX5/XKF37bwVCeH1FW7mN0wmExMfr784yO17rLFUSa9RkS1wMM2IAUOQ4afcJKTeDEoiTMoIgQybbG2SU0ULMec551TeEYEgwlcpSqTxbupx/QzAEidfXt1yBjw2mjAAIwQ8AiPX+XgEQBUI82X7qDfLI8g8JhMRAOY3TCYTEw9mJlkwQpERJLGF1JwCUiT4haETqmfDqG0WDIMMmGwQZZrTQCHTea1276vWc1uMir/3EW7HUEwzJ9AQttS/gKIlEst4cKevuUZNNOytaAksBj/sWXqLsFQDEe7+v/f3z/u0KgqxZ8jEDFBOlGqcrAKJAiAIiiCZlgLx8crZ5YeSmUl+qixgangJAmVrmzaZPCBrnfOGSMQffMGbfcMHG6M65AkEQNCqVyko77wcFRJQFAa+AMfmm8WXW5B0vGTYkiZ0F8qgpkTqlxrn32gEQGp4DQOz3/YH9QZ766gcEuWOkVON0AiHRp5JYu4/NyWSFFKEMEAVBDjBiAFAe9QlppU8IGoCaRSsAokBIEdZXEARBw/O8vt8iGBJIjeW7Oj1B03TJ60qGDY3O1QvkCeuWKvR1mhC7f/EnmUAIpVIAoCH2/9rnv2IC+oMoEEKwO16KNU4nEBJtCn4oCKJgSAmDJju5QUksAI18fpL2n5dMRaZPyJfnMbCIrTKzQGTIur1AEARJYL3OR6zjxaix5zGVGfJthiWQgkQHr+87ejUPXOx6gmAIGvkkU0GQzSabCRJYCksTYQqAfG3xBJNiANBYxwAFwZ839AdpCMUap185N2E+f/dDAiER9eJIh9l/sr1Ug/Rh67ZFF32MGICkmeo5CQ3TEUcKgBx+O9sY2l3vP4AmNIes2y5KZyKBdI48oA/oG1LYXd152WS9pkipLIIhaDjlBEGUBbJmyXgmCwQA0HDHgZ32ccCD/iDx1dIZ3CtEgZDLvznHAEWQGqOrQXoZJbGUCTLIiAFA5VQaq9BiASBqKgiAiBZI7LJuB8gYRYIdNq5yz/QNCRYwJmlDMARJYTfILVgOSyuC1/deIAsEABrzGKB9f15ZLO3zVRZrqmUoUD8tN+eXyCIQEk3KAFEQpIySWEMmmw3CBAeApEm7H8yb5LWpmqWraToQdQp8aNV2GQEQnROoZ9guskWBjGH3A/qGBAvoG9Jf9NqSIUMjsOuuaiVwr/9zSjtWFshDSz6mLAoANO5xILAsljIBFQhh/x9fze03mKZW7ynrlfc/Npd/9yGDEzH7T842L47cVKokliY3tlDvGwCyJrNQL9MwfVEng4fIchqhHz6RzQgpQQGQn1rnBkOMHHCdSsPRN6Q83beW30SdYAhizS6JpcmvB/2fIwgCNKb3Jzh0Ie84oGD4gP9zG3ovmPW9LDqPu2ZfVsjl0XPmyh8mGJgIUUmsHx6bY94531rsy/Rm1ErPJxkxAAl3u/uatVLqD9Ka6qRPCCLHKYO171A2GFJCJgBiKIMFlKKFRCl9QN+QwpQx484+06L5QouvmFFCbFkvbNWDV0msvL4glMMCGpev/vxhRiTRxwFlA75ifKURKYvVODTRozIgDgIh0aIMkN3H5phfnGkr9aWa8NhC41MAyMidt0zmXEUZIcoMAaJi7Hw2AKJSWCWyQIat2wuGAAhQCc155BaAK9DYvYBB8QsoH1awiTrBEMSOXRNe2SBp/+dUDuV7yz9kAgxoUCVKryBZx4InTTYg7nHvwotm633nyAhsEM1zZuVWvhIIiRYFQBQIKbFfHrVuGymJBQAeudLOlZ6vTP9Sh2eRAFBPTiksBUFKnAs4jdBHGTWgYp7+OafeIxgSJGBM1DdkMOhrCYYgVgplg2gV8CPLP8xMggFoXAElWGisl7zjQMoENEnXZIIyAtcs+ZhBaiDNHTPNtS+umstnPjBfjH/KgERkP6ySWCqNVcJ2XYCw8hMA8uSuZRfP/bzsf9Ryc5uZ/qWbGD3UnUr1/PjVkiV7hqzbCyyIAKZG7yHrGjj3OFOCro9xCaLsENd+qbfg8ZShQhwUywbRxJcmwFgFDDS+M/nBkFFGJVHHgsCAuLIBt913jqzABqOMkGntN5jPfv2+uXqR57belAGi5uhqkl7CsMlmg7B/BoD8cxnP9ey8Mss6qyzW9NvmMICoqzKCIDr2qwwWiyGA6tIi0Mzkfhn9eBLLFwxJaS456JqEYAjicMKo2ngKhDD5BSTcO+enex5bBzYyQ5JxHEiZAgFxmqQ3Lk38EAiJhtffnWV2vNZZTkks9QU5wIgBQEEp94NyelxqccCMxbfQMB11o54gz7xUMgiy3ToHGGK0gFDkgiE0US8soFRWrwlYQEswBJHW17d8p3W32b9d2SAqiwUgWXyZIcOMSCKOAwXLI6o3iHpFoTFRFqv+zk60ZIIgZZTEUj3e7awCBYCSlnoelHEeM+PL80xTK1M3qD01Qx/cX7QnyLB9/Oe6DAjXb90PFKDsmsug+BVoop63UIsjKiKpr2+5Jr0OGV+Nt7hNfmnyQJO3n1yeZkbOzshtK0V/p1KmVfpLdWSV/aJtZMEg0Sfj1vvI1zOErJDGPg6kDOURgbrtb18+Odu8MFKyNv2wyWaDsD8GgPL0uq/5Smld1JnJlARqbd8hY/a8mg2IFDj+EwQBakfvtSecB2PnCIYEaZtpjUtndnxs/UFfRzAEkdPXt1wniAqEeFYBqzm6AiFRnvxSGYkTZ2eYkbM3BDV6LptWYuqW/Z6uN7b1tysQtHT+Z6bXuic4giQJCCQeZlQa9jjwpPtkzz1pQDYIEP65zO5jc3LnIQUoA2QL5TAAoGJp54NS13JqmN7S2caIoaZUgkfZIAX6EowaSmIC9TDqfqD3Z0AWBCzdt3qCIYFN1AmGIFL6+pYPmOxKYA+VxNJK4KhOGrz+7szMfYla2lOm75/9ebMyjzUxqCDR/Ys/ITCChqf3mc8wo9JwxwBNEOwMOmkhGwQIl4IfCoI45xhFUBILACZ3nuM5v9ECt0Ka228wralOBg01owwQZYIoIyQAiyCAOlITcOsY4nm/IljPAmOOvJ172BHURJ1gCKJ0cqggyIB7mya9/ubr70duol8TBi+fbDe/ONMWegCk1O+x/+TszE1jpKDI/YsnmCxEQ/JN0A0zEddQ+39lAioTJK9HFNkgQPheHOmwziXaS53TqBTWFkpiAMCkpd0PFhe4xlVZrNbFtzBaqBllgzzzE89qarft1m2Qay+g7jxN1L/NeAS6K7hvyKh7A8EQ1J09CaZAyIPu7ZrcVyAkShP7KtOj+tnl9P1wW7Zsmenq6rJuX7Lvu4p+/enTp8z4+ETmfmxszJw6darkz1BZrt3HWs2L1u+ngMhDS8bLqkMLxEFA5tVPGZWGOQYMmGw2SIf/cxt6L5j1vVx3AWGe16hBehklsZQJMsiIAcCUeGqXBy30aGqelskI0T0QthLZIMPWbaN/RTWAusldGI+TGVKQMkN88pqoEwxBXRVqlK7JfK0EjtJkQblBkPb2drNixQqzbNndpqen23R391T88xQ88Tt+/Lh9ezNzX/CE5vK0XLaIxlElxsgUQdwFlMiiTm389//a7ysIkvZ/TpMD37P2XZT/A8JRQUmsIZPNBiEqCQBTl3af6wSZ8eV5NExHTajnwLYfBWaDsAgCiKYR5zhSoKcPTHlN1AmGoG7sibBXrFvKvT1K/UE0WaBMC5XDKkaZHv39/WbVqlWTCn6UQwGSbJBkk5mYGM8ERA4ePGgOHy7cQ1q/tyY61iwZZ3U1YsvpleM+CWCFUqz3/QVLYilwq74gUe0RBTQCLZbQuQ0lsQCg5te+uSzY3oB+Ia2LOgmEoCaUCaIm6QG04GwjiyCASLrAEJSna64nGJLyf55gCOp5MnjIfUKoSTAFQpTNEAXl1M92AiArVvTX9Hdra2vP/EzdFBg5fPiI2bPnR5mSWn76/V/IBHRupO4+YimgRNYuRiW2+34FQJ4wASWxyGQDwqXs1h8em5Mpq1mEJj92HT167ElGDACqaoP7wb0LL3o+2TJvtmnpbGOUECqVxVIQ5OAbgcd/skGAaBt1P1B2SPcCBiXIsu5sXxVbSgsy3UFegiGoOetFqN4g6hHiCYREpVG6Jgmefa2z6GSBAiCbNn2nZO+PWlBgRL+PbsoWUVAkqIyWsly+//N5mRXXWnnNhCPiQiuYfSfqlMiK334/be/3U/7Pab+vklgEaoFwKJisklilslztfesWMu8AIBRp97Wv+7q35eY203rbHEYIoRo7b8y25wLL6ygbdDXHfyDyPO9R+oYU1h3cN2Q4d9xliFBLdqPc593b1OT7qa9+EIlASKnSEVEKggRRGa3du/+2aFBEf6NW2kdlzIFitJLZ19j3AGnbsdrnp+x9ftr/OUpiAfU/r3FdWG2kJBYAhHo+lOuR6c4KUVms6QRCEDIFQB7Zlc0M8Rm0jv9bGCEAjURlsnwIhqBuJ4EDxhcI0WS8MkLqnaVQatWkggxbtmwJrR9ItTlBEfUUGRzcacbHxz2f1+Tyd3/WFan+LECQF7xZIUKJrPhc9Ksc1kDQ58lQA8JFSSwAiJRH3Q/uXZidkVYgRA3Tm5qnMUIIzcGjxjzzUuA5gLJBhxghIDZG3Q8U5FQ5KOQLyAy53f2AYAhqIsqBEAUGHv/lLYETBu3t7WbTpk1m7dp1sRx3ZbL0968we/bsMXv37s37/O7MRMl06vQjkjSZp5vLsHXCPsLIRHpfr/KHm+2L/ry+ICqFpd5FyggEUH2UxAKASHrQ+UDXXMoMUQCkNdVJIAShKtAoXcf+1VxXAfGi83brevv6eT9lsopSQMRVFrDX/TmCIQid9WZ90mRXCOfoBFATYvWegFcARH00gspHKLvisccej2xJrHKpp8jmzVsyzda3bdualyWiCZMz1jhEITAFuAVkhWxnVCK7ny8aBKEvCBA+SmIBQCTPkRQISTmP7188kblXRogyQ4CwPPOTwEbpCoCspOwwgEanUlkEQ1Cvkz9lgwy4t+kEUIGQeisWCFFfEGWENBIFd1555RWzdevWvF4izliojwgrthEFBbJChhmZyO3jiwZBtD9ROSznwh9AOPtLSmIBQGRt8F4Lf2JaF3USCEGoCgRChqzzgI2MDoAk6FlgzJG3cw89cxXkZCI0UQ6EKBsiKBCislg7duxouECIQ1ki6iWiYI+fJlH+7GddpSZTgJogKyTy+/cOO+vvNyab+ec5uVCW2YbeC+bvv/UegRAgJE5JLJ3PlDh2D1u3uwiEAEDNz5dSxlUiSxmy/93SG01LZxuDg9AQCAGA/L4h1jE57XxMZgjCOvGLdEbIjtc687YrELJ79+7YNEmfCgV7VP7r6aef8mzXxIomVVQyS2VtgHp4/d1ZZIVEd99eNBNEQZA1S8bNQ0s+puweECIt6lAgpIySWOoLcoARA4C68JSKXnWPMS3zZjMqCE2BQMh2FkQASJq2mXmbUs4HBENQdXEojeXX09OTCYQocyIp1Fy9p6fbPPLII54+IppYUUP5v/vGGJOZqAtN8PlP4BmVuu/XCYIAEaDzGJXE8gWMg2i/OUhNcACo27lTyn1N3NVpzP/wb29gYBCaAoEQ9QkbYnQAJM2y7rxNKecDgiGo5gmfJsgUCHnQvf2R5R+aNUs+jsQEQlBprCQGQhzKgtHf7g+InJ1oyWWIMLGJWnpxpCPz+nM5QFZIJC7kCYIAdaRzFzVHV5P0ErS/1MTHKKMGAHXlyQr59gMMCMLz41cJhACAn7JDJi7lHi51PiAYgqqwAyGHrFuve7uyQaJQL16TCM++1kkgJEChgIiCR8oQUUAEqAUFQXy9QrSieQsjU5d9esq+iB8IPKkgCALUDCWxACB251Fp48sKWdXHuCAcB48as+fVvM1bCIQASDo1UT9+Ovcwt7iTYAiqcbIX6UCIaFLf31xUPTOSHghxFAqIqAyHJmCU3QOELaCXzy5WN9fl4l1BkHTQ5wmCALWjY7ACxCVKYn1k7yufZMQAIDJ2uh9sXsOAIBya5HvmpbzNapY+yOgASDotRjDXgyG5OWuCIZgSe/XwKybCgRCV3fFPJKhZ+o4dOwiEuCgg8thjj5mtW7d6tqskxx1zP4/M84nGpNeZ7306yuRezfbjCmirvKGCIKmgr5nfdsXaB3xCEASoAWWAaCGCMkJKUBbIFoLGABCp86on3dfGqlm+4k7GBdV3+vfGbHsub7MCIRsZHQAwpmuu5yGZIajKiZ5O8g65X1CaJFMWQVQmzp1VlX7PPrsjM/kPrxUr+s1jjz1unn76Kc92TcosnnvZ3GHdgGpTeawX89+nnMSHvw9PmWwvkAET0A9EFARZ33uBYChQIwoMa39YRkmsjfRTAoDInVulja9XyA8eZlxQfaqB//RPPLXwZZhACABcN78z7zjda+0nRwiGYConesoI8QRC1F8iKhPmmkgIKLtjtmzZYpYtW8aTWMCqVavM8eNvmoMHD3rGUj1XnvvGGAOEqtuR389nkEm+UPffA9bdBlOgFJYsnf+p2dB7IXMPIHxavPHDY3PySnr6UBILAKJ7ftVhXx/nbHogb1UqUBVPv5TNDHEZsW6rGRkAuC7gGJyZwyYYgsmc6A1Yd8+7t0UtECJaWakV5279/f1m7dp1PIklKDvk9OnT5tSpU7ltmqBRybH1vR8xQKji+zSvjN2oddvOyFR9v50yJbJAtB+/d+HFTCaIMkIAhI+SWADQEOdZTg/N3DmWymN9+wHGBtW3z3qlHXnbs0kX6MoY5UIdaPxjDSrQlb8+XhWOhgmGoNI3n5rBbXZvUwDkqa9+EKnJM02uqtSE503Q1ZXpiYHyqJTY+vUPexqqq+SYJkspl4VqUIAtoIwdJ/LVPVlSL5CiWSDadz+0ZDxTCot+IEDtlFkSSys9t5AtBwCRPt9SICTXJ6RtpnUt9V3GBtWnbJDB/Sbo+mmE0QEanqdXc/cCBqQUMkNQjZM8pf2m3ds1Ka6MkKhNoAWVx1K2Aw3TK9hpdHWZTZs2mZ07d3q2q4yHnnNgKjT59/gvb/FvpjxWdfbX2k8rAPKgKZAFIgpsqim67oEwj8fKeojq+UI9VFASa7u1TxzkVQQAkb5GzguE7H40ew9U9frJ7hMScP10gNEBkofjTPnj5OqvdLv+11Li4J4y2cmUfpOdUEkHfNnwtWvmo2vXrp24evWa841TBb6lotUX9G/08Ztv/orVv/E4ydPJ3Sv+51WriLfedy5yv6/K7vjLY6kPBn1CKqeSYocPHzbHjx/PbdMkjia2aKiMqVAgxPc+HbFO5LcwMlPaTzsBkELH4EwWiAIgX7Pev5TCQi2Ox075J03865bkPjTa56kk1uvvzir1pUMmmw3CeTIARPfcKy8QIpu/xWpdhGPPq/l9Qrh+AhKFMlmT0GMdk4+fzj1M6X8tBQ7saevuCVOkrMa1a7pd0y19LRMDyUzAlOJ8P31vc/fdXxk12RrIh99881dEs6N5kqeSWDv92x9Z/qFZs+TjyP2+Wm2+/6Q3+6O9vT3TNB2To4waf7ksTeZoNTkrfDEZev34+oRowo+Gf5Xvn1P2sfdRUyQAIgpe3rvwElkgqJmgMnjzEhyAU2BI5yclSmINm2w2yDCvIACI9DlYYCDkBw8bs6qP8UH1aSJPvUJ8108bGRkgUTzHHPWmwuS0BBzU1Ri7YGBDARBlgNgBkKlKmWz/ic2uwMiuN9/81ShPTSRO8PLKYmnyW9kgUZ1Qe/nk7LyJhs2bt0SmPJYyLCYmxs2pU6cDP9/T0535XaOUxaJyWcoQ2bPnR7ltGmONNc3UUSmtEvf38zHZOrfs98vbN/fa++UN/pMhP5UlWrNknMAl6uJZX7lKLaBIYjaSskAUAPZnrProYKpMkCFeOQAQi3OxvKoJBEIQpoA+IdvpEwIkzk0MQeW6vZkhaf2vxXVQD1zd4KhyECSITiacwIguBrcTFKnbCd6AyWaDeFKwotgo3S0oK0QT+SqRVS+nT58yBw8ezARBTp06VdG/7enpyQRF9Pt3d/fUdWzVO+Tgwf9kxsbGcts01g8t+ZhJVpRNK8U1KRhwIk9mYOmL7pIlsET7ZwU/1BCdMlioF2VBuPth6Pxhfe+FRI2Bgh/ql+LLgguy3WTrfbO6AACif06mc7Hn3dfJTo8QSmMhLD/OL481TE8xIJFy8/Ucc8rXHtBbxb1MLS8QorrOmlQ58puZZmRsRi1/1wHd7r77K5kLRHqL1OzkTs+/giBp/+e0olOlsaIsKCtEJZ5qTZkfe/fuywseVErBE9327t1rB3X+1Kxbt7ZuWS6bNn3HPP30U9f/TrJDUAFNDH7/5/P879ED1on8k4xO3r7Y6dH1TVOiCbo4ARD1AtGkM1Dv97p/YcK2+84lJnDuHBv9JcICDBuy4gAgTudnOmd9wr2NQAjCNnbemL2H8jZTHgtIppTzQTvN06ekxXVgzwVCnFJIN07/wvzv/+XmUvWNw/REU5N5YvnyfzPS1NSki8UT9sXjKBePVT2x00SbgiAD/s9pkk2vhag3PA3KClFWRS3LTTlBkH379nr6a1TlJGhsLFOmSt9bJavqERRRhop+B7JDMJn3pxqm+44lI5zIe/bDTvmrb5oi/brc+2YCIIgiZX+53+sbei8k5jWqMoD+vz+Azl830hcEAGJ1rZxXPloBEAVC2piQQoiUFTJxybNpO3NhQGKlnA/oF1I+/4IF9UlvsQ/uj7o/8Tdff9+cPjfd/G//+Y/q/kurLNcXX1zrnTbNWLcmrZB9wv7ldTdsX1T+1mQn1kapm1jxid1m+/nPW3msbBCVtYjDRLcmIPyTD+vWravZz1cprMHBnVUPgvjp+ztBEfVCqXUJsKDsENVDV3NmIIheI8oIcZfMMXbD9CSXhbGbn+uiut++T5X6NwRAEHUqCaVjgvs1q4B5Ev5uZYKUKIml/d0usuEAIFbnazpHe8V/rbzqHusieg2BEIRLpbEOvuHZNGrdKI8FJPd4dP06q5MxKVdbgTJZnhIcWsGnQMhfHZ4bqV9e/Upk2rQm9+Z0wAtEdyP2Redh+94JlIzyMsitQFYAZCDo85pk+97yDyOfDeL2ckCvkBUr+kP/ucoG2bp1a6YnSC0pKKKghEpx7dixo2ZZIkHZIS+O3EQwBAVplXRAIGRl0vbHdvBD+95+U0bvD/f+WMGPXmt/TAAEUfdDX08gldds5MxBBXu1j9OCjBKGTLZBOnUlASAe522aH9EizM3+zykIsnYlY4TwFWiazrkEkEye+YOuuQzIVCgY4pkxvnPepUxprCgqEBAJ4pT8SvtOanTnDpTIsP7X6OUK7BO6AZNtwtsb9DWasNDERdwmtrUSUzXK3ZTBEDY1R3/kkUdCzwYpRkGY1atXm927d9esyboybnbu3Jl7rLHXcxCn4BlqQ82DAyYJNyYhg88OOjvBj7QpM/ih/bCyP5bO/yxzTwk6xIXe6+7Ap9N3rlGpSbxKRZYoiaVzyy1kLQNA7M7hnvdfM3d1GvPsd+gPghpd55/O3tznFNb5xBAjAyTWUvcDymSVrys/i6a3xX2Q14Xrf3xjTj17hJSkgMiNrVfNitSl3CRshfyBEnfZLefCVXThesFkUxF1i13AxFWDvmAARDTZtmbJeGx7P/zizI2ex+3t7aa/f0WoP/PIkcPm6aefrmsgxKHfQUGZWpXNymaH7PH87XoOCIbArUgg5EADXjR32PtY7W/77Y87yj6rsd47vXbwg+wPxJGTIeGmfmONSGXA9Lf6F2H46LxxO5MWABC787nNxtckXVbcacxjD1MWC7WjXiE+2xkVINHSzgcE5SsTkEXT4QmGvPXfZuSyL6Js/NMm8686LucutHURrtWIZ6zb+xPN9n1LqQvVUi+wdMAJkvsid9T+2Ama+LfXLHjimohL2bd+U2YDXvUEifvqY3d98szJ6ooVoZaNUn8Qd9+MSLwn7LJZEnZARGOrMdY4eJ+Dxpz4QuWKBEKGGuRC2Ql8LHXte8umgIfKXin7Q4EQsj8Qdy+fnO1ZSKMMU51jNBKdZ6oMWDl9QazbIGUsACBW53c6r3vef06n4Mfmb1nXV32MEWqnQFbIMCMDJFpu7r6HYMiUeaIFcQiEOP7jGx1mcedl09v1WWYiaWlmYunTwItXXaDr4nXiclMmUOIET6Yg5TpRShc5qfJvGjWuYEmBi+gTvm03mcJZHRWtPs6c0NklWFSDvhFW8msS3p/JtGrVn4b281QaK2qBEDf9buqXsmzZslB/jsbYHQzRc6DJb3qHoJECIfaFsbO/rzjjw6F97eK5lwl+oCFp/7/f1bfLKbnZSH9fBX1BttOfDgBida6n8zrV/x3wf04lSH7wMHXZUXuvHs3bRFYIkOxjVdr9+C5KZE1ZLhgSp0CI46+OzDX71o4V/Rqn5EjQxL8yR5wMEt1XMVhSSMqUXkH8YLV/aCPXoH/9XW+ucpiBADUNVzmqqNu2bWvoPUQ0xhprdyP1E2dnEAxJuDgGQgpk1pWzry64v80GPz4vGKQHGskr73jLq6rsZqOcZ1TQF2Q7KzYBIF6sc0CnJJZnoYuyQTY9QJN01MfYeWMOvuHZNMI5BpB4afeDnlsZkKnKBUOuXYtfMOTseIsZOn6TGVh2YVL/XiUcdFta5GuccghOwCRzNDo7I+/zUaK/6Q57FbJKsTRyDXp/iawwMyIUZIhCj5BSsiWznjYvvvhSqD+nv7/f7N271/dcUCoriTRRqECI//1oIhIIsfsnOUEP3S+179NT+b6a8M2WvPosc69bo5UGAor5oKnNDB1t87wn1H+sEc4t6AsCAI3JXmG70wRUX1BvEJXFIhsE9fLqG3mbdjEqQOL15663ZtIzZDKU7ekqP9jfYl/MpWIYC8n4h//aZr71x+GtQnRW9boDJusLfK07MBKUXXLm/PSiqwsL9TkptLJYf7NWH4sm4ZwVyUnhlEDz7CH6+0P5WWoYfurUqdiMjX7XwcGdmabqYVmxwhsMccrRsRI+WfS8f//n84Ky6WoSCHGljKbsm7u0YLpaP0dBjnnWjcAHkNXcMcu89EanZ1vcs0Iq6Qti7d+e5FUAAPFhnTPqPFGZIAP+z3VZh7PNa7LBEKCeDnpLZH3Eogsg8ccuzyLO/qWMSTVkgiHXrl1LxfUP0ETca7+dab7e/Undfxf/JLBKUiE8IwGTFZqgrzb1Cdmz50exGx8FKtRMPaxyWcrCaW9v92TLEAxJFk0cPvtaZ1UDIfaFqnNMcn98u+vjSfXuKIcT9FCPj3ltX9i9PnhNA27TZrWa87M7PWUc9N5Z3xvPnuEV9gXZQnN0AIgPeyLJKYmVxymJ1TaTsUJ9HXnbmLFzeecdAJIt7X5Av5DqUDBk5Nq16q2erYd/+K/tkQiGoLZOuMqVSVglsnbu3BnbMdLvvnv334b2/TXmhw8fzj1WCbn1vDQT8v67wTz+y1v82VmaINwSFAhxZXA4gQx3cCNlJtmjYzKc8lbZUolfJDKzDpispuZpZsbiW8y+f/JmZq7vvRC7v0X7r5dPzi63L8hGmqMDQLwU6guSuY6hQToi5iAlsgDk+6b/2IWpUzDkRFxLZDnOnJueKS9FyZJk8a9GX7bs7qr/jOPHj2duceX8/mEFivzBkCj20EH17T85O7OK2keBkJVHjx4bsQMfuimJ02lOXjNOdodTSvDGzP3lXBAEwORkAiFfnmc++aLFc8Gu99b9iydi9bcoC+TFkZvK6QuykcalABAv1rnogMkGQfLOQVUS6wf/MxNKiJaJS9nMEJcRFmEAsDzofKBeIQTwq0NXgA1xgTcyNsN8vZtgSGJOFi5Py5vACGPCf9++vbEfK5X4Cis7JGjMFaRiwrlx33dFSskoGPK83aw8FE7mhrtf0rxMdscVz+cBhKN1UWemRNa+V7MX7Q71CokLBe1fGLmpVPBekw80RweAmLHOQzVppLT+lP9zKoPllMQCoubw23mbyAoBOKbpmJbLbFzVx5hUS4uizV/5yldGTY1X7lbb2fEWns0ECehRYHp6qru8Z2xszJP1EFfKDNHf0tXVVfXvHdSP5AzBkIZ9zxXoD+Ko+BgSFNxwsjj8XwOgvhQIUdN0BUH2Hrq+Xe/fh5Z8HP3zxImWTDD39XdnFfuyj+zJh0H6ggBAfNhZycoESQd9nr4giLojJ/I2HWBUgMTzlMhaQfP0qslEEK5dy6yAS8X5D3lrbIYZ4PlMDP+KTjXybmtrr+4JyZHDDTNeynDZvHlLKN9b2SHuUmLvnJ/OC7TBFCiLVZJTlqp3/me5DA53JgeAmJwszpttWjqzGWFauejPCtF7PaqU0aZyWNqPlTBkaI4OALFSKgiy6h5jvv0AZUUQfcdPex4Ocz4CJP74powQSmSFdX1r3x8udAIBRNHE5SbP4+7u6hd9PXjwYOOcXIXY98SfcXKmcOYAYkZZID88Nicv+KiJT3+zYSfwoayOO+Z+bt+TIQTE/kTx5jbTetv1YOiPX/V+PqpZIRU0R9fKyy3U5QaA+CAIgkaiQIh7oYnlp4wKkHiUyArzGte+5wIQseKfcO/p6anq91dZqVOnTjXMeOlvCatUVlfXlzyP35+gZF3cOZOIqqvvpwDHU1/9gOwOIAFUFqs11em5WB87d/3zapoexayQMpujD5tsX5BhnmkAiIdijdFFTdEVBKE5OuLkrdOB5ygAkm2D+4GC/KieFna2iKO8VelVLpF1+vSphhszZYesWrWq6t/X30T9LMGQWFM9/R2vdQaupN7Qe8Gs7yVjG0gCNUpXnxC3fYe8XxO1xunKYtP+q8RxaNRkM0GoxQ0AMUEQBI3MVyLrI+scZYRRARJ9zNOxLu08XnEnPa+qLXO1+Oabvxq9++74N1FHcryTlxlS3TPfU6dON9yYZQM8q2ryszSRHuUa8gimCcTHf3lL3nZlg2y77xxlr4CEUCBkxpfnmabm60HRsfPGHHnbu1+Iyj5BQRBlsvlL+vnoPFeZIEM8wwAQfXa99M0muzo2FfQ1BEHQCPz9QhgRIPGecD8gK6T63EvnXvAPeJzc1fUZz2aCVTsz5PjxNxtujMIq+xUUiFKwaun8T3lhxv191XrVrO+9YNZEtCcAgOpTAGTG4ls8gRA5csL7dVHIClEAd/exOZmMtiKUzrbr6NFjT/LsAkD02StiB6zbo8ZVL91NE0Nr09mGskCcnf593qbDjAqQ6GOgp3F6V2c2MwTV5Q6GDJkYB0MWd7JiGShmYmIilO9b7UAU6kd9QB5Z/qF5/d2ZuY/J8AGSIxMIUUZIa36ZqX3Drv2+tV9Qv5B6URBEPUHUG6SITBDEug0ePXqM+n4AEHF9fct7TTYAMlDoa2iMjkZz6r28TZTIApJNGZG5hQAK/KP6cle7dqmsoWInH1HWS2ZIYvhLZEl7e1tVf4b6azTcidapU7x4UJKyQMgEAZLHCYSoRJafVi26G6ffu/BiXX5HlWB8+eTsTEmsErYbgiAAEAt9fcu1AlZBkHTQ51UnvX8pQRA0Jn9miHXuMsyoAIk9HnbYx8Pc8Y8SWeHwL/3bYrLpOB1x+iPuu/0Sq5cTJKixc3d3DwMTIVq1u5RhAIDYUGmsoECI7PNdlte6RJYTBNl/sj3wHMBlyGT7gozyjAJAdNkTPgMmO+mTCvoaTQKtW2nM2pU0jkXj8gVDyAoBks2TFbKO419oPMGQN9/81Ud33/0VrabbGac/4n/843GeSaCOli1b5smmeX+ihUEBgJhoXdRpprUXbj5+2NUvRCX0atU4nSAIADQWux+ISnMXXICp+ujKAlnVx3ih8Y2d9zwkoxVI7vExLytEiwFQHcdPex6O5M1Yvvnmrwbvvvsr/cbVsCXKVB6LElkAAACVUyCkpbNwqckjbxszcen64/sXf1KT32v/ydmZviAEQQAg/vr6lg9YdxtMgVJYsqw7GwTRPZAU7jKkhubpQJKRFVI7Fwot395o3dTALBX1v+DP7/mQpxFV197ebsbHyTgCADSuUoEQUTDE7WshN05XU3QFQc4WzzAcMgRBACDS7CyQAZMNgqQKfR1N0ZFUvqwQAMk+XpIVUkOBV5oql7V8+b/Z/sUX156P8i+/cdnHZnHn5zyLMGNjY6arq6tq36+7u7vhmqirlFVYJiYmeBECQIyUEwgRd0qxSmTpFgaCIADQGPr6lqdNdlKnYKUJlcJSGSz6gSDJfFkhMsyoAImkuXeyQmqo4BXnsWP/PLR8+fInrl69mrp2LXq/+Nd7PjEDyy7wDCbQ0vmf5p9IVDkYgsqcOnWq5HMEAIjIyd/NbWUFQtTU032hfu/Ci1X/XQiCAED8ldMQXVQCSwGQFXcyZgAAWMdPlcdKO4+7F2SzJVE9uqb1GS165dnUZDY2N0879MUXV02UAiLKBvnze+gthfAsW3Z3A2aG3M0TCwAJp0BIa6qzrK/1NZqrWr8Q9QF5/d1ZBEEAIOb6+pYr++ObJhsICaTVrf1LKYUF5J0PXWIMgIQfQ9WeYqd72+Y1jEu1jefva4sHQ6yLz2HryRlubp6Wvnr1mtGt3pQRokBIW+tVnlGEpqenm78JANBQKgmEiLtfiM677ph7eWoX/ZenmZdPzjb7T7bTGB0AYqrcXiBa3aoskP47KfcBBAlYrTzCqACJOZYqo/IV97ZND2QzKFGD6+Iyvma7dUtPm9ZkmpqazNWr9csSUY8QSmNBVLPcvZpUWRzV7IkRZn+Negnrb1KJMj+ClQAQsRO+CgMhmWOrKzNkKuUPywyCKOV3l3UbIggCANHT17d8wGSzQAr2AnGyQNams8EQAOWzzn8ofwIk43iqQMgh41pQQHms8Lx1Om/TaMlgiJ0dMmR9ONDUZExz8zTzR7M+Nx9/2lRqVV/V9HZ9Zv78ng9plo6ceb5gSLW1tbWbnp6evF4YcaW/RX9TGIKCIVNdPQwAqJ6pBkLk3oWV13LQcfrlk+2ZviBlBEEGmQQAgGixS3goA2TAuJq7+pEFAgBA2ZQR0us80HFz96MMSq1o4V25s8nKDnnQOQG6eKXZ7PrT983If5th/uFf2szZ8XAmpee3X8lkg3y9+xOeLXhfG21XzAnX4+PH37T+v6mqP2PVqlUNEwzR3xKWoGAIACAaJhMIEf8KmsUVBLkVBFE/EAVBihg12VJYQzxLABAdrmboCoL0Fvo6skAAAKj4GPu8cTVMdwIhLCQIz9j5gGvkcv6hoibWE6ZVe0/osVb36SL3qa9+YL71x+Pmtd/ONP+PdXttdOaUs0VUXue+1CXz77o/yWSEAEHmt33hfXGHMCGvAMLOnTsbYrxWrOgPb8fiG/uplFIBAFTPZAMhcur33nOzcjL+1BRdpbBOnL2h2JcNW7dd1rnlAZ4hAIiOcspgieqZP3APWSAAAFRwjHV6hKTd2x97mAUFYRs7l3ctaspO6bAuWp+0nrxckzRd8Op278KL5r7bL2VuZoUxZ85NNyNjN5i3xmZkVgbqcTHK/tDE9l1dn5nerk8JgKAs/kmZMIIhKiulgMjBgwdjPVb6G7q6ukL7/qdPe7Nn6BcCAPU3lUBIZt/+XuFjrpsWwSgDROWwSpSvHDLZIAjNQQEgIqzr+7TJZoDkqkAE6bIOJyvuzJbC6prLuAHVML8z//2oMvWMDNBwx1qnR4gn2/IHD2ePrQjXpDNDXDbaT2DG7mNzMqvA3ZOf6uuhmzJG3BQUcWeNEPTAVARNzFS7ibps2vSd2AdD1q1bF+r395cSWzyX3j4AUE9TDYRMXPKuoOmdn3/O5pTC0sKYIlnBo9btBUM/EACIjL6+5SnrTtXJFQBJFfvaVfdkJ2qYrAGqj8AikIhjrgIgr/iPtwqErOpjfGrBlxlyOHO9XMk3sJupH7BPnHIXwo8s/7Dkv6X5OapJPUMUhHNPwChDodrBEGVUxDk7RL97d3dPaN9/YmI8LyuH5ukAUD9TDYSIu0SWf7+uElgqhaUgSBHD1u0F+oEAQDTYARBdwxftAyI0QwcAoCrH3gHrTrX3c5mXOq5u/haBkFoJygrJXDNP4nspOyTtPJn7T8429y/+hAlQ1Jxec+665MoMWbu2+lkQyg45cuSIGR8fj9X4tLe3Z373MGnMg54XAEDtVSMQIqd9wRAtQFAprF+cubFYPxBlfmjBjJqij/JsAEB92WU5FAAp2QdEZbA0MaNeIKxWB2p0vZ4fbFSgcpiRARri+KsgyIB7u9MsnR4htePLCjGm0p4hDpU5sJ7Y7fYTm/Hsa53muW+MMcqoKZXt8AdDwqDskE2bNsWumbp+5zB7hQSNuSbMdAMA1Fa1AiGiMlluj//ylmL9QEat2y7rNkQpLACor0oCIJqU6V9qzNo0EzNAPQS87zoYFSD2x+HAslh6vz/7XRYc1NpbpwOvXSeVGaKAyKD1BOsEK63H75xvNS+OdJj1vVwDo3bUr8aYm3KPlbmhUllhlIVSxsnhw4dDC7hUm8qFhZEl4+cfj+xzAgCopWoGQsRfJqtAIGTYUAoLACLBujZ3B0CKTqjSBwSIDmVluVYu9zMiQGyPwzr2brZuTwQddzevofRkPfjLZDkVDFqm8D23WLe3nAcvjNxkvrZ4glXhqJmgiffDh4+E1iNjx44d5uGHH87rkRG5E6qurszvGjb1C/E3T18a0GQXABCeagdCMvv3S0U/rVJYu9RHjtEHgPqpJACSCX4spQ8IELlr97meYEiKEQFieTxOW3fP+9/D9AepP1+ZrNz167TJfkPrInjEutvu3rbjtU5GGjV178KLnsdHjhwO7We1tbVnggzqxRFV+t30O+p3DZsCT35khgBA7YQRCCliyLotss7/VhMIAYD6UADEuj1v3T402TIcA6ZAIEQlOX7wsDH/5f/IlubQZAyBECBalnV7Hqbs1eUA4nFM1nv2kPWhbin/MfjF/0AgpN6Oe8tkjeauo6fyTa2L4SftclmqiZbp36CG6muWfMyIoybuXXjJvP7urNxjZSoocyOsXhnKOtm9e7d55JFHItdQXYEQ/W5hZcb4+QNPapxOZhgA1Ebrok7T0tkWyvf2pRNr8ctqmqIDQH1UkgGiyRdNvCgLhLrkQPTNz1/TkjbZLFwA0T0uBzZIFy062PSAMWtXMk71dvr3eZtOOB+0VOH7bzSuclm7j80xvfM/zUyMAmHLZoZ4zyAOHjyYaR4eligGRGodCFGJLPVQceslKwQAaiLMQIj40ol/SiAEAGqLAAiQDL7MEFHfEIIhQDSPzU5fkEeDjs16Pysjk2NxNJx6L2/TiPPBlIMhKpdlvSBULivXJObZ1zrNc98YY+QRurbWq5mAiDs75ODB/xRqMCRz0dHdY1588SWzbdvWvL4ZtdbT02OefXZHaNkwQYJKZN2/+BNekAAQsrADIQCA2rMnWNwBkOLXIgRAgIag96+viXqaUQEieYwuGATRe1gN0tWfC9ERkBlSvWCI+MtlvXO+1bw40mHW937E6CN0/lJZKpOlEk4rVvSHe+LS1ZUJiAwO7jR79+6ty9++bt26TOCnFj1C3Pbt8/69ygQjGwwAwkUgBAAaBwEQAKLV5AevB0N61YeArFwgEsfplMku/B8I+jwlsaLN1y9kxNqv5oIULVX8OZ5yWS+M3JRZsc8EKcKm11lb6xwzcXlabptKZYUdDHFs3rwl87MUFKlVlogCMY899rhZtmxZ7Xcox4/n/Z1khQBAeJqap5kZX55nps1qrcePv51nAACqw55YUeBjg7EXEhZDAARofFpNfvANzybtIwYZGaBux2q9B5UFkg76vIIg61ZmgyD6GNHkywwZcT+oWjAkqFzW47+8xfzdN8YypYyAsDilsn5x5vpqWfWzCLORup+CEsoSURBmz54fZX52GPT3bNr0HbNq1aq6jbfKkPndv3iCFyIAhKAegRBNvrlOHlM8CwAwedY1soIeCn6kDQEQAD4KhmhCdeJSbpP2FwRDgNoeq3XNM2C//wKvfwiCxIcvK0Q8TY+rmRmSVy7r7ERLpqH61vvO8UwgVOt7L3iCIaKghLInaklBCt0UFFGpLn+T8cnq7+/PZJ/UMwgiCvLob3NTIISAJwBUX9OMFjPjjltqnhHSzsk9AEyJvapUaeq6T5X6ek2GKvjRfycTLEAS9S/1ZIeoVFb66NFjw4wMEPrxesCUKFepniBr08asuodjdFwceTtvk2d/2hLCz1xtsuWyMk1lNEGtng5auQ+EZX7blYBG6gczWRS1bCzucIIiExPjmWbjx4+/mSkvVW7GiH5nZZssW3a36e9fUfOeIIUowOS3Zsk4L0AAqDIFQJQRosyQOuvl2QCA4nz9P9ImoMGqmyZT1CeAAAgAeaAvr1SWVqcPMzJAKMdsd7+ugsdrHacfuCebrYl48WWGjPr7MDWF9MIasO6ez53stV7NlMvShDUQlhNnbzDf//k8zzYFJGqdHVLyTXn8eOZegREnOKLghxO0qUcfkHLod1292hssXzr/U/M3X3+fFx8AVFG9AyE/ftWYPa9ef2ydPDbxrABA3jWvgsVpcz0AUpRWlmYCIHdmbwDg9tAT1jW3t6jKIhqpA1U7ZpcVANHiBGVqKRNEZSsRPyo5+Cd/4dk0ZO1LN7o3hJEZoovmIbtcVmbmVI2td7zWyaQpQqWJed0UFHEoO2TdunWmu7snMr9nVIMdpQRlhWzovcALDwCqqOXmNtOa6qzr7zC/M+/igVINAGAqL3+liRQFQLSqlEkVAMV8+wFjnnnJs0n9eDcyMsCkjtdOxqZzzC6aselkgZCtGX+H80tk5fUvaAnx52un3eucJGqC+sWRDrO+9yOeGYRGk/Pf//kNnm07d+40u3f/LYMzBcpm8fcKcYJPAIDqaJk327TeNqfuv0fPrXmb0oZSDQASyG6oqn1gWeWvJJf9QQN0ABVQ0FTZua7skAFrH/QCC1KAso/ZFWVsapGC3nccrxvLW/nN0w/kXXeH9cOtHfZH1gtRAZFDzrYXRm5iAhWh0mtLDb3dzdSdifx6Nx+Ps8HBnXnbyAoBgOppXdRpWjrbIvG76MJAK6KUYmzr5xkCkBTKhjPXJ1JK9k1ySmrc1c2KUgBTE5AdogvxuxgZIPB4nbKP1WVlf4hKVmrBAhmbjevwCc/DYcUn/F/TVIMX55Mmm96XPVlsvWr+/lvvZe6BMJydaDH/0z96l7W2t7ebV155JTKNyONk3769mewaNwWctt53jsEBgClSXxAFQpo7ZkXq99r2nDFHvCnGc4JOJAEg7iaT/eGUv9KEiu4BoFq+tyuv+e926xzsSUYGHK8zmR+69dvH61Q5/44MkOTQ9auuY122WPvPwbxr8Bq9YA8ZV4oSTZcRNpVkUyaSW39/v3n22R0MTgXUNH39+ofN+Ph4bpsCmX/3jTEzv+0KAwQAU6BAiBqlq2F61Bw8mrcycaN6wvGsAWgElWZ/iBP4YDIFQJhO/96Y9X+dt/ku6zxshNFBgo7THfbxWcfppabMxQpCxmZyPfMT6zr2Dc+mRda+czTvOryGL+LfuF+4KrFD/xCESdkhyhJxe+yxxymXVQEFQk6dOuXZ9sjyD82aJR8zOAAwBQqAKBCigEgUqUTWn/yFZ9OIdSJJmQYAseSqI+6U0ijJKaXhZIAAQK2od8ieVz2bNHm2iCxdNPBxWsdoHauX2ve9lfx7Haud4zXlr5JJ16+rH/eUei54/dpU4xf2Ifc2ZYfQPwRhOXH2BvP9n8/zbFO5rN27d5vu7h4GqIQ9e/ZYtx95tpHVBQBTp5JYKo0V1UCII2BlzUqaeAKIA3sxnoIeFZXSIPsDQFQoO0RZIi4j9rkYARHE+fis47ET7HACH6lKv48T/Lirm3KVyAqobBBYIkuaavyif9L4+odQbgdhCiqX1dPTkwmI0D+ksCNHDputW7d6tvF+BYCpa5k327TeNicWv6vqVatutYsa0K3kWQQQRda1pjv4UdaKUrI/AERVwCpnISCCuByTnSCH7m+3P05P5nupzJWO0z0LCH6gsIB+SwV7XjbV4Q3h6R9yx9zL5rlvjPGsITTf/VmXeee8tx47/UMKO336lHnkkUc8fUKE8lgAMHnKApm+cI5p6WyL+0klvUMARIJdeUC3flPmBIszoaLMD92T/QEg0tfmv7euw3cFBkQ20kMEETgOK9Dh9PbosI/HKTOJTA83HZ9V6sq551iNUsbOG/PQ455NB6x95OqC1+Z1eLPk9Q+5f/GE2XrfOZ49hEJ9Q/7sZ11m4rK3HIl6h6iHCK6bmBjPBEL8fULuXXjRPPXVDxggAJiEKDdKL+ci3NfEU6tr7gpqRAcAIV9Hpk2FwQ+hjjiAOCsQENH5mAIiBxghhHjcdYIcKft2u+vj1FS/vxYo9PiCHhynMRmD+43Z52nMYVYX2z821fEN9ZZ7m4IhCooAYQjqHyJbtmwxa9euY4BM4UCIsrfUJ0RlsgAAlYl6o/RJnlzSTB1ALa4Z02YSwQ9nNalz02QLAMRZgYCIaLJvI2WzUOHx1cnmMOZ6VsdNrm3pav/MTDZmZzbgcZdd8orjM6rlT/7Cs38ctfaJi4p9fVMd33ybrbud7m0ql6WJVyAM+0/ONruP5ddpV3aIskSSrFAgRAEQBUJ4XwJA5VpubjOtqc74HyMuZbNDxrxJvEPWSeZGnmUAVbo21ERM2mQnYioKfmhyxWmi2n8nkysAGpMCItt+lHc+JgqEqMvbIEGRRB9D3b2y3MdQNSnvCNhedU6ww1mIoMUJBD0QtoDG6doXbin2b5rq/IZ93robcB5r4vXvv/UeK9ARmh2vdZpfnMmv157kgEihQIgQoASAysW1P0ipC3BfuSwhIAJgsteBmrRxAh/Ox2VxBz/o+wEgUdful4x5+iVjjrxd8EuGrNtPKZ8Vy2Nih29z2vd4qe9rgv5N6Jzm5e6AhxMEAeohoMflolIlnesdDNEb95D75JeG6ghboYDIunXrzObNW5J1MlUkEELpOgCoXNOMFjPjjlti2R+klIBVN85F9xZWIgIocc2XNpPI+hCCHwDgpWCIgiIBZbMcOi9Tg/XD9n3mPM06XxsOyCKoG/0+dToupafwz8v5t/0Ftkdm7IMosNE+83pwwwl2tM+klweiqdLG6blr9gicHKdMtn8IDdVRM4UCIklqqj42Nma2bdtKIAQAqqS5Y5ZpXdQZ6/4gpRQIiOgiezVN1QHY13dp4836SFXy7wl+AEBpCoSop9veQ0WDIkg4d9aG++Nuu3wVgQ7E2TM/sa5P3/BsWl1OZlxTFH55+4TZ05qTyViErVBApKenx+zevdu0tbU37N9++vSpTEbI+Ph43ud47wFA5Vpvm2Na5s1OxN9aICCiFYfbrZPPQV4NQHK4yl2pfEfaTGLFq7vheabcBsEPACibAiGaDNT5mcqaojEpcNHjClr4S1N1u3pzULYKSdn3rX68ssbpjqao/BFBDdXVuHnp/E95hhGaQgGR9vZ28+yzO8yyZcsa7m/et2+v2blzZ+DnCIQAQGUauSxWMQUCIjJsskGRYV4dQGNxlVZJm+tZHxXVK9cETfet1wMfTu1xAMDUKRii2vnOjYyR+nBKSwUJOu7NDwheENAAilNm3OB+zyZdgz5Z1jV8xE6w8xqqKyBCA2eEafexOWb/yeDVvJs2fce6bWqIv1P9QZ5++mlz+PDhvM/pvaZAyL0LL/KCAIAyJaEsVqkL7m0/MmYsuLLpsCEoAsTaVJqcO9wZH2R9AECN5wAuGXPKzhZRbf2z9jnbXd3R+N3qlcnizqKoFEEKIBoeeiLvOnROuX0sm6L2x1gn3W8ZX0N1BUQ0WQuERdkhyhIJorJZaqwe5yyRI0cOZwIhQWWx5rddMU999QOCjgBQJgU/pi+cY1o627jIti5k97yaXZlThNO4U7cT9rZh+36UXiNAJK7Bppz1ockllfDQJFvPrdQgBwAAQPUdeduYbc95Ng1Z15Qby76ej+iJuAIiKWebJmmf+8YYzzZC9c75VvP4L28xZydaAj+v5upbtmyJVS8RNUl/+umnzPHjxwM/rzJ0CoQQbASA8qgc1ozFt5im1hYGw0WlGJSmPMUVfsP2/ah1+61v20fWCe4IIw1U7ZpL11ppM8leH1pRq4wPJ/hBuSsAAADUwvd2Za8/Xe6q5FqxKYp/lJ2SrTWGudVI6mOgMj5AmCYuT8tkiLz+7qzAz6uXyNq168y6dWsjHRRREGTPnh+ZgwcPFvyaDb0XzPrej3jSAaBM07/UYd1uYiCKUC8RZYmEXPZg1L6JTnovuD52Dmwj5aZJR+C8N2WuLwJyVue73e76vJ8728Z5nLkQoEQZAq6v0uZ68CNVyb93+ns495QIAQAAQK0pCKJgiMuwdd2zspLv0RTVP846YX/QunvFvY3JW9SKymapl4iCI0GiGhQpJwiiTKtt952jLBYAlEnZIK2pzsQ1SZ/qSepbp69/LKpZXadGnqPmevBE3M2zcsEDl6oEUuzJ5w7jDXAsDdgWJufv0+2E/beRYZMA1usvba73+0ibCkpekfUBAACAKHrmJ8YcfMOzabV1fXOgku/RFOU/0DqJH7DunndvU3aIskSAsJXKEhEFRVasWGHWrVtnurt76va7qieIAiBBzdHdCCgCQGXIBqk+NfB0mt05ARP3Nl/Kc5S4M0+CpEyFq+3rRH/DsMkGhQ7Qs6Ux2MEP3ZzgR9ncvT7I+gAAAEBUryMfetyzSf0nF1X6fZqi/odaJ/YKhgy4t6mhunodALVw4uwN5ofH5mR6ihTT1dWVCYqo0XotAiPqA6IgiAIgyggpRu8XBRLVLB0AUBrZIPWnLJJTdrmt066sEnewJMKBk6rRKv2eAo2oq/T3K8jzgiEwEitTCX4s6/aWvNJrDAAAAIiygKyQjdb1y1Cl36cpDn+sPyCiZs8KiFDmB7Wk0lkvjtxUsMG6mwIjCoosW3a36enprkpw5PTpU5kAiHMbHx8v+W8UBFE2CMFDACjzxKh5mmmZN5tskJhxB07kLVeQwF2ea/xS6P1MinIHNjQR3W5PQt/lKkM0lZJEx12ZNmfPZf92fVzB36wU8xcqTTVHTa6HnJ4fCn48WMlrjpJXAAAAiLNqZYVkrvljcvKvGrdqqJ6rrayAyN99Y4yV7qg5BUX2n2wvmSnip+CIymo5gRE9DjIxMW5OncrOZigAoqyPU6dOVfSzCIIAQOWaO2aZ1oVzTFNrC4ORoJNqpzyX460C2RblZGG4J5rnd14vN6SJ6Hqvvnf6uChAcuTtkl8+at22T2alFap2/ZMy2aBHRT0/nOCHO/sDAAAAiLMfv2rMnlc9m3St8uRkvldTXP7ooICIMkOUIaLACFBrKp/1izM3ZoIjUaD3gfrpPLRknCAhAFRyMjSjxbTeNicTDAGSQgER3Q6fKNrYftQQFKnltU7aun3Tvk+Vdf5H8AMAAAANTNcqqx/3XLOoB+Ii6xplUk2Rm+L0x9vp4QqI5FZGERBB3d+Ul6dlmqy//u7Mos3Ww6DX/b0LL1q3S5l7AEAFJ0GUxAIyFBRR/d0iGSPD1m2LdcExwmhV/dpG2R8KgPSWde5H8AMAAAAJUs2skMw8QEwvGjwBEZUCUkAEqDcFRpQxcuLsDDNi3VdaSqscer33zv8sc08ZLACYnJab28z02+ZkAiIAslQ2TBcbvsaEboP2xcdHjNakrmN0/eKUvnrQlFn6ygl8rLiT4AcAAACSo9pZIdIUx4GwLiTSJhsQyVF5oK33neNVgshRcERN19+3bmfOT88ETHQrFihxghzK/Fg89/NMBpRKX+keADB5ze03mNZFnfQFAYooERRRdshGskTKvm5xGp9vMGVmfyjg4QQ/aHgOAACApKp2Vog0xXUwrAuLAevuefc2AiIAACCIgiAqhzXNugdQntO/N2Zwf2DzeK3E2kIvkYLXKe7sj1Spr1fpq/6lxtzVbd3fmX0MAAAAJFkYWSHSFOdBISACAACKnujQHB2Ysn2HsiuyAhqtD1kXIxuTPj6+5udllb9S9ocCH5S+AgAAAPI985O8TPUpZ4Vk5gga4OJjs3W3071tQ+8Fs76XUsYAACSVgiDKBGnpbGMwgCpQ6axtz2WzRXwOmGzZrESdfLv6fzgBkKLI/gAAAADKv/Z46HHPpqpkhWTmChrkYkTZIQPubcoOUZYIAABIDoIgQLgCVmiJ+oesbPSASKUBkK7ObObHqj6yPwAAAIApXHNUJSskM2fQQBcnBEQAAEgogiBA7ahslnqJ+DRsQMQuzVtWAMRpfL5iqTFdc3mtAAAAAJVQJvr6v/ZsGrVud1XrOqOlUQZK9YqtCxV9OOBs2/FaZ+aegAgAAI2JIAhQe2tXGtM2y5hnXvJs7rVuh3Sh0gh/o90EvaweIE7wg/JXAAAAwNQELLraXs0FV02NNmBkiAAA0PgIggD1d/BoXkBEYttU3bqOUEBng30tQQAEAAAAqKHjp4353i7PplHr2mJRNX9GUyMOHAERAAAa07RZraZlXjtBECAiCgREqlbTtwbXDR32dYOCIL3FvpYACAAAABCeh54wZuycZ5PK8A5X82c0NergERABAKBxNLffkMkEmWbdA4iWAgGR1daFy4EIXys4ZbAGin2deoA8cA8BEAAAACBMP37VmD2vejYNW9cTK6v9c5oaeRAJiAAAEG8tN7eZls4bCYIAEafavmqs7qK6vmp0OBqhawMnC+RR65Yq9HVdncasTdMEHQAAAKiFiUvGrH48e++yKIxriZZGHkiaqgMAED9NzdNM85xZmUyQptYWBgSIgc1rsintR97ObVLg4RUTgYbq1vVA2lzvBRJIWR/9S7NBkO4FPJ8AAABArWhhlS8QMhjWoqqmJAwoGSIAAESfgiAt82ZneoLoYwDxoguY9X+dV+e3bv1DrGsAnf8rCJIu9DVOGaxVfTx/AAAAQK0FNE1XhrmyQj4K4+c1JWVggwIiCoYoKAIAAOqnaUZLJguEpuhAQ17MGBNSinuBc/6SpbCUBbLqHmPWrqQMFgAAAFBPAU3TN1rXDkNh/bzmpAzse++999MFC27VBVGvs+2d863m/YkWc+/CS7zyAACoseaOWWbG7XNN621zzbRZrQwI0ADUb0OrrRQUcem1zsVfCPPnKghinev/pfXh/2Xd1By9I+h32/wtY7atM2bFnca00xAdAAAAqBs1TXeV2RU1Td8S5s9sStogkyECAED90A8ESIZarfCyM0E2m2wmSEfQ1yjwoSwQlcQCAAAAUH9j561rhsfzNt9lXTOMhPlzm5I42EEBkXsXXswERNpar/JqBACg2iccKoX1R+2m+eY2+oEACRBQLmvUvripSu3fcoIgKoX17QcohQUAAABEja4VfNnkNek12JzEwbZLZl2wPvy6s+13F6abf35vplm56KJpbb7GKxIAgGqcaLhLYbXNME3TmhgUIAFUkurseWNO/z63SQGLz6zz8OGpfm+7Mfr/bZ/L3+D+nPqBrP+aMT94ONsUnVJYAAAAQLTsO2TMK695No0ePXpsdS1+dqJnJOwLqefd2+6Ye9k89dUPzPy2K7wyAQCYzMmFSmHd3Gamz2unFBaQYEp9X/9Xxkxcb8+nrJBFk80Osc7d0/a5e8r/OQVB1q3MlsNqIwACAAAAxOUaQVZa1wjDtfj5zUke/Pfee29kwYJbf2uyTRYzPrzUbP7zmTaz/NZPzdyZX/AKBQCg3JOK9hvM9FtvMjP+1S2m+aaZlMMCEk5ZGZ9f8aS/K4uj4uyQvr7lKeucXUGQvzYBJbEUANnxXWPuWWJM63TGHQAAAIgqlcdSBrnL4NGjx/6uVj8/8bMUdiPHu0x2pVrGxOVp5vs/n2def3cWr1AAAIpQwKPl5jYz885bzYwvzzMtnW0MCoCcgEyNDZX8+76+5eoL8pZxLV5yqCfIy08Zs3kN2SAAAABA1P34VU8ZXRm1bttr+Ts08zRkMkTOLlhw6y+sD9cZu+7w5S+azKHf3Gjmt31hFs+9zCABAOAybVarmb6gw7Te3mla5t5IFgiAQMrUOD9uzL+M5jZ1WOfdJ6zz7/+v2L+zs0FesT78X4yvL8iy7mxPEAVa6AkCAAAARJ+CII89n7dZ5bFGa/l7EAyx2QERpeSoEeN8Z7uyQ96faDH3LrzEIAEAEi2TBdJ5o2lNdZrpX+rIBERoiA6glNvnZ5skutxgnXvvK/T1fX3LlQWiBun/2r1d2R9b/302E0QN2gEAAABEn/qDfO//zOsTsv3o0WN7a/27EAxxsS7KPl2w4NZ99oVX7uLrnfOt5sTZGzIBkdbmawwUACBRPL1AOmaZpumcPgAon7I33jqdbZZo+9fWOfcunXv7v7avb/lO627Q+LJBVBJr8HvG/HGK8QQAAADiRBkhrkxxGTl69Ni/r8fvwmyGjy7KtFLNukDTpVavs13ZIf/83kyz5JbLNFYHADS8phktmV4gM+642bTMm53JAgGAye9UjDnytmfLUXeprL6+5Sqf9f8aX28QZYA8+91sSSyaowMAAADxogzxfcOeTerbvdK6FvioHr8PBb4LOHr02EbrbqN7mzJEaKwOAGhkyvyYsfgWM/O/v9W03jbHNLW2MCgApkx9Pnxyi476+pbr47fc22TFnca8+JeB/xYAAABAxKlPyOD+vM0ba90nxI3MkCLee++9kQULbj1ssivUPI3Vm6z/ls7/lEECAMRephn6/Nmm9Y5bMtkg025g+TWA6lKprFePeusEW+faL9iBEHUUme/+evUF2fwtskEAAACAONJ5//q/NubyFc/mwaNHj+2q5+9FMKQE6yJt1O4jknZfpKmHCH1EAABxldcMvW0GzdABhEplslx9Q3SOfcJkAyEdzkY1Sd/zvxqzYinjBQAAAMTVlt3G/PZ9zyb1CVld79+LMlllsFN3Vlq3A+7tCob82c+6MuWzAACIg1wZrLtuywRC6AUCoE5SxhcI6V5gzIv/IXsPAAAAIJ6e+Ykxx097Nqk/yOoo/G5khpTJ1Vj9gvXw6872icvTzD/9ut38/+zdT2wc5RnH8cd/YsfBbhwHhC0s2IoEtTkQB6lepCKyqdQizAEKh/bQNImIeqCHkEptOQSRkF4QlWIORSoqIvw5NBJtwiFRKw7ZcMqmEnG4VEpAbCSsBKEEh5iSpFA6z8y8znj23fWsd3Z3Zvb7QaPZHa839tho5/Vvn+cZ7PtWNtx2nRMFAEgc2mABSAJtkxWoDNEQZKW5owHIy7tE1n6H8wQAAACk1VHnmv/VYxWHHy6VTs0k4esjDKnT7OzsyfAcEfWv2QG3QuQHd1yjbRYAoO26+nvd4KP/7ltlxehq2mABaLtDRZHLX1QeN0GItsgCAAAAkE5aDfLMKxWHdWD6kaR8jfxVZJny+Ul9N9th8WaJLBjs+588/6PPGK4OAGj9i3pPt/SsWeXOAukeWskJAZAYOkDxx7+tPK4BiLbGGhvhHAEAAABpde4Tkade8q77Aw6WSqd2JOnrpDJkmfy2Wa+Pj9+hgVLBHL/xTZf888NB+fJGt3z/thtUiQAAmv9iPrxK+saHpe+7t7q3tSoEAJLkzXcr+ga7Dvxa5B5mhAAAAACppa1wd/6xIggpJmFgehhhSINmZ2eLtrZZ//6sX4of3yITo9dlZOAbThQAIN4X8OFVsmLsO24AwhwQAEmm7xJ74a8iN75efHznlMgj93N+AAAAgLTSAGT3yyIXLy86rPNBHtZigqR9vYQhMXB+sOXx8Tv+7Nz8nr95vwz+cPUu57+7R6gSAQA0ZmEQem6t9N425N5nDgiAJNMgZP9bFYsjGVsr8uxWkT5yXAAAACCVNAjR1lh6zR8w52ybSqVTc0n8mvkLSszy+cntzu6Asw0Hj48Ofi2/e+ASs0QAAHXRwENngOgskK4+2l8BSI+jJZHptyvK5V17too8kuccAQAAAGlUIwjZUiqdmknq100Y0gT5/GTO2b0moeHq6qF18/LU5OfuoHUAAKwvzv29bhssdxD6qj5OCIBU0RDk2En7jBClQ9MPP+/tAQAAAKRLWoMQRRjSRPn85NPO7jkJVYloEKKBiAYjAAC4L8gEIABSShdBZ2dFTp8TOXHGXgkSpHNC9vyC8wYAAACkTZUgRG1KehCiCEOarFaViLbM2jZxhdZZANChCEAAtGKxcvaTymOWxcuiSo714yJDVSo3Llx2tksiV6s8j0XZ2XLmzgu/EnnwXn42AAAAQNrWFlWCkB2l0qmDafgeCENaJJ+ffEy8UGQ4/DGtEPnlxBV3rggAINsIQADUoguLq6HKCg0fLl6qPHYhdKyOcKJVjjibs1ySbc623Rx890VaZAEAAABpkoUgRBGGtFA+P6lBiLbNetr28Sc2fOGGIswTAYBsIQABsss2F+O05ZhWZ4TbR9mOZUDR2d5xtiPOoqjsXwMfF79KWitO3niG3xsAAAAgLbIShCjCkDao1TpLg5AnNlyVxzd8QSgCAClGAAIkj62awlZ1YauwSGDVRTNoj985/3ZhiccWA59zRe87C6FilWvfb81t5oUAAAAA6aFroP1vWYel705bEKIIQ9rIb511QAI9lA0Tivxk3TztswAgJTT00ACkZ3iAAASIga3q4lzECgtb8JFBRcuxExEfN+MsXuZadM27EIbsnBJ5corfbQAAACDpdO2lFSGhtZauIbakYVi6DWFIAjgLxO3itc/K2T6uM0U0GLl75AYnCwASRkMPrf7oWbNKuvp6OSHoWMsd1F3rWMaU/S187HzomC4uwguLubQuNvxrXcIQAAAAIEWOlkSm385WEKIIQ5KzSNR5IjpLZJdYhqyrjaPX5KF1X7rhCACgfdzqj6F+AhCkmm1Q97mIFRYdXHVhWkKFj4UrLFpWdZGS61zCEAAAACAlDh0Xmf5bxeGys/00zUGIIgxJ3mLRhCLbpEqliLbQ0kBEgxGqRQCgNdwAZM2Au+/q6eaEoKVsVRfqdMQKi4wO6g6yVlM425kIj5Nqsy4Q2/UtYQgAAACQgnWnhiBHT1Z8SNdQW7Lwhi/CkGQvHLdLjfZZSueJPL7hqvzwzv8wWwQA4nyB7Ol2Kz90/ocGIEA9og7qtj2uAwd1B4+Fqy7KYmkt5VyEl/ktS9U1LQPUAQAAgISvYX//inUtelC8YemZqHwnDEnHArIgXvusx2o9TqtEHrjzKzcYoWIEAJbxotjf6wYfvToAfWglJ6SD2KopTkessOjQqgsVaVA3VRdwrmWPOzu9npX14yJvPMM5AQAAAJLivQ9E9r9pXdfuc9Zze7P0vRKGpGshmRMvENFgJFfrsVoloqHIxtHr7h4AYGcGoGv4obeRfLZqCtug7qt1DO/OGFvVRVkqB3WXpbLqYi7tPWCRyGvYA+K1gXW9+6LI4ADnBQAAAGg3bYulM0LC60Jn2+GsDY9k7fslDEnvonJCvLki26XKwPUgE4xMjF6jagRAR9P2Vxp8MP+jdaIO6j4bcXh3BhUtx2xVFwzqRlqvW/XNPIfN/T1bRR7Jc14AAACAdq7T979lfQOhrjt3ZPVNcoQh2VlgPipe+4HcUo/XAewmHNk4eo1ZIwAyz7S/6hnqZ/7HEmyDuufrqLDogKqLsliqKSTaoG6qLtCp16r6xp3PzX1aZQEAAADto5UgfzlmbYullSA7svyGO8KQ7C02TcVIwdkmonyOhiFaLULlCIAs6ZT2V7aqCwZ1L1K0HLMN6ra2lmJQNxDbNepr4lU0u/60S+S+9ZwXAAAAoFX07wJ/eNP6JkZdC+t8kOmsnwPCkGwvOnPihSKmamQ46udqxcjE6HU/JLnmVpMAQKJf0Hq6pWfNKun2qz+S2v4q6qDu9yMO784YazWFVFZdqGL4AIO6gURfl+q16EI34rG1In/fx3kBAAAAWqFGNUim22KFEYZ03iJUt83+PjJTPbJu5L9uOKK3CUgAtJtWfGjlR+/wgLuPm62awlZ1cbWO4d0Z08igbqougM67Fj0evAbdOSXy5BTnBQAAAGgW/buEDkmv0tJ62lmX7+6k80EY0tkL0oIsMxxRwYBE97oxfwRAU1+0gsPPnX1XX++ij9te3KMO6u7QqgtlG9RdtBxjUDeARq89c87u4+Ax2mUBAAAA8dO/b2glyKHj1g+XxasGKXbaeSEMQXCBqjNGCuKFI3o7t5zn0cqRdSM35PbBb9w9VSQAovjocp9cnO9194tewG90yYf+sZ5A9UeHDurW++GqCwZ1A0jT9eZeZ/ecuT84IPLyLm+oOgAAAIDGHS2JTL9d9Q2f2qx2ulPf7EgYglqL1Zx4oYhuJiAZXs5zaRjiVZHcDEluH/yaShIArjMXV8pv/nF72r+NouWYrerC1lqKqgsAnXSNuahdFoEIAAAA0Dh906i2xKrSsrujZoNUQxiCehevOYkpIDHMgHbTbktv6zEA2TR/o9ut/tBqj48ur3CrQTQMabGyVFZd2AZ1W1tLMagbABq6ntRrx+P+daSLQAQAAABYniXmgujfNfaVSqemOVOEIYhnQZsTr6VWwdk2+rcnGn1eU01ighJTSUJFCZAeGnJo2PGps81c7HdDEA1DlikcTOjtK6HHlIVB3QCQhutHvVbUQGThTTUaiDy7VeTBezk/AAAAwFIuXBZ59ZjI0ZNVH6IByD46UdxEGIJmL3Jz4gUjsYUkxs2gRPffLtwnLAFaK1jp8el8j7/vdUOQBpTFCzu0UqMoBBoAkNVrxUWBiNo5JfLkFOcHAAAAsIkQghSdbTezRCsRhqBdC9+ceMHIXYHbw3H+O6aKxFSWKNN+i6HuQH1M4GGqPD68vMI9FlN7qxm5GXy4t3nXAgB0zHWhXgceltAbZu5bL7Jnq8jYCOcIAAAAUNoGS0OQKu2wVFG8SpAiZ8uOMARJWgwP+wvhnL9pNYk5NtyMf9O04lKmwuQWv9pEEZqgk5gWVlrZ8aW7jzXwUGV/06HiGnqUeZcCAMC/BtRApLDoOm1A5OdbqBIBAABAZztaEjl0vOpgdFUWLwQ5yNmqjTAEaVoomwWy7lfLzZBkohX/vqkqCVaaBIOTYLACJI2p6DAVHkpneKgG53jYaMChlR0n/BfkMu9KAABEuNbb6+yeCx8fWyvy9BPMEgEAAEDn0FZYx056QciFS1UfVhZCkLoQhiAri+dgKFLw95v9fdMqS2ox4YkyVScqPNOE6hMsVzDYCN6+ON+zMK8jxqqOMDPMXF94zwuVHgCAeK7p9LpNq0Ry4Y9p6yytEtE9AAAAkEXvfeDNAtF9DUVne6lUOnWEM1YfwhB00uI65y+sg8GJacXVsgqTpQRDFDUxen3RfVt4Ev4cpEs4sAjfNxUcKobB5PUoBzYTeMxR5QEAaMF1216xVImo9eMiP9si8kie8wQAAID00yoQbYOlAUiNKhCl4cdL/F1m+QhDgMrFt6kkCQYkZtC7yM2ZJolmC0iCLb6iPD74eZ3eAsy0marnY8EKDaPFYcZSyrI47DDVHnNUeAAAEnBNptdbB5ztMdvHtX2WBiJT9zNoHQAAAOmiAch7Z7w2WDVmgSj9W81B8UKQMmeuMYQhQGOL9GALruDtYHiSmKqTZktraNLEVlLtYkINpS+U5/3bRX8/47yAzvF/MAAgJddbBfGqRArVHqPzRB7cKLL5Xm/wOgAAAJA0dQQgquhsrzMPJF6EIUDrF/TB0CQclKwO3e+YIAU1mYHk4u/PhF4cXZRJAgAyfg1VcHbbnG17rccRjAAAACAp3j/ntb+K0AJLleVmK6wyZy9+hCFAOv8QEFQtMNlsOZaTFLT4ypBghUbw2JnQsWDY4b748aIHAEDVayG9ltklXigyXOuxOl9EB64PRQhFNDjRxzeC4e4AAACdzVR/aAii2/xXS36K/j1IA5B3GIjefIQhAFyWkCWongqVzSn89jWMuBLhxanaHA1mbAAA0J7rl+3O7lGpMlckbTSQuafBQEYDnaGBxp+j0aqae8apzAEAANmn7a7Ozoqc9sOPCNUfigCkTQhDAAAAAKRaPj+pb9zQQCQzwQjiCYdUHAGR2hRD5c9QDBVIAACgPbTK4+wnXvCh+4iVH0ZZvFbnBCBtRBgCAAAAIDP8YKQgXjCi+xxnBVkUV1u2uMIitWl98r4/AACWQ9tdaZWHCT7OzUau+ggqOts7uqejSDIQhgAAAADoeP4sklwDT1FPW9FqNsoSc1AiKPDTBBaLM/BRcQc1m2J+PiqQACA6U92h7a5MAKLHlkkDj6KznRAvAJnjDCcLYQgAAAAAYMESs+SiiuM57pJ4KnsK/FSBxsTVtq5Vz6tG14qMjTTvnFC9BCSfaWulNOww94P7BhXFDz6cbYbwI/kIQwAAAAAAqCGGyiEjrudZLY1XIhkFfsJAMsVd1VTLWJPDo1pG2/hvL0XDusEBfhfjEAwmluN0jWqNcLARU9ARVhSv8uOMeMEHba9SiDAEAAAAAAA0xJ/XE1dAE+dzqc0xPlfcXxsAIFk05CiLH3qIF3yUOS3ZQBgCAAAAAADQBjGHSEZO4qlACrqrCc/ZrK8VAGrRVlamquNE4H6Z0CP7CEMAAAAAAACQKTHNP6ql0IJvY3MLT5mGcsP85iClggGHKjvbef/2jP/xOVpbgTAEAAAAAAAAQFu0ILhqRIGfUKyKDXwuA8rRsP8LMACNvbPa4jRe/gAAAABJRU5ErkJggg==" vertex="1" parent="1">
          <mxGeometry x="376" y="414.45" width="47" height="15.1" as="geometry" />
        </mxCell>
        <mxCell id="7C8ybS8YBStuCCjqtTJ8-56" value="" style="group" parent="1" vertex="1" connectable="0">
          <mxGeometry x="62" y="645" width="70" height="70" as="geometry" />
        </mxCell>
        <mxCell id="7C8ybS8YBStuCCjqtTJ8-57" value="" style="whiteSpace=wrap;html=1;aspect=fixed;fillColor=#001135;strokeColor=none;connectable=1;allowArrows=1;fontFamily=Manrope;fontSource=https%3A%2F%2Ffonts.googleapis.com%2Fcss%3Ffamily%3DManrope;" parent="7C8ybS8YBStuCCjqtTJ8-56" vertex="1">
          <mxGeometry width="70" height="70" as="geometry" />
        </mxCell>
        <mxCell id="hSaHa6GIb4maSIc4nTPl-39" value="" style="sketch=0;outlineConnect=0;dashed=0;verticalLabelPosition=bottom;verticalAlign=top;align=center;html=1;fontSize=12;fontStyle=0;aspect=fixed;pointerEvents=1;shape=mxgraph.aws4.client;" vertex="1" parent="7C8ybS8YBStuCCjqtTJ8-56">
          <mxGeometry x="10.870000000000005" y="9" width="49.26" height="48" as="geometry" />
        </mxCell>
        <mxCell id="hSaHa6GIb4maSIc4nTPl-23" value="" style="group" vertex="1" connectable="0" parent="1">
          <mxGeometry x="337.12" y="645.01" width="70" height="70" as="geometry" />
        </mxCell>
        <mxCell id="hSaHa6GIb4maSIc4nTPl-24" value="" style="group" vertex="1" connectable="0" parent="hSaHa6GIb4maSIc4nTPl-23">
          <mxGeometry width="70" height="70" as="geometry" />
        </mxCell>
        <mxCell id="hSaHa6GIb4maSIc4nTPl-25" value="" style="whiteSpace=wrap;html=1;aspect=fixed;fillColor=#001135;strokeColor=none;connectable=1;allowArrows=1;fontFamily=Manrope;fontSource=https%3A%2F%2Ffonts.googleapis.com%2Fcss%3Ffamily%3DManrope;" vertex="1" parent="hSaHa6GIb4maSIc4nTPl-24">
          <mxGeometry width="70" height="70" as="geometry" />
        </mxCell>
        <mxCell id="hSaHa6GIb4maSIc4nTPl-38" value="" style="shape=image;verticalLabelPosition=bottom;verticalAlign=top;imageAspect=0;aspect=fixed;image=data:image/png,iVBORw0KGgoAAAANSUhEUgAABkMAAAIDCAYAAAC3uGl1AAAACXBIWXMAAEzlAABM5QF1zvCVAAAAGXRFWHRTb2Z0d2FyZQBBZG9iZSBJbWFnZVJlYWR5ccllPAAAx8JJREFUeNrs3X9wHPWd//m3NKORLCRbtuxIxsLIawNZ724skm+mSeELMlVZXKE2MfFWbXLf/YJcue/eLvlWYfIH2VTlgk2ouiRXBeZqk28llz2bkK2E+4bYbH0hYZPvWrDhltFeQLDfkPC1sx4Mgy1s2bIly9Lo1/W7e1ruGc1ofmh+dE8/H1WT0bQUbH8kdU/3q9/vd1gAAAAAAEDdMYxof8amDvPRl+VLbzQfvXn+c/1V+CsPm4+xZT4fNx9v59gez/xvxWJDY/wUAAAARwNLAAAAAACANxlGNDPA6Hd9vEPsgCPb55AuLumBiQYvl1Ifj6VeW2KxoUGWCwCA+kMYAgAAAABAlRlGVAOODkmv1nCHG/2skicMpp41MHk99fFiBQvBCQAA/kEYAgAAAABAGbmCjt7Uw2lDlatNVc3t6J5a9vPb1iWlLbJQsT9/ItkgJy9Elv2a35mfn0g2evXb7gQk7tBkUP+HwAQAAG8gDAEAAAAAoAiu1lW9kh52OCFIVXS3zUqX+XBkBhZbrdfzaf+ffKGHH2ULSV4/25L2+uSFprSvyfx8lTiBidOia/E1800AAKg8whAAAAAAADJkCTzukApXdmhwoQGGcgcb7lAjW8CBlXGHKWcnwjJiPuyPQ9brzK+poMHU84tyLTSJx2JDcb5LAACsHGEIAAAAACCwDCPaK3bY0S/XKjz6y/3nOBUZTsihFR3dqaqOeqzWqGdOVYk7OBk+22w9VzA0sYIRsVtwxVMPKkoAACgCYQgAAAAAoO5VMvRwKjr0edu6GbnOerYrPAg6gskJSjQYsQMSeyaK87qMnAoSfbztfExIAgDAUoQhAAAAAIC6YhjRfrHDjh1it7Va8SwPZz6HU9nhhByEHSjFtZDEfnZacmmA4rTmWiFCEgAAMhCGAAAAAAB8KxV8aNjhDj5KpuFGt9XCam6x2oPAA9XmBCXaksupKilTC6546qFzSZyAJM6KAwCCgDAEAAAAAOAL5Qw+3KGHfuye4QF4mQYkThXJyQtN1sdlaL01KHY4ojNJNCAZZqUBAPWGMAQAAAAA4DmpGR/9ci346C/lv6PVHd1We6sZQg/UNbvdlh2MlCkkGRQCEgBAHSEMAQAAAADUnKvq4w6xg4+iZ3xo2KEzPbra5qxn2lsBkgpHIlYlyfDZ5pW22xoUOyCx2mzRYgsA4CeEIQAAAACAqjKMqAYdTrWHE34UxQk+tq6bST0nWVigQM7gdm25tcIqEh3IPih29chgLDY0yOoCALyKMAQAAAAAUFGp8KNfrgUfRc360KDDCT76uqcIPoAKscMRHdbetDi0vQRaOTIoVI8AADyGMAQAAAAAUHaGEd0jJYQfbZF5K+zo6562qj/0Y90GoDacgOT1VIstrSIpUlyuhSODhCMAgFohDAEAAAAArFhq5oc+imp7pcPM7dCDqg/AD9wttkqcQeK01nLCEQazAwCqgjAEAAAAAFA0w4j2mk/u6o+CBp474ceOVOWHvgbgb86Qdq0e0ZCkyOoRwhEAQFUQhgAAAAAACuJqfaXPvYX8fwg/gODRShENRTQcOZmqIilCXGirBQCoAMIQAAAAAEBWGdUfewr5/+h8j9s3TxJ+AEhjhyN2a60SwpFjci0cGWM1AQClIAwBAAAAACwyjKgOO79Pihh87oQfzPwAUKgVhCODYgcjx2ipBQAoBmEIAAAAAARcqv3Vp8UOQHrzfb1WezgBiD4DwEqVGI5olYhTNXKMqhEAwHIIQwAAAAAgYAwjqsPO3QFI3uHn7vCD1lcAKsk9c2TYfNYB7QXSSpFnhaoRAEAWhCEAAAAAEAAZAUje+R/O4PPbN1+l+gNATZ2dCC+GIy+fbrXCkgLExW6p9WwsNnSMVQQAEIYAAAAAQJ1yDUDXGSB553/ovI+dqfCD2R8AvEorRTQUKbKllgYiTtUI7bQAIIAIQwAAAACgjpQSgNy17QrtrwD4klaJaDBSZNWIttB6UuxgJM4qAkAwEIYAAAAAgM8VG4Bo8OG0v2qLzLOAAOqGUzXyy9OrCp01osHIoPl4kjkjAFDfCEMAAAAAwIeKCUA08HDP/yAAARAEzqyRl0+vsgKSAsTFbqdFMAIAdYgwBAAAAAB8otgAxF0BAgBBpu2z3MFIAe204kIwAgB1hTAEAAAAADyMAASovIZQozS25m6p1NjeUuB/p2HZ/85KzCdnZWF6rrCvHZ/Kun1hbl7mJ5N8w00aiGgwogGJVpDkEReCEQDw//GeJQAAAAAAbyEAAQoTyggpMkOLxtYmK+hwa2iNLNkWdFZAMpfePm9ufDr9a1wBS72FKjpb5IWT11kBSQHBCMPXAcCnCEMAAAAAwAMMI9oh1wKQ/uW+lgAE9SatMiOjSiPU3nzt6wgyPMkdlGhIsjC3sPixE7LM5ahW8ZoSg5EjsdjQGD8JAODx9xssAQAAAADUjmFEB8ynT4sdhOREAAI/anTCC1fAsVitkac1FerTgtXua9b62Kk+cbZ5reKkyGBE22g9G4sNHeG7DADeRBgCAAAAAFVmGFENPpwApGO5r71r2wQBCDzLaVPltKdyqjgKnbEB5OJUmziBiVNlYleezFf976OzRZxgJM/wda0QceaLDPKdBADvIAwBAAAAgCowjKjO/tAWWBqA9C73te4KEK0IAWrJCjxSVRwNzSFpjIRpV4Wac4clGo4sTCZTQ+ZnK/5nO8PXXzjZlu9L43KtjVac7xoA1BZhCAAAAABUSGoOyIAUMAh967qk7N0+TgCC2lwccMIO89EYCS1+TOABP3KqSKygJBWQVKKiRCtEnGBEn/OgjRYA1Pr9DksAAAAAAOWVaoPlVIHk1N02K59JBSD6MVDxiwCEHgiwxQoSq4pkbvHjcoQkOlNEA5GfvNmeb76IttE6InYbrWG+KwBQxfdBLAEAAAAArJxhRHvNpwfErgTJOQdEqz50Dshd265Y1SBAxU74m8PSuCpiBR46y0NfN0TCLAyQwQlJnEqS+VRIUipn8Lq20cozX0TDkCfMx7FYbGiM7wQAVPi9EUsAAAAAAKVJtcHS6g8NQZZtg8UgdFT05D4z+KDaA1gxKxS5qsHITCosmSr6v6GBSAFttJyh609QLQIAFXy/xBIAAAAAQHFSw9A1ANEgJGcVCHNAUJETeYIPoGZKDUi0ddY/nGyzKkbytNEaFLuF1hFWGwDK/B6KJQAAAACA/FzD0DUE6c31dTr7Q8MPnQXCHBCUQ6i9xQo8NPiwZnzQ6grwlPnxKSsk0TZbGpTowPblvH62ZbGN1jKc2SJaLRJnlQFg5QhDAAAAAGAZriqQgeW+TgMQnQNCGyys6CRdB5y3tywGH/oxAH9x5o5Y4UgqKMlG54loIFLA0HVtoaXVIsdYXQBYwfsslgAAAAAA0hU6C0QrP7QCROeB0AYLJZ2UN4etyo/G9ma7AoSqD6Du6IB2DUWWC0e0WuSZN9vzzRaJiz1w/QgD1wGghPddLAEAAAAA2Awj2ivXqkByzgLR8EOrQHZ0T7FoKO4knPADCLzlwpECZ4s4A9cP0kILAIp4H8YSAAAAAAg6w4g6VSD9ub6GKhCUdNJN+AEgDw1H5sYmZX582hrI7swceSEVimjVyDIGxZ4rQgstAMj3vowlAAAAABBEhQ5EpwoERZ1kOzM/1q4i/ABQEq0UsSpHxq5a4YhWiHx/eI3VQkvnjOQQNx8HzccxWmgBQI73aSwBAAAAgCBJtcJ6WOyZIFlbYWkViAYgf7xtwvoYWI6GHqGOVVYIokPPAaBcFltqjV2VS6NJ+dmvW/INXNcgxJkrEmcFAeAawhAAAAAAgWAY0X6xq0D25Poarf7QEESrQYCcJ9La+qqjVULtzVYAotUgAFANWjUyO3pF/unXjfJf/r/mfC20jojdQmuYlQMAwhAAAAAAdc4wogPm032yzDwQDT/2bh+XreuSLBiycsKP0NpWWl8B8ISF5Kwk3knK//3fwvJPvw0v10JrUOxh64OsGoAgIwwBAAAAUHdS80C0AkTbYfVm+xqnFdZntl9mIDqWniynBp877a+o/gDgZeMT8/L/vNQoz8VEzozm/LK42KHIEVYMQCDf37EEAAAAAOpFKgTZL3Y7rKzzQLT6Q6tAaIWFTDrvQ4OPcOd1zP4A4FsaiPzt8/lDEWHYOoCAIQwBAAAA4HupoegagAxIjhDk9s2TVgiic0EAh1P9QfsrAPXm1RN2KKLPOTjD1g8RigAIAsIQAAAAAL6VCkG0FdZArq/RCpB7+y5ZbbEAZc3/WLvKeqb9FYB6d+JdkacHRZ57JeeXEIoACATCEAAAAAC+ky8E0RkgWgXyx9smCEFgBR5a+cH8DwBBduaCXSny4usiE1dzftkRseeKxFkxAHX3npAlAAAAAOAXhYYgDEWHOwDRChAAgE2DkKePi/zoOKEIgIC9P2QJAAAAAHhdvhBEqz+0FZbOBSEECfAJLgEIABSMUARA4N4rsgQAAAAAvKrQEETngiC4nBkg4c42FgMASvBczG6hdWY055ccEUIRAD5HGAIAAADAcwwj2mE+PS6EIMiBIegAUH6EIgDqGWEIAAAAAM9IhSD7zccD5qMj8/OEIMHW2BqRcOd1ViushkiYBQGACiEUAVCPCEMAAAAAeIJhRA8IIQgyT1qbw1b1R1NXOwEIAFRZAaHIQfNxKBYbGmO1AHj+fSVLAAAAAKCWDCM6IPZckN7Mz+kw9PujFwlBgnaimhqErlUgje0tLAgA1FieUESDkCeEUASA199jsgQAAAAAasEwov1izwXpy/ychiB7t4/LZ7Zftj5GMITaWyS0/jrmgACARxUSisRiQwdYKQBeRBgCAAAAoKoMI9prPh02H/2ZnyMECeBJaXNYwp1tEl5/HW2wAMAnnj4u8r3nRSauZv10XOx5IkdYKQCeet/JEgAAAACohtRwdG2HtT/b57UVls4F0fkgqH/h9W0S6lhlVYEAAPxHgxANRX50PGcoMmw+HozFhgZZLQBeQBgCAAAAoOIMI6oBiAYhS4aj7+iekod2jhKCBOEEtDksTR9ol9D6NtpgAUCdcEIRrRTJYVDsUGSY1QJQ0/eiLAEAAACASknNBdGWWL2Zn9u6LilfiF60whDUN60CYRg6ANS3MxfseSLPvZLzS46I3T4rzmoBqAXCEAAAAABll5oLosPR92R+TmeB3B+9aLXFQh2fbFIFAgCBpKHIo0+JvHoi66etIevm41AsNjTGagGo6vtTlgAAAABAORlG9ID59IBkaYl1X98lhqPXOZ0B0tTVThUIAASchiGHnhE58W7WT8eFIesAqowwBAAAAEBZLNcSi7kgdX5iGWqUcNdqCa+/ThoiYRYEALDouZjdPuvMaNZPDwrzRABU6z0rSwAAAABgJQwjqhUg2hJrIPNzGn5oS6zbN0+yUHWosTUi4a52CXe2sRgAgJycIes/Om5/nMURsUMRWmcBqBjCEAAAAAAlM4zogNhBCC2xAoSB6ACAUuQZsq5BiLbOOsRKAagEwhAAAAAARUsNSNeWWP2Zn6MlVp2ePNIKCwBQJjpPREORHEPWtWWWVokMslIAyvp+liUAAAAAUAzDiO43nx6WjGoQrQDREISWWHV20tgclqbr19AKCwBQdjpP5NCPaZ0FoErva1kCAAAAAIUwjGif2NUgfZmf27v9stzbd4mWWHUk1N5ihSC0wgIAVJIGId973p4pkgWtswCUDWEIAAAAgLwMI3pA7GqQNNoKS6tBtDUW6oPOA9EQhFZYAIBqOvGuyKFncrbOGhS7SmSYlQJQKsIQAAAAADktVw2iA9Lv7aNzRV2cGIYaJaQhSFc7IQgAoKbytM7SKpEDrBKAkt7zsgQAAAAAsknNBnk8c/vWdUn50s5R6xk+PyF0hqJrCGJ+DACAF+RpnRU3H/sYsA6g6Pe+LAEAAAAAN8OI9opdDdKf+TmqQerkRJCh6AAAH9CWWdo6S1toZaFzRA4yYB1AoUIsAQAAAACHYUQHzKej5uOD7u1aBfKNT7wvu7ZcYZF8TEOQyOa10ty7XhpbIywIAMDTNnaK3LPTvpv7f7wrkpxN+/Rt5uOzPT2b3k4kEr9ltQDkfS/MEgAAAAAwjGiH2NUgezI/RzWI/4XaW6xWWKGOVhYDAOBLZy6IPPpUzgHrx8RuncUbFgC53xOzBAAAAECwGUa033z6qdh3WC7qbpuVx3aPUA3i5xO+9hZp3tIpTdd3SGNLEwsCAPCt9lUid99mP//3+JIqEa1o/cuenk1vUSUCIBcqQwAAAIAAM4zoAfPp4czte7dflnv7LklbZJ5F8iENQXQmSKP5DABAvdEB6197SuSlN7J++oj5eJAqEQCZCEMAAACAAEoNSdfZIH3u7Rp+PLRzVG7fPMki+RAhCAAgSDQM0VBEw5EMcbHbZg2ySgAW3yuzBAAAAECwGEZU54JoW6xe9/Yd3VPyN3eflW3rkiyS307sXO2wdEg6AABBcGOXyGf+J5G3R+yHi85CG+jp2dSRSCReYKUAKCpDAAAAgAAxjOjj5tP+zO33Ry9arbHgL1SCAABgey4mcujHWatEhsWuEhlmlYBgIwwBAAAAAiBXWywdkv7InedkK9UgvkIIAgDAUmcuiDz6lMirJ7J+WueIHGKVgOAiDAEAAADqXKot1mGxW0Ys0rkgOh+EIek+OoFrDlshSLizjcUAACCHp4+LHHom66eOiV0lwnB1IIjvpVkCAAAAoH4ZRvSA+fRw5nbaYvnsxI0QBACAopx4V+RrP7CfM2gQcg/D1YHgYYA6AAAAUIcMI9rR07NJh6QPuLdrW6zHdo9YVSHwvoZQo0R6OqT59zZIY2uEBQEAoECdq0U+8RGR5KzIr+Npn9IekzpcvSGRSAyyUkCA3luzBAAAAEB9MYyozgXR+SC97u20xfLRiVqoUcJdq81Hu/UxAAAo3UtviHztqazD1QfFrhKhbRYQhPfYLAEAAABQPwwjOmA+PS4Z80Foi+Uf4fVt0nTDWkIQAADKSIOQL30363B12mYBAUGbLAAAAKBOGEZUQ5Cvi93+waJVIF//xPuya8sVFsjrJ2cdrdJy8wesuSANjdy3BgBAOUWaRO6+zb4zPCMQcdpmXUokEq+wUkD94h02AAAA4HM6H8R8Omw+9ri3b12XlEfuPGfNCYF3hdpbrOHoje0tLAYAAFWgYYhWiWRpm3XMfOyjbRZQnwhDAAAAAB9LzQfRIKTPvf2ubRNWayzmg3j4ZKw5bIUgWgkCAACqS4OQ+58QOfHukk8Nix2IDLNKQH2hTRYAAADgU4YR7TeffioZg9I1BPmPHxmTSGiBRfIgnQXStHGNRLZ0Sui6ZhYEAIAa0LZZ9+y0Q5Ffx9M+1W0+PtvTs+mtRCLxW1YKqB+EIQAAAIAPpQalHxXmg/iKDkdv3rremg/CXBAAAGrvtu0iGzvt1lnJa51F9f3VZ5kjAtQXwhAAAADAZ1yD0hfpfJCv3XlOfn/DNAvkxROv9hZp3tIp4a7VVmUIAADwjpt7RD62XeSV3yyZI7K7p2dTr/l4MZFITLFSgL9xKxIAAADgE6lB6RqEDLi37+iesgalMx/Egydc2hJr81rmggAA4AMahOhgda0SyaDzQ3YxWB3wNypDAAAAAB9IBSHHzcdu93YdlK5BCPNBvKfp+g6JaEss5oIAAOALOkfk7tuWnSOiFSJnWSnAnwhDAAAAAI8zjGif2EHIB93bnUHp8NhJVnuLtHywi7kgAAD4lDNH5KU30jbrjSkaiMQSiUScVQJ8+D6dJQAAAAC8yxWEdDvbtB3W/o9dkD+5ZZwF8pCG5rA1F6SpZy1zQQAA8DmdI3LHh0R+/qslg9UHeno2vZ1IJIZZJcBfCEMAAAAAjzKM6ID59EOx70S0aBDy2O4R+eimqyyQh1gtsbZ0SmNrhMUAAKBOdK62B6v/97jIhctpn9rT07OpIZFIDLJKgH8QhgAAAAAelApCDot9B6Jl67qkfO3Oc9YzPHJCRUssAADqmgYin/iIyCu/WRKI9Pf0bOpNJBLPskqAT967swQAAACAtxhG9ID59Lh7mwYgWhHS3TbLAnmAtsGK9K6TyA3raIkFAECd08HqGohcGBc58W7ap/oIRAAfvYdnCQAAAADvMIyoVoMMuLfdtW3CGpauLbJQe+H1bdJ0A3NBAAAIokd/IPLcK0s26/yQXbHY0BgrBHgXlSEAAACAR+QKQh7aOSqR0AILVGM6IL1l2wYJd62mJRYAAAH18Q+JtK+y22a5dJuP3T09m55OJBJTrBLg0ffzLAEAAABQW4YR1QHpR81Hv3v73u2XrYoQ1J4OSG+6fg0LAQAALM/FRB59aslmKkQAD6MyBAAAAKihVBBy3Hzc5t6u1SCf+6PLLFCtT5jaW6RZq0HWXcdiAACARTf3iGzsFHnpjbTNVIgAXn5vzxIAAAAAteEKQvrc2zUI0fZYqB1rQHpPh0Ru7JSGJk6bAADAUhqIfPgmOxBJzi5uJhABPIp39QAAAEANEIR4+CRJq0Fu/oCE1qxiMQAAwLK0OuRj20V+/isCEcDz7/NZAgAAAKC6DCPaaz79VFxBSFtkXv7m7rPy0U1XWaAaSasGMT8GAAAoROdqAhHADwhDAAAAgCoyjKgGIP9sPnqdbRqEPLZ7RLauS7JAtTox6miV5ps2UA0CAABKQiAC+OA9P0sAAAAAVEcqCNHWWB3ONoKQ2rKqQXrXSaRnLdUgAABgRQhEAG8jDAEAAACqgCDEgydDzmwQ8xkAAKAcCEQA7+LWJwAAAKDCCEK8xaoGuWGtNN/SJQ2RMAsCAADK6qYekW8/YL7fS+++qe8HD7M6QO1QGQIAAABUEEGIx06AnGoQZoMAFTU/PiULydmyPaRBaGUHwFe0QqS3W+QXv0rb/MGenk29iUTiWVYIqL4GlgAAAACojGxBSHfbrDxy5zmCkBpour7DfKxhIYACaaDhmBufvrZ90tx/zc27Plf9ji8ajDS2RhZfN6ba3TWEGha3N9ICD4AHPBcTefSpJZsPxWJDD7I6QJXfP7AEAAAAQPllC0I0ANGKEK0MQfXohdFIb2fahVMgyKxqi2nzMTcv85Mz1jYn+JhPfa7e9gFWeNLeshiWNDSHaZMHoGpyBCL7YrGhI6wOUD2EIQAAAECZEYR4R7hrtTUfBAgaq01VKuxwwo96DDpWSlvnNbRGpDESskISqkkAVMqhZ0SePr5k8z2x2NAxVgeoDsIQAAAAoIxyzQj5zqfOWC2yUKUTnVCjNG/bwIVN1LWsgcdk0tqG0lmhiBWMNEvjqghVZQDK5tEfiDz3StqmMfOxKxYbGmZ1gCqcI7AEAAAAQHkYRlQDkFPCsPSaCnW0SmRLJ8OWUReckENndmjIsTCZJPCoMqfFVqi9WUJrW2mvBaD0fbq57/7CEyKv/Vvae5S4+bg1FhsaY4WACh/TWQIAAABg5VJBiFaE9DnbCEKqT1tiaWsswG+0ysNuYzVnhx1Ju8oD3qPzRrS9VqhjVWoOCcErgMJNXBX5q2/OyslzacHqcCw2dCurA1T4GM4SAAAAACtDEFJ7DEmHX6SFHosf00LPz7QaLbR2lfVMMAKgECfeFbn/sXmZSKbtM47EYkP7WB2gcghDAAAAgBUgCKm98Po2abphLRch4SnXqjtmCD0ChGAEQKF+9etZ+U//eUnbvX2x2NARVgeoDMIQAAAAoEQEITU+mQk1StPmtRLubGMxUDPuOR7zV2fsZ9pbQeygVltpaTACANn88Pmk/J/Pp1W1MlAdqKAQSwAAAACUpqdn00/Np9uc1wQh1aPtsFo+2GX17QeqxQo+rkzL7OgVmR0Zl5nEmMy8O2a9nrs8ZVeDzMyxULDoz8PchUnr50PmFqSxOUy1CIA0f/h7DfLeezNycmTxEq2+sbnNfI/5dCKRmGKFgPIiDAEAAABKYBjRw+bTHve2r3/iffn9DdMsToXp3dbNN32Ai4qoOG1vNTc2KTNnL6cFH7p9YWpGZG6eRUJ+5s+J/sxogLaQnLP2XTqEHQAaGhvkw7c0yD+/PicXJhff13TrI5FIPMsKAeVFGAIAAAAUKRWEDLi3PbRzVG7fPMniVJBeQIz0rpOm6ztYDJSdzvfQ4EPDDg0+km9fWKz4IPhAuWi1iB2oTduVIoQiQOA1RxrkDzbPyy9+JZKcW5xo0NfTs+ntRCJBuyygjAhDAAAAgCLkCkLu2jbB4lSQtsVq3rZBQmtWsRgoC7uF0RW76uPtC9bz3NhVmb8yTasrVJyGb1a7NfPREG609nEAgmv92kZZG5qWf/ptWkDan2qXNcYKAeVBGAIAAAAUyDCiA+bTAfc2gpDK07ZYkd9bb91FDZTKalOkF5/fuyQz71yU2ffHr1V9LCywQKiNuXkrhNOfzVBrhEoRIMBuvrEx2/yQvkQi8SSrA5QHYQgAAABQgFQQcti9be/2y/K5P7rM4lRQ5Ia10tSz1uqpDRQjs/Jj9tyEPesjOUv4Ae+Zm6d9FhBw+l7n1q0L8ouheZlILs4P6e3p2XQpkUi8wgoBZfg9YwkAAACA5RlGVAelH3Vv02oQrQpBhU5UQo3SfEsXrWNQMGvmx/iUdTF57uKkLDDjAz6mFXFN16+RhgihCBA0v/3NlOz7Vkvm5i2x2FCc1QFWhsoQAAAAYBmGEe0TOwhZPCslCKksDUBa/mAjbbGQl1Z6zLw/bg08n3l3zJ75MZmk8gP+/9nWyqbzV8yfZZFQewsLAgTI+g1h6/g2fDrtfRDtsoAyIAwBAAAAckgFIcfNR4ezbeu6pHzljvMSCXGxtRLCXautQem0xUI2Wu0xd/GKNe8jeWrUbn3FwHPU7Q/8gnVBVEO+xpYmWmcBAfLhm0VefHVeLkzSLgsoJ84wAAAAgCwMI6oBiAYhfc42DUIe2z0ibRHa71RCZEunhDvbWAiksdpfXZy0LghrGywgqDQstlpnhRpZDCAAsrTLGhO7XdYYqwOUhsoQAAAAIEO2IEQDkO9+6gxBSAXohb2W3++W0JpVLAYsVgByfkKSpy/Y7a8upwafAwGmVVAaDGrbrIYmLucA9U7bZV0eTcqbicXfd01GuhOJxLOsDlAajp4AAABAhp6eTT80n/qd1xqAaEVIdxsXY8uN+SBwZA1AaH8FpJubt9rDaaMPZokA9e8PtzbIz/9lQSamF5v79JnvU19MJBJxVgcoHmEIAAAA4GIY0cPm02fd2/7m7rNWiyyUV3h9mzTf9AHmgwQYAQhQGp0lMj8+LaG1rexDgTrWHGmQ7utm5L+9kXYJV4epf4fVAYpHGAIAAACkGEZ0v/n01+5tD+0clY9uusrilFnkhrXS1LOWhQggZwj6zDsXJWk+CECAEn+XNEw8NyGhtmaGqwN1rLcnJK/+dl7OXlwMPrt7eja9nUgkhlkdoDiEIQAAAIBYQciA+fSf3dvuj16UP7llnMUpI50P0rx1vVUVgmCZG5uU2bOXJflv561h6MwAAcpgYUFmR69YYYi2HQRQn266fkGO/b9pVWBaHfIEKwMUhzAEAAAAgWcYUR2UrnNCFhuw37VtQv7jR8ZYnDKygpBbuuhzHyAaeMy8d8kKQPSC7fwk7eaASrADxjkJdbSyGEAd6uxokLMXRE68u7ipo6dnU0MikRhkdYAizkdYAgAAAASZYUR7zafX9KTS2Xb75kl55M5zLE4Z6R3LGoRoIIL6ZrXB0iqQkXHCD6DKNGyObNvAvhaoQxNXRe75qv2conftbInFhrh7Byj0OMkSAAAAIKgMI6oByE/NR6+zTQelaxASCS2wQOU66WhvkeabP8DFuTqnwcdMYkxm3r4gcxcmmQMC1IBWY81fnpLQuusYrA7UmUiTyMysyKsnFjdpqe001SFA4TgbAQAAQJAdNR99zou2yLw8tnvEekZ56GwQKkLql1aBzI5OyNSbZ6zH7PkJaxuA2tFgcvqtEebyAHXoz3aZ71dXpW16IHVzD4ACUBkCAACAQDJPHA+bT3uc104Q0t3GxaNyCXetlsiN61iIOuTMApk5NUoVCODF31Hzd3Lu/BUJrVklDU1c+gHqRY7qkLcSicQwqwPkx+1ZAAAACBzDiA6YTwPubQ/tHLVaZKFMJ+tbOiVyw1oWos7Mj0/J9MlzcvWNhMyOXKYKBPAw/f3UChFm9wD1JUt1yMOsClAYbg8AAABAoBhGtF/s9liL7o9elLu2TbA4ZaJBSLizjYWoE9ZA9ItXZPp356yh6AtTMywK4Jtf4AWreosKEaCO3mc1iZx+X+TEu4ubOnp6Nr1NdQiQH5UhAAAACAzDiOp8kLQgREOQvdsvszhloHNBWm7pIgipE04rrKk3EpI8NSoL07SQA3z5u5yqEKGSC6gfn//kkk33sSpAftwWAAAAgEBIDZfUIKTX2aZtsb7+ifdZnDLQIEQHpTe2NbMYPmeFIO9ctAIQbYuld5YD8Psv9oLMX56S0LrrpKGxgfUAfK59lV0Z8vbI4qbenp5NTyYSiTFWB8iNyhAAAAAEhQYhfc4LHZSuA9OxcotBSGuExfAxax7IWyP2PJDztI0D6u53fDJJhQhQR3R2SIYHWBVgeYQhAAAAqHuGEX3cfOp3XrdF5uWRO89Zz1gZghD/mxubtC6QTpmPOa0EAVC3NBDRyi8A/vfhm0Q2dqZtGmBVgOXRJgsAAAB1zTCiemL4dfe2r9xxXnZ0c9F3pTQAafmDjdLYHGYxfGh2dMIein5uwmqNBSAYNBARaZBQewuLAfjcxFWRV08svmzp6dn0eiKR+C0rA+Q4f2EJAAAAUK9SA9MPu7fdH70ot2+eZHFWeiLRGrEqQrQyBP6iIcjVf2UoOhBkM++NWfsCAP72yduWbPo0qwIscw7DEgAAAKAepQamH3dvu2vbhOzdfpnFWelJBEGILxGCAHCbOX0xVSUCwK82rhO5qSdt0x5WBVjmPIYlAAAAQJ3SIKTDebF1XdKqCsEKTyAIQnyHEARANjpIPRkfZaA64HN3G2kvOwwjSiAC5DqXYQkAAABQb8yTQG2N1ee8ZmB6mU4eCEJ8hRAEQD4MVAf87+M7lmy6g1UBcpzPsAQAAACoJ6mB6QPubY/tHpHuNi4Gr+jEgSDENwhBABS1zzg/wfwQwMdolQUUcU7DEgAAAKBeZBuY/tDOUatFFlZw0kAQ4guEIABKpfNDFpLsNwC/+vBNaS97zffEvawKkOW8hiUAAABAPcg1MF0fWMEJA0GI582PT8n0WyOEIABKZs0PMfchAPzp4x9asqmfVQGynNuwBAAAAKgTSwama1UIVnCyQBDiaU4IMmU+5syPAWAldD8yO3KZhQB8KKMyRDE3BMh2fsMSAAAAwO9yDUzHCk4UCEI8S1vZJOOjhCAAym7mvUu0ywJ8KiMQ6WNFgCznOCwBAAAA/CzbwHQNQhiYXjoNQJq3bSAI8Rirjc07F+XqGwlr4DEAVGQ/Q7sswJcyhqgThgBZcHYDAAAA30oNTH/cve3+6EXZ0c3d8qWyghCtCImEWQyP0IuTerf2lIYgtLABUGFWu6xRAlfAbzLCEH2f3M+qAOk4wwEAAIAvpQamHxXXnBAdlr53OxeLS+UEIdoiC96gFySttjUMRgdQRTOnL0qoo5UKQcBHNq5bsqmXVQHSEYYAAADArw67T/J0YLpWhaA0BCHeosPRNQRhJgiAWrAq0t65KJHeThYD8IksQ9R7WRUgHRE/AAAAfMcwogfMpz3Oax2Y/qWdo9YzSqMzQghCak8HF0+fPMdwdAA1p7OJ5tkPAb6yMT2/3MGKAOkIQwAAAOArqf7HD7u3PbRz1KoMQWkiWzqlsb2FhaghZy6IDkefG5tkQQB4QvIdKi4BP8loldXBigDpCEMAAADgG645IYt0Rsjtm7l4XCoNQsKdbSxEDelckKk3z8jMe2MsBgBPmZ9MyuwIs7gAv8ioDOljRYB0zAwBAACAnxwX111uzAlZ4clA12qCkBrSi4zak592WAC8TKvWQuvbGKYO+ACVIcDyOJIBAADAFwwj+ri47nDT+SCP7R5hYUoUXt8mkRvWshA1oC2xkvFRqxqEIASAH/ZZsyPjLATgz/fPBCKAC2EIAAAA/HAip8PS97u3PXLnOQamlyjU0SqR3k4Woga03czUGwlrMDEA+IW28VtIzrIQgMfdetOSTbTKAlxokwUAAABPM4xor/l02L3tvr5LsqObO+pL0dgaseaEoLrmx6esQcTaGgsA/EjbZRGkAwD8jDAEAAAAXqcD0xdL/DUEubePQdOlaGgOS/MtXfR9ryJtL6NzQagEAeB3uh9run6NNES4lAQA8CfOggAAAOBZ2eaEaHssFE8DkOatGwhCqoiWWADqTfLUKIsAeFj7qiWbelkV4BrifAAAAHhStjkhOjCdOSGlad62wWqRhcrTVlhaDcJwdAD1Rvdr2vavsb2FxQA86KaeJZt6WRXgGsIQAAAAeE62OSH3Ry/K1nXMWyiFzgjhwlXlWS2x3rtkVYQAQL3S/VzzLRxTAAD+QxgCAAAAL0qbE3L75knZu50LzCW94e9aLeHONhaiwubGJq0B6QvTsywGgPre341PyUJyltkhAAD/nRuxBAAAAPCSzDkh3W2z8tBOepSX9GZ/fZtEbljLQlSQXhBMnr5ohSEAEBRaHRLp7WQhAAD+Oj9iCQAAAOAV2eaEaBDCnJDi6XyQJoKQitJ2WHpBUNtjAUCg9n/nJ6Tp+jVUhwAA/HWOxBIAAADACwwjqm2x0uaE3Nd3SXZ0M4S6WA2hRmm+pct6RvnpgPTpt0bstlgEIQACamZknEUAAPgKET4AAAC8Im1OiIYg9/aNsSolIAipHK0EmXmPn0sAmDs/IQtaHcLxBgDgE4QhAAAAqDnDiB4wn/qd19oW65E7z7EwJYhs6bRaZKG85senZDo+yoB0AEjRyjgNRMJdq1kMAIAvEIYAAACgpgwj2m8+PezepkEIc0JKeHPftVrCnW0sRBnpxT6tBtH5IACAdDPvjxOGAAD8c77EEgAAAKBWmBNSPqH2FokwML2sqAYBgOXp/lH3lY3mMQgAAK8jDAEAAEAtaRDS67zYui7JnJASNDSHJbJtAwtRJloNkjw1KnNjkywGAOQxO3pFIoQhAAAfYMoVAAAAasIwovvNpz3Oa+aElEYH1zZv3cAA2zLRAGTqjQRBCAAUaFYHqc/R2hLwghPvLtkUZ1WAa6gMAQAAQNUZRrRPMuaEPLRzVLrbaEdUrKbNaxmYXgZUgwBA6XTfycwqoPbGry7ZFGdVgGsIQwAAAFBVrjkhHc62u7ZNyO2buQhd9Jt5BqaXhV7E0yCEO5sBoMT96MWrHI8AAN4/f2IJAAAAUGVaEdLnvNA5IfdHL7IqRWJg+spp+DHzzkWrxQsAoHQaKi8kZ6UhwmUmAIB30VgYAAAAVWMYUZ0Rst+97Us7R615ISiczgdhYPrKzI9PydSbZwhCAKBM5i5S4QnU2pkLSzaNsSrANUT2AAAAqApXe6xFWhGilSEoTvMtXQxMX4GZ9y6ZD64NAEA5zY1PS7iLdQBq6exo+utYbGiYVQGuIQwBAABAtRwV15yQHd1Tsnf7ZValSNoai4HppdEWLtMnz8n8JAEcAJSb1Sprbp6wHgDgWRyhAAAAUHGGEdXWWP3Oa22L9cid51iYIoU6Wq2h6SieXqSb+vUZghAAqPC+FkDtZLTJogwWyEBlCAAAACrKMKI6LP1x97aHmBNStIbmsES2dLIQRbKGpL93SWZHqEICgEqbH58W6WxjIYAaOZPeJosWWUAGwhAAAABUWtqcEG2Ndftm7hwtVvPWDbQeKZJWgSTjo1SDAECVzI1PsQhADY1fZQ2A5RCGAAAAoGIMI6oVIX3Oax2Wfm/fJRamSMwJKZ62akmeGrUqQwCUbiLZKL+7kH//o/t3Kv6wMD1rzWdqiHC5CaiFE++mvaQyBMjA0QkAAAAVYRjRfvNpv3vbl2iPVTTmhBQv+c5F2mIBBXCCjpPm44r58ckLTda2kYmwnJ0o/XKBE4x0t82ajznrtT70NeqfVoeEaZUFeAF3IAEZCEMAAABQdoYR7TCfjrq33dd3yboYhsIxJ6Q4ejfy9MlztMUCsnBCj99daEo9R6zgo1J/lno9y+d2dE/JNvNYsKN72vqYgLz+MDcEqI1XTyzZFGdVgHSEIQAAAKgEnRPS4bzQC1739o2xKkViTkjh5senrCCEtliAXfHx+tkW89FsBR/6sVfYf68WeeZN+7WG5H3mMeKubVcIzOsEc0MAz4izBEA6whAAAACUlWFEB8ynPc5rvev3oZ2jLEyRmq7vYE5IgWbeu2Q+CNsQXBp+vHy61Qo/NGhYQYsr/UVyesy/6No+mOf/p+G3Mx9qjevj/nx/4O9SVSrPvLnaaqN1++ZJghGfs+aGzM0T5gNV9trSyhBmhgAZCEMAAABQNoYR7TWfHndv0yCEPvHFCbW3SNP1a1iIPPRimw5J12HpQNBo6PHy6VUybD4XMuA8g14gi4vdycr6OBYbWulFs2PLHBf00W8+dogdlPRm+1oNcTQUcYIRDUX+eNsExxA/7p8nk9LQ3sJCAFU0fjX9tblf504RIANhCAAAAMoprT2W3uGrDxRO76SNbNvAQuShc0Gmf3fOugMZCAINCpwARJ+LmPcRF7uywwo+YrGhwWr+vc0/L+76O1hSAUm/+bgj9dyb7d/75PAa63HXtgkrGNGWi/CHufFpaSQMAarqxLtpL6kKAbIgDAEAAEBZGEZ0v7haouidvLTHKp4OTKe1yPJmRydk5vRF5oOg7mkgoO2vXjh5XTHVH3oBbFDsNleDXrwzOBWQHEk99Pih1SL3id1isTfz61842WY9NAy5r+8SoYgPLCQJqoFq+x/pYUicFcl77uK0eHS3etwhrhu7Uvoytg3mOPZekmvtJsfKUHGJCmhgCQAAAFCGkwk9SXjNve2x3SNcsCpSuGu1RG5Yy0IsI/nORZkducxCoG5p6KHhh4YgBc7+iIt9YeZZ8Wj4UcLxRIORAVl6QcpCKOJ92u6x+ZYuFgKooo/9p7SXB83jwQFWZfHYoseTfrErEvukgJlWZRJPPTQYcSo0CUlqeb7FEgAAAKAMDrtf7N1+mYtURWpoDjMnZBnWfJCT52RunJ8r1J8SApBBscOPY6kqi7qRukikjwcNIzpgPj8g1+7YtWibsC/+rMU6zjCXypu0lSGA6nl16fD0OKtihSD9qePInhr9FXrl2tws5+/kHMf1WOfZKs66PediCQAAALDCk4wD5tPDzuut65JWVUhbhBZGxWjZvlEaWyMsRBbMB0E9KrIFll4k0QHletHkWNAumqQuZulxpj/b5zWAv7fvEscdj2n9dzeyCECVPH1c5NAzaZtuDXIFQmo21WEpsgKkbZXIzT3p2zZ2mo919sc6pD5jNkvWbSXQ75VzkwOVIxVEGAIAAICVnGjoCcZx97bvfuqMFYigcE3Xd1AVkgPzQVBPdOi5E4BodUMeTgDybCw2dIzVWz4U0SBEq0Ru3zzJQnlEyy1dDFEHqkSDkKdd78jN40Zgr/mmqgoflxytFjXcuGmTHXrc1HMtANHnldJQxAlHJq7aFTtnLpiP4sYoxiVVAcrxv/wIQwAAAFDqiYaeYOickF5nm/Zwv7ePKu9iaDWIVoVgKeaDoF5oAPLy6VXWEPA8CEAKO/70i32hqy/zcxqGaChClUjtEYYA1fOFJ9JaZelcilsDenwYkIz2vUpDj7sNkY/vuFblUW36/dGQ5EQiFZIUFpDo+4Ij5uNJKkbKgzAEAAAApZ5s6IWo/c5rrQbRqhAU8WY81Cgtf7BRGiKM8nNjPgjqgbbB+oeTbVYVSAFzQDT4eJIApOjjkB6DtFIk7e5fDUIeufMcs6tqLHLDWgl3rWYhgCrIGJ5+xDye7AvgMaFX7Bu1Fo8JGoLs3yvy4Zu89/fVihENRV4zHy++bleS5KFhyJOp7y93n5V6/sUSAAAAoISTjX5xtcfSC0/f+dQZhtgWiQtFS+l8kGR8lOG78K0XUgFIAW2w9KLGExLAGSBlPh7pRS+9C3jJcFydJXJ/9CKLVCO0gASqQ6sN7v162qaD5nHlQACPB3osGHBe332byFf+3F/fx+di1ypIluFUker3Oc5vQHEIQwAAAFDsicaS9lh6sUkvOqFwofYWab6li4VwmRublOSpUeaDwHe08uMnb7ZbQYjOBVlGXOwLGE9wAaPsxyYNQ/RCWFqViFYtPrZ7hLZZNUAYAlSHXkB/9Km0TbvMY8xgAI8DF51jgM4F+clB//5btGpEZ8C89Ebedlr6fT4YxO93qQhDAAAAUOyJxlFx3YGrbUj0QhOKeBNOe6wldDaIzggB/KSIKhDaYFXn+JS1SkSDED1OaTCC6gmvb5NIbycLAVRY5vB009qgVRxmVq1ra6w/21Uf/zatFHk+lreV1qAQihR2HsYSAAAAoIgTDb3AdNR5TXus0tAe6xqtApnRQennJ1gM+EIRs0DiYrfBord39Y9VOkvk8cztOlj9rm3sa6qFCkigOhievjQM+dYD3pwTshIahDz3isjTg8tWi5ifJRRZDreiAQAAoNCTDOeO20XaHosgpDihjlaCkBQNQqbfGmE+CHxBqz80ANFqkDyOiF0FMsiq1Ya59ofMY5auv14YW2yb9c1fdsrIRFju7SObAlA/XEGIGmZF6lPbKrvaRR/aPkurgTK+96pfH6lj4D5aci5FGAIAAIBCpfViv33zJHfYFknbY0W20DJEaQCiQQjzQeB1Gn4882a7/O5CZLkvi5uPJ8WuAomzarVnfh+GDSO6RexApM/Z/uTwGjk7EbKqRADA77JcDH+RVbFnbtSzj3/Ifuj3/2+fzxmKnDKPg4fErhThLgDnfIwlAAAAQD7Z2mP93Z8mGEhbJA1Cwp1tgV+H2dEJmTl9kSAEnuW0wtIQJM9A9EGxh6EzC8S7xy8N8bVl1oB7u4b5BCKVRZssoPL0Qvj3nk/bdKuGwQHd3y84H999m8hX/jw4//ZlQhGlQciD5s/FEX5jCEMAAACQ/8RCLySdEldVyCN3nrMqQ1A4LgrZZt67ZD64OQ3epNUfGoDkaYWlP8AafhykCsRXxzKtbhxwbyMQ4bgH+F3GvJAx87i0NsD7+dckVQmoLaV+/n8Ebw30Z+HRH+ScKTIotM6SRnYbAAAAyGNJeyyCkOLQHsueD5KMjxKEwJNePt0qX/xZl/zF329cLgiJm4+D5mNLLDZEH26f0e+Z+bTPvU2/1zpHBAD8KqMSYDDgy/Gk84EOG9e5GkGjQ+N/Yr5T2b/XDoQy9JuP1wwjuj/IPyTMDAEAAEBOqfZYe5zX2haLu2iL13T9GmmIBPetN4PS4VV6Mfz71gyJZX8/B8UeiH6EFfM3/R6axzX98LD7Z0BxbAPgN8wLWUKrNh93XuiAcZ2rEUQ6ZF1bhR16RuS5V9I+ZbWONI+Fn5aAVomE2HUAAAAgG/NNcq/59FPz0eJs+8od52XbOi5oF/WGu71FIjcG985ja1D6m2dkITnLDwM8QWeA/Ohf18hX/3GDHD913XIzQY6I3WP7YCKRGGbl6oN+L3t6Nr0trqBf26ONTITl9s1XWaAyamwOS3g9c7KASnk+tiQQ+bK5jzsb4P37mLl/7zc/1HMYa4i6VkpsDOjb8EiTHQbpGrx20q6WcdE1GjDXayRo73EIQwAAAJCV+eZYB6Z/0HmtrbHu67vEwhRB22M13/wB6zmIdFB68t/OMygdnqDVH1oF8s1frpd/SayS5FzWEZrax+1H5uOeWGzoyUQiEWfl6k+uQORKslE+ummKBSoTwhCgsnRgtl7wd45f5nHrQc5frH37wOKx/4JdIRFkGgZppYi+68kIz/SGtz3mmvWajxfNY2MgDoCEIQAAAFgi1Uv2L53X2h7rsd0jEgktsDhFaNq4RkIdrYH8t8+OXJbk2+YZ6AI/M6gtDUG+PbTWCkF+c655uRDkG+bjc7HY0NN6dykrV9+yBSL689HdNkcFZJmE1rZKaM0qFgKoAL3L/5s/Stv0M3O/9jT79kQ8szrk5h6RG7v4mdEKkTs+JPLKb5ZUiejQ+d3musWCUFlEGAIAAIA0qfZYPxTaY61IY2tEmn9vfSD/7dag9LOX+SFATb1+tsUKQQ79c6d1138OcfOhd9L+VSw29LOg3BUJWyoQ0WNen7Pt5dOt0tc9Ld1ttPZbKQ1CtFUkgPLTC9q/+FXapm/Q0tGWWR3y67hdHaJto4Kuc7W9FhfGRU68m/apbvPxWXPt3jJ/jn5b18cmfgwAAACQcQKR1h5r7/bL5mOchSlS800fkIamYL3dtgal//aszF2i7z5qR0OQb/6yU74/3CHvXMp55SMu9jyQfXrxiBAkuMzv/bPZApFdWyatqkiUToMQwhCgMp76+ZKL2Q9S1bi4X9fqkD7nfEarIJqb7MoIXJslou2ztG2Wa6yf7rA1EGkw13CwXv/9DfwIAAAAwJFqj/W481rvjP3Op85wQahI4a7VErlhbaD+zTooXStC9BmoBQ1BnhxeYz0vQ0/uD8ZiQ4OsGDKOf6+JKxDZui5ptYfk+Fc6PQ7q8RBA+X3mYZEzo4svh83j2q2sSto+vdd80v16h7Pt+38tclMPa+OmgdrXfrAkWFNHxL5ppO4Ctka+7QAAAHCdNDzs3vbQzlEuBBWpoTksTdevCdS/WQOQ6bdGCEJQEy+cbJO/+PuN8sWfdS0XhAyaj13mSf0ughDksEvsiiGLtlbTNmsonbaLBFB+euHaFYQ4xzi4mMd63Z8fdG/Ti/5Ip+HQtx+wK0UyDJiP4+b5YUe9/ZtpkwUAAABLT8+mw+K6K1bbY/3JLRMsTJGat3QG6gLQ7OiETJ94n0HpqDoNQR7+xw3W88WrOU9tB83Hvlhs6KC2zWDVkIu2SjOPgy+aH35WUjOzNBBpiyzI9g3TLFAJwuvbrBsEAJTXsV/a7Y1c/ioIg69L2K+/4h6mfuGy3SKJdlnptG3WJz5ir03Gz5XOEdHB6i/UUws2KkMAAACgVSF7zKc9i+9822bl3r5LLEyRQh2t1iMoZt67JMlTo3zjUVUafvz7H2+y5oKcnch5ofWI+biVShAUw/xZ0eHDD7q3fX94jRWKoHgNVIYAFfHiG2kvx1L7LmS3T9fIefG955dc8EfK5z8p8pX/sGSz3ij3mnmu2Fcv/07CEAAAgIBLlT8fdm+jPVbxGkKNEtkcjJYqOihd54PMvMecTlRPESHIFh2MzsUhlML8uTmS+jmyTCQb5Rvmz5w+o/jjIoDyOnNhyXyHY6zKsvv0uGS0y3r0B/ZQdSx1t2HPVmlblbZZzxWP10sgwpEJAAAAh8U1XPD2zZOyo3uKVSmSDoltiNR/OxANQnQ+yOx5WqihOkoIQeKsGlZIq0MWwzStDNEKERSOeSFAZbz0+pJNz7IqyzPfFxwS11wVnbfytadYl1ycOSL1GogQhgAAAARYZnssrQbRqhAU+aa6NRKIoek6IH3qzTMMSkdVEIKgVsyfJS17S2ut8sybq+X1sy0sToGoCgEq47lY2kttkUVlSGHuce/TX3pD5OnjLEouTiCizy51EYhwdAIAAAgo2mOVT+SG+m+PpQGIVoQsTM/yDUdFEYLAC1Jt1tJaq3yTdlkFa2wnOALKjRZZK9qnOyH3okPPLFlPuNRrIMJRHAAAILiWtMfSB4oTXt9W9xd9ZkcnrIoQbZEFVAohCLwms7WK/lzSLqswDaEGFgEoM1pkrXifruHRIfe2rzE/ZFnaKqveAhHCEAAAgACiPVZ5aBuQpjqvCpl575IkT/GzgcrR1kMFhCCDQgiC2ljSLktniGB5zAwByu/pwbSXtMgqgblmaTOhtDJEK0SQW70FIoQhAAAAAUN7rPLROSH13Bc9GR+VmffG+EajIjQE+eLPuqxHnhBkVyw2tIsQBLWQ+rlLa5f1jV92sjB5NBCGAGWlF+3PpN+bQhBSurSQ+7lXmB+SzzKByOHUuaVvEIYAAAAED+2xyvFGujUi4a7Vdflv03ZY2hZr9vwE32iUnTsEWWYg9aBcC0EGWTXUUqpd1uKdxFoZohUiyK6hOcwAdaDMMganqydZlZL36bo/f9C9jfkh+Wkg8r/9uf3sopUhx/0UiHB0AgAACBDaY5VPvQ5NX0jOWoPSdWA6UE56AZkQBD6WNnhXZ4cwTD27xkiYRQDKTKsXXOIcI1fGXL8jYs8hW/Sl/4v5Ifk4Q9WzBCKP++XfEOLbCAAAEAypO3a0CHzxKuRX7jgv29Zx0bvoN9EdrdK0sf6G6GoAMv2bs1YgApSLtsD69tBaOfTPnTKSux1W3HzoPJAvJxKJOKsGrzF/Ls/29GzS4+ht+jo51yAz5uOjm6ZYnAzh9W0Sam9hIYAy0aqQX/wqbdMT5j5pkJVZ8X79WXO/rjeJdetrDULeHhH5xEdYm+V0rhb52HaRo79M29ynx0hzTV/w+t+f2xgAAACCg/ZYZaCtPyKb668qZG5s0qoI0RZZQDloCKJD0XU4+gsn23J9WVzsEGQLg2DhAzo7JG2Y+jLzbgKrsbWJRQDK6KXXl2w6wqqUzT3u/fpLbzA/pBBaIfKV/7Bk837DiA54/e9OZQgAAEAApNpjHXBea3usx3aPSCS0wOIUSStCtDKknsyOTkjy386LLPDzgJXT1kE/+tc18tV/3GC1xspBLzx8ORYb+lwikRhm1eAH5s/qVE/Ppmnzw93ONq122rWFGwvcIjd2SkNjAwsBlMGZCyLf/FHapkHz2PkEK1O2/fqYuV9/y/zws862V34jcseH7AoI5HZzj4ju6V89kbZ5j7mez2o1pVf/3lSGAAAA1LlUe6zD7m06J0QDERRHh8KGu9rr6t+UjI9K8hRzY7ByGoJ8f7jDqgR5cjhnGzkNQfTu+i2podSAr6R+buPO65dPty43AyeQx0mGpwPlk6VKgcHp5d+va2Vq2nuSr/2A+SGF+PwnRe6+bcnmo14eqM4RCgAAoP7RHqtMdGh6vVzk0XZYGoTMnp/gG4sV0zZYTgiyzFBpvdCgIcgB8zHGqsHHHnS/WCb8C5zGVREWASijjMHpY6nB3yg/vVFjsVL1xLvmm5ZnWJRC7N9rt81y6TUfRz17nOJbBgAAUL9SfVv3OK+1GkSrQlA8HQZbL+2xNAjR+SAEIVgpJwTR2SDLhCBHxA5BHiQEQT1I3UU86LzWyhCqQ5xjZTOLAJSJDk7PqE6gPVbl9uv6/mSfuOaHaBClM0SwvLZVIt/4C/vZpd88Dz3gxb8vTRwBwIPMg0av2Gl6n9h3c69JfexwPp9NXFyl+2Lf3XDJtX2YCxFAoPYlr4mrKuSRO89RFVKilu0bpbHV/3e8zk8mrYoQfQZKpRd+9W74PBeAB82HBiDMBEE9HmP7zafFBjY7uqesWVwcK+vjWAl4wb1ftysUXPTGgjgrU9F9+4C42gvrBf7vf1lk4zrWJh+dHfKFpXHdLvNndtBLf0/CEACo7YFWL1BqyKEnUzvkWgBSaRqG6IWJF1PPw7ypAupyH3M8tX+xaAiiYQiKF17fJpHeTt//OzQA0YoQrQwBSqED0b81tLaQEOSg105+gUofZzUM0VAkyFr/3Y38YABlkOXC8hHzuLqPlanKvl1bPC1W1n/4JpFvPcC6FOJvnxf53vNpm/Ta0xYv3ZAb5tsEAFU9qPamTpjuSD331uiv0pH68/tdf7e42BcvntVnqkcA3+9vDrh/x7vbZmmPVSKdEdJ0vf/7wc+OTsjM6YsEISjJ2YmwfH94jdUWaxn6XuIg/cwRIAfdx9pn3mwPdBii7SQBlAeD02tKQye9SbVXX2gwpd+PP9vFwuSjA9V1vfSRoteetNLmHs+c2/FtAoDsDCPqtKjKerJfaCVFqoT+06kTpZKrPtwnVtrzf9u6maxfd/JC02LPbn3WOzhLpL2QNRg5RjAC+HL/9Zp7G3erlq7p+g7fhyEahCRPEYahePpe4idvrs43IFrfJ2gIcogVQwCPuWnVIX/3pwnrBgSOlwBKdeaCyGe+mrZJb1bkUnx19+26X1+MpGiXVcR7x6si93x1ybybfV65WYYwBEBQD2xOeyon8Lgj9an+Ev5zcdfjbbGrK/S/qQHIHskdqKTRgGPruqRsMx9tkQXroqWzrRy0nYUTjmhgos96l2eB9KD1JO0uAN/s3zQI6XW27d1+We6PXmRxSnmz3By2+p9rdYhfJd+5KLMjl/lmomjfH+6w7nRfZjC60jvjD3HjBAJ83B0QV3/5u7ZNBLYSs+WWLmmkOgRYsUd/YA/vdtlH1WVN9u+Pm0/7nde0yyqcDp7/0nfTNun7xFu90J6dMARAEA5g7rkcd8i1AKSmNOTo656SHd3T1se1uINML25oSPL62WYZNp8LqCLRAxftLwBv7/P0gsyAe1/z3U+dYWFKFNnSKeHONt/+/XVQ+uz5Cb6RKIq2wtKWWHlumjiSek8QZ8XAsTd6Slw3ITz7P79j3dQUNMwLAVYuS1WIdqXYwsrUZN++5Caz/Xtpl1WoLKGeJyqcCEMA1OtBq1/K0JqqnDTs0OHFGn44VR9eoxc9NBx5+fQq89G63JfGhVAE8OK+b0Bcd6fqfkbbY5WrwixoGlsjVlWIH+lcEB2UrgPTgULpewBth1XAcPQHzfcAw6wYkP34e1/fJbm3L1jFUjovpPmWLn4YgBWiKsRz+/d+yWiXdfQR+xnL0zZZ935d5Ex6seSDtW6rShgCoF4OUJrYa0sqJwApqvJDg4ou89FtPeasbddZczmyX0TSsOCZN1fn/e/qBci7tl2xKkD8djFSq0Y0ENH2GMtUjMRTB7Nj/BQCNd8P9op959Li/k9bY2mLLJTGr+0+CEJQLL0Z4ttDawu5EWIfLTOBnOcip5xjsJ5T6OyQIGFeCLByVIV4dh+f1i7r7ttEvvLnrEshdJD6F55I26R3CmypZXvVMN8WAD4/6XACkD2F/H+cGRx9rtZUxYQUerFA20Zo+4hc9L+pAcgfb5vw9fBEXSvteawPDUM0FMny7+41H0fN78Wg2BdI4vxkAjVzVFxBiFaiEYSUTu9w9WMQogGIBiEaiAD56I0P+r4mzw0eDEcH8tCLOub74SOSulim5wwaLuqxODDHzQ5ukwZW6m+fX7LpSVbFE3Q+2oBzrqWVO5807BkiWJ6ukbYVe3qxtsZaQw2X9tXq70RlCADfSZUp3icFDCfXMGJHai6HPpcaThQSgtjBwRXrz6lXBayDXiw5wE8pUPX9YtrdSrqv+86nzgSyX3m5aHssbZPlJ/PjUzJ98hxBCArCcHSg7MfiXrGrQywahDxy57lA/NsbQo2y6tYb+CEAViBLVUjN76BH2j5erz8ddV5v7BT5yUHWpRDaLuuer9rPLrtqVW1MGALALwceDT0GzMcD4hpelY2GEbdvvmqdgKy0MiPfxX+nCuQz2y8H6qJjnnXRHuL3UCUC1OaNudKB6cwJKV14fZtEejt99XeeHZ2Q5KlRvnnIi+HoQEWPyXrva7/zWltl+blSvFChjlZp3raBHwBgBbLMCuFGQ4/v4/+XT4p8/pOsSyFeekPkS99N2zRs/nzfWou/C2EIAK8fbHrNp4clTxWIBh9OAFKOUCJf2wg9qbm375JVDRJkOmD1W0Nrs80U0btX9jFLBKjKPjJtTkgQh7aW26oPbZKGiH+6yc6OXJbkOxf5xiHvMbvA4egHmQsClHxcHpAADlKP3LBWwl2r+QEASpRtVoj5uJWqEO+fe/3kEZGN61ibQujsEJ0h4qLXjI5U++9BGALAqweZfrFDkP5cX+MMJ9dAopxVGRqAaBCSrW0EIUh22mpDL7Bk8SA9xoGK7iv1zXif81or4x7bPcLCrIBezNGLOn6RjI/K7HmOScitkFafYl90OViLE1KgDo/Nmk4HapC6324iALwmS1XIPo7Jnt3HHxD7WpVFZ2J86wHWpRBeaQUX4lsBwGMHlv6enk16N5UeYHozP6+hx64tV+RLO0etO622b5iWSGihLH+2Vjf89c8/IP9wsk2Sc+lZsZ7I3G+e1zxk/rnbaD2zhF6A3bn5qvxLYlVmiLTb/H72JhKJZ1kloOz7S91X7nbvH//m7rNl2ycGkfY81zYfDY3ev19I54LMnL5AEIKc9Hj8o39dI9/8Zaf85lxzri/Tk89viH3R5RVWDVg5871vt/l0m/N7qO+R162aq99jZ3NYmq7v4BsPlEjvlD/0TNqmuHlM3sfKeFMikRg09/PauUT39dYFfp0fcnMPa5NP+yp7bsiv44ubtFx5Wte0qsctvhUAvCBfJYiGEZ/ZPl72KhBHrsoG/bO0EmTv9st8kwqgJ3x60eXl062ZnzrCGzqgrPvMAXG14VBaEaLBJEqnF3Oarl/j+b+nBiHTb43I/CThPLLTKpBvD63NNxz9iNgVnLTgAMp7jNaKzdec13r+ojdU1Ss/ztkCvMQrrYNQ1H6+33w67rxuWyVy9BH7GcvLMky96tUhVIYAqPVBpLenZ5MO/j0gWSpB9MLeF6IXZf/HLpS1CsThVIMcP3Xdks9pAPLIneekj4uLBdPvz64tkzIyEc6cI9JHhQhQtv2mXmT5odh30li0ck2r5lA6rQqJbF3v+aoQghAsR+eBfPUfN8h/fat9SZWry6D5uMc86fyOeVzmTQ5QZubv1Vnzfe+ApFpl6fviz/1R/d5YpTcRNLY08Y0HSvBcTOTp4+nHaPP4/CAr4/n9fNzcz+s+3qoCTM7aj9u2szb5RMzDxcxsWgBY9eoQwhAANWEY0Q7z4PG/mx/+SHKEIE4rrM1rZiryd9BqkEdfXC8Xr6bvCnUWyTc+8b41j4R2M6XRYfbdbXOZFSIEIkAZ9p3m01H3fvP2zZNWaIyVadq4RkJrvH07lwYg02+ekQU92wJcdC6IVmZ+71drl7yvcYmLfbfpl/ViLasGVI75nlfTSKuVpQaT29bNVOycptYiN3b6or0k4DV6Z/xXD6fdIa/26YV2VscX+/mY+fSXkrpBTVs/6fyQjRTK5aUtxY7+0g6QUrRd/pPmz35VqkMIQwBUXaq9y08lS0ssdwiirbEq8qYj2WhVg2QOEtWWWHrX1lfuOF/XfX2rRWer5AhEOsyD3AusEFDSm+4fuvedup/8+ifeJ7hdIe13rrNCvMwKQt4asSpDAPd7Gp0LotUg71zKeWe2NRckFhu6xzz+/pZVA6pyvNbAcb/zWo/TerNQvWlsjUhT12q+4UAJnvq5yEtvpG3S1tJPsDL+oNW15r5+xPxwj7PtRELknp2sTT5aHdJsPl75TdrmjmrdOEsYAqBqXC2x9MSgxf05vaCnLakqGYIobd30v/79xiUXDLQa5Gvmn0+bmfLKEYjcZv4cvG0e6IZZIaCofegBse8+smiAq0FIJfeZgXlDvnmtdUHHq2ZHJ2T6xPsiC4ReuEZv6vjyzz8g/5JYtqLpiPn4XCw2dIwVA6pH7251D9it11ZZ4Q3tEmpv4RsOFEmHbn/pu2mb9MaFz1XrzniUbV8/bO7r+yVVtX/hsj0k/A+3sDb56Bo9H0urjOqrVnVII8sPoBoMI6oBiA4S7Hdv14t52uv+7/40UfHBv3rR4C/+fuOSYaIawHz3U2esQATlp0Mj71/awudwaugYgML2oXpB5WH3Nv29Yr+1cloVEu5s8+zfT4OQ5KlRvlFYpHNB9P2MtsVaZkD6oPnYFYsNaVusOKsG1MSTzgf6u6q/u/Um1MG0YKAUjz61ZNMTHK99K23Gy/eeX9L6DDl8/pNLNg1U5djF0gOopNRsEG3rsqQaRC+S613N1RhQrhcMdEaIm3NXtf49UFnbN0xnG6q+x/zZeJq7X4C8+1EdmH7UvQ/du/1yXQ9jrSYvV4Uk46My894lvkmwFDEX5EEdvkrPcaC2zPe5epKTVtH50U1TdfPv05sJIj1r+UYDRcoyND2urSxZGX/SOWwMUy+Nzg7JUh3yHW1BVsk/l8oQABWTuvP/lLh6KCpt6fLY7hF5aOeodVJQSXoXll44yJwPondTV6MaBdfo9ztjvZ1B0ABy70f19+Rw6vfFor9H9zMwvSy8XBWiQcjsecJ62O9l9IaOf//jTZltJzMdNB+3xmJDR1g1oPbM30VtCRt3Xuf5/fWdUEcr32Sg2GP6VZFDP16yeR8r43v6HmzxJk8Nu068y6IU4m4j7aWe8+6v9J9JGAKgIlJtsY6L6wKe0ruZv/OpM1UJIfTiwRd/1rUkCNFKEG2L9f+zdzcwUt1nvuf/TTeNwd24oe2BjjEurunOXTRr2jiXtmSLLqI7ca6ZTYzJCq52DY1CMitHI0O0A3N34xdsSzNmpaHZqzAah8htO6MFzWCTzMWb3CuFhrW1holxY91BG8BKx4lvYzlg426DjTHs+VWdU5xz6tRbd52qc+p8P1a5uk43/fKvqvPyf/7P84QdiEE+9YXx9TfotfsgAAimgGGv88Dpr4TqmP6lmyL3O6lBuhqlEwiB6BxGvc5eGCn6WlU/kEVHjx570rqRbQlES65fj7K7dGsULZ038uwCFXr6pbwSSmqaPszIxJt9/uUplzW4n3Epx9qVxrR5Ky4+ai8IDA1lsgBUlV0W62+tD//SvV2Bhx/0/8GsWTJuWpvDbwDrBEJ8ZZkyq6m/czfzBPWi5753/mfmn37d7t6ctl4zhynnAeTtT3dad+vc+1EaplePskJmpG6O1O/kBEKufvIZT1DCqbeAMltfPjm7WF8QHTdXWxfgz1JyEogm6xx3pvtYPr/ti0z52EY4hlIiC6jMkbeN+fGrnk06dv+7sEsCoTbsZuqqijJfj8fOZ8tA3T6PsSmmdboxn1uXt8dP5zapNPSvNZ5h/UwyQwBUjR29VTbIgHu7skBUkurehRdr8nsUCoSoTJMyU1BfKlFWoKF6B6MD5Pan2o96UoRpmF5dUcsKuXrxcjYQcpHnOMmc8p46jynSbDmz+vDo0WOLWE0KRJv1Hj3gfnzi7IzGOIb+UTtPLlDJ8f1SNivEZyMZnQ2H7JBJUHaIzxNh/jyCIQCqwm7w+5ZxlXMRBR/UH6RWJamCAiH62fodaJQeHXpd+EqlpcI+4AEx2p+mTbZPSM6G3gvsw6ooar1CCIRAnL4g/vKePkMmWxJrkBEDYmPY+aBIkDM+x9Dmaab55jaeVaACAeWxDviDpYg/e5FK7nkdO5eXDYQAKpO16h7PppR1TfxgWD+PYAiAKbMDIcoISbm3KxOjlk1+iwVCaJQePXp9+IJkm+3XEpD0/ekr7m3Kqlvfy6KxaopSVsjV8U8zgRCVyEIyaXJUQRD1BSlSEksX12qOzipSIH5+6r5e8Wevx03znFmZgAiA8hw8mi2R5aLjOE3TG5cnO2TvobxAGAJ8+4G8TY+G9bM4ggGYElcgJFfiSBPcalBey1XMxQIhlJWJJvU9WN97wb/5eUYGCd6fdtjvgdz+VPsvBQ5RPVHKCrlybsJ8SiAksdRIWecuuhVpqjxqsmU0Vlq3EUYNiKVh94ORmGeHRK3MJBBl6hsx+I95m1nY0MCs51bnbtudxwqE7CE7pKSuucYs6/ZsSlvXx6kwfhbBEACTFhQI0cRdPQIQqq9NICR+Aspl9dq9EoAk0v60178fq1WZwaSIyiSOAiGXf0OgK4m0gMMpiVWiZI4upJUNMsSoAfFlBzJzE59x7hvS3DHLNLW28KQCZdr2XF5WwBDlsRJh0L3f33coGxhDcQHZIaGUUicYAmBSohYIef3dWZ5tBELi43v5pdR20kwdCdynKiOEQEjIopIVcnn0HIGQhFI/EKckVhHDJtsX5ElWjgINY9j5IM59Q6bPo3E6UC41zz79e8+mUeMroYTGZJ+/bXdvo3dIacoM6er0bHowjLkhgiEAKlYsEFLriTtNKvgbjaqkDIGQ+NBz5SupptfVZkYGCdqn7rTuBtzb1G+J/Vj1RSErRIGQK3+Y4MlIGGWvqhyWFnAU6Qsyat1W2yWxRhk1oKGccD6Ia9+Q5vYbzLT2G3gmgTKoR4iyAXxWs8ghOaznetA+t8s4+AbZIeVYm/Y87PBfJ1cDwRAAFYlSIEQXEZpUcNMEYi17laA69Lz5Xj+Pkh2ChOxTdXLnCf4poMt+rPrqnRWiviBqlE4gJFk06alzle/+rKvYavDM6kHronkRpTOAhjXsfnAmhsEQeoUA5VE2yNMv5W3eQu+vRPJkhzzzEgNSyqp7jGmb6dlU9UbqBEMAlK1Qc996BEKchulumjxUDwrEj14/a5aMuzeRHYIk7FMH7H2qZz9GICQc9ZzEcQIhX4x/yhORIPtPzs6UxPJnsPoo+KG+IE8yYkDjst7jw+7H75yfHqvfn6wQoDzqD/L0T/L6hBywswSQvH3/kHFlhxw/nb2hMAVC+pd6NqWs6+Z0NX8GwRAAlfA0953fdqVuNe0f/+UtnjITCspoNTXi66ElH5MdgsSws+x2urcpCMJ+LBz1zAq5dvlKJhBy9SJlz5JCGSDKBNl9bE6pklgqh7WaklhAYuRWhY/ErG8IWSFAeZQR4usTovf9RkYm0TzPP71DSvOVypIN1fz+BEMAlCWoue9TX/2gLoGQF0c6PKUmnEbDiDeyQ5Cg/WlguUGVi0M46jWJowDIp/8yRiAkIc5OtGRKYilztUg/AHdJrGFGDUiUXDAkTj1DmjtmkRUClEGT3OoV4jvmb6RPSLLZ53u5cz6yQ0rrXpC9uQxUc6EswRAAJdmlXAbc2xQIqUdzX104vDDindSqV1AG1Ud2CBKwP02ZiPRdSoqm5mmZiZxaUwBEGSEqkYXGp4Uaf/azrlIlsYas2yJKYgGJdcJ/XRMHrQvn8MwBJRw8asye/BX/9AmBw9M7hOyQ0tauzNv0YLW+N8EQAEUFlXJRGZel8+tT9/xZX8P0Db0X6va7oPoKZIcMMDJokP2pXs+vGFcgpJ5ZdknRMm92JiBSS1fOTRAISQhlqqoviBZqFCmJpYkQlcRidSiQbJ5J0Tg0Uc8cQ1tbeOaAIlQWK6Ax9na7XwRAdsgk9N+Zt6lqjdQJhgAoKKhhej2b+2rVpXsFlVZTr+9lTqHRBGWHMCpokP2pp++SU+JP/ZcQDgVBWua11/RnKhBy+TfnCIQ0OJXEUv8ylcTSxwXoJEWrQu+iJBYA/37g/YloBxl0DKVXCFCcAiGP7MrbPEQWKAKQHVIBNVJfdY9nU6+9WHvKCIYAKOYJ45q4q2dNe000+MtjbaPRcGMe9FqvmnsXXnRvSlkHvQcZGcRVsUBIPcoNJkmts0KuvP9xJhCCxuaUxHr93aLl14ZMtiTWICMGwGXU+WDk7IxI/6IKhNQ6sxKIk4lLxmz7UfbeRRlgWxgd+JEdUrkV+dkhVWmkzpENQKC+vuVp42perYk7BR/qVcplR0B5LCYRG9d66/kN46AH1Iky7DyrWFRukH1Y+FpuvrFmP+vy6Dlz+XcfMugNTMEPSmIBmKJR54MoZ4Y0zWjJLCgAEEwBEGWEjJ0LPAfg+I9CPNkh+w4xIMUoGNLlnQqsyiJZgiEA8rjKY+Wsr2PwQZMPqsntUEkZymM1Nj3Hvl4wD9qNp4G47U+f95+0KRDiy35CCFpubqtZnXMFQq78YYJBb1DKTlU5LJXFoiQWgCk67N63RNWMVCfPFFCAEwhRiSzfeQALIVCUfY6Y6x915G1jxs4zLsX4skOqUjWEYAiAICqPlXIeaFJ6zZKP6/bL7D42x/N4K+WxEuH+xZ/4Nw0wKogTOxAy4N9/1avvUtLUos65+oKoUTqBkMak7A+VxFI2iHtRRoAhQ0ksAOUZdT8osW+pi+aOWWZa+w08U0DQuUHhQIgyQkYYIZTB02WG3iHFrV2Zt+mbU/2eBEMAeNgNiTzlseoZfNh/crZn1ZRWU/syBtCgNGHsK8tGqSzEaV9KIKSONJETdlaIEwj5YpxjUiNSVqr6gvj7lflQEgtApUbdD4qU3KsL9QhpXURWCBCkQCDEGAIhqID1WhlyHwsOvkF2SDFdc43pXuDZRGYIgKrb6X6g8lgqWVSXk43MikzvJES9GrijPgIaqfcyKoi6oECI9l0EQmpn+rz2UL//tctXMoGQqxfp+9JoKIkFIGSeCdN3zrdG6/hJ03QgUJFAyEYCIZgET++QV99gQIpZ1ed52GFdbw9M5ftxlAOQY9feSzuP1SOknuWxXj4527NaSr9LvQIzqI81S8b9m8gOQdT3o3mBEAVB6rkvTZrm9htCLe+hAMin/zJGIKTBUBILQC34s8gmLjdF6vhJ03Qg4ByheCBkiBHCJI4Fet3kjgd7D2VfZwi2YmnepimVyiIYAsDNkxXyvTpnYew/eX1lr8olKUsFyaKAnC8A9iCjgqgqFAihz1FtNd98Y2jfWwEQZYSoRBYaByWxANRYbhX5mQhlhky/bQ7PDOBDIAQh2uV+nR1+mwEpRKWylnV7Nj1oXXt3TPb7EQwBkGGnmaWcx/XuzfGLM22+rJBxf/8IJASlshCTfSiBkAhomtFiWjrbQvneX3x0kUBIg6EkFoA6iVxAdfqXOsy0Wa08M4ALgRCEzJNlTCP14h64J2/TpBfKEgwB4HjC/aDevTn8vUK+Rq39xLp/8SdVO+gBYSAQEh2qdR6GK+cmzGdnPiAQ0iAqKIl1wLrdRUksAFU26nxQYh9UEwqChHX8BOJKAZD1f00gBOGxM41zr6Ux69Lx+GnGpZD+O/M2TbpUFsEQAHlZIZrEq2dvDl0UuFdo1vv3QX2pVJYvK+ibjAoitP8kEBIRavja3DGr6t9XgZDLv+H5bBRllsQaNdmSWKut2yijBqDKfhulX6Y11ckzArgoAKKMkDHv6Z8mru8iEIIq2+V+sO8QA1JI20xjVngDIpMulUUwBIA86n5Q794cvzjjrfce0EQbCeMrldU7lfqQQLUQCImW5pvbMgGRarr8uw8JhDSICkpibT969NgiSmIBqBV3aeBaozwW4HXwaDYQ4mtmrfMDLZIYYYRQTfZrKnfOeeRtY8bOMy6FBDRSn1TVEIIhQML19S1PW3e5Hgz1zsLQxYD6hTiUFaAbkm3p/M/8m9KMCuq43+wgEBI90+e1V/X7XR49Z668/zEDG3OTKIn1JKMGIGTD7gfv1KmJOuWxAC/1bHjmpbxAiCarCYQgTC+4H7z6BgNSSLVKZREMAbDB/SCgP0NNqXyFG1khkKXzP807DjIqqAc7K0kJzAOeHWnvBQIhddSirJDWlqp9v0wg5A/0qoo7BT8oiQUAwSiPBWQp+LHtOWP25DewJhCC0Nml1z5yHis7CcFUKqt7gWdTelLXjgwlkFz2pN6A81gZGAGTztkThMvT8lYtBW2bCv1sf4ksX3kkJJSylXRzlTZJMyqo0z5TgZBe93YFQZQVgvpp6byxKt9HDdI/+/X75upFMhLjTMeK3cfm5C2wCLCdTBAASUR5LCBL/UGe/klgo/Qh67bFbnINhE2vt836QL1qVC5rxZ0MSpBVfcYMXn+/qmLDg9b79EBF144MI5BM9qTeE+5talKtetqOEuUkQuBdualAiK9xNhJMwbKz10uo9TIiqMM+k0BIBGkyZ1r71I9XBEIag0pi7T/ZXqoG/7B120gmCIA68awy1zVXoQVpYR03KY8FZFfgD/5jXlksYbEEak2N1Dc7DwiGFKa+IYP7PZtUKotgCIDMxJ0m7DR559wv9T3OU/vgR3H3LrzEE4kc9Q1x95NRvxsa3KKG+9NXrFvKvZ1ASDS0VKFXyLXLV8xnZz4gEBJjOofZ8VpnseboMmqyqzwPMGIA6kUrza1zi7r87KbmaZTHQuIp+KHJ1IP5vRmUBbKR8wTU4bgwah0XFCjPLLzTa3PzmmxZKHh1zc2WynJlc6Urvn5kGIH4cgU89Oa/yd5xpoxvwi6uarlCCtG3eG7eJKVe78OMDGqwnz1kXEFkZaw9svxDAiERoEmdls62KX0PBUCUEaLMEMRPJSWxrNsg5S4AJJkyQiiPhSQrUhZLE9Eb6Q+COlJ2yPPOg8NvZ0tCId+ybs97OKVr9kreuwRDgBiwJ+NSJjv5u9T1cdWpb4hTmirbp+GL3OeCghPVClgE9R/5pHiJCyTMHfnBkKWMCkLe9z5on5B6AiF/8/X3g16PqIOWebOn9O8JhMRbBSWxtjC5ASDpmjtmTfm4CcTZj18NbJIuQ4b+IKi/A8YVDNl3iGBIIRoXjY+LrtsJhgBxZNekV5Ajbd1utz+uStBDE3hOoGPx3M8z25xAxjy7OXU96fciEwSl6DXiKueWYkQQ4v54wH0y6uynCIRES8vNk2+cfnX800xpLAIh8aPjwA+PzclbROGjCQ1NbAwxYgCSLlMeaxHlsZBMY+eNeeYlY46f5lwB0WWXUNRrUdehmcwHvXZVFgpeKpOlEmKufj/qG/Jk2deQDCFQH9ZOLmWuBzv6TRXKWznBjt75n5kbM0GPy7kgCNAIFLQ7cf1hmhFBSPtnnUg94d+/PvXVD+oeOMZ1WuHa1Dq5U9kr5ybM5d+cYxBjRhkgKonl7h9VwKDJNj9lhScAWGYsviUTEAGSRtkgew8FNknXKvLV6tXAKCFCfmrsYIgcOWHM2pUMSpD+pZ6+P72aYy33/UwwBKgBX8bHUnO9t0fFnOCGAh3z2r6w768wQYdEcJdts99bKU5gUeX99fPuE1DRPlcZIU4JQUTD9Ek2TicQEk/7T842L47cVKokFvW+AcBHpbGmtd/AQCBRlAWiJukBvUFECyaeZJQQNdbr8oB1ParFPJkyzQePEgwpZMWdnmCIpE225F3p4yLDB1SfnfWhN6IyPiZd6kolgdxBD3c/DyCJsqXUbnJv0nttlJFBFfbbOuE85N9fq0m6mqWz742Wphktk5rYufL+x+by7z5kAGOkgpJYmtgYZMQAxMSofR5rzpyfHtoPUbP01tvmMNpIDGWAKAjimyR1sGgCcaDeIQP6gFJZhamJuo9KZQ2V828JhgBVYDc4T5ts8EP3HZX8eyfbQ+Wt7rCDHmR6AMHvFZ8Uo4Iq7cOVEZIXCNl6HxkEUTT9jyrPCrk8es5c+cMEgxcTygBRJogyQkrQRQ9NTwHEzahzHlsi423SVBZL5bGApFBDZTVIDyiJJWSDIC4olVUG9QxRQMTVCyhd7r8lGAJMgj1x9qDJlrzSG67s4AeBD2DyAvrfpBgVTHF/rn34K/79uIIgCoYgmppvbqvo6wmExIt6gqg3SBklsRQEGWbEAMRQbgHG4pD6O6ph+mR7awFxcuTtbDbIWPAaJp0nbKS0MuKCUlnl8wVDOjRXW07mF0dGoAxTyfzIBj4+te4/z5T4IfABAJHZtw+YbEZIjgLWCoTcu/AiAxRRLTe3ld0E9toXV83nv/uQQEhMqBSWSmKpNFYRujjcxepOADHXcf3c41oox8rmjlmMMhqaJkHVIN01Geo/X9CiiSFGCjFEqawyqG+IssFctGidYAgwGXbt+LTJ1px70FQQ/FDAQ1kfus/2NwBQTQowumrH9zMimOR+Pq9RugIhapR+R0grNFEdLZ03lvV1CoR89uv3zdWLPJ9RV0FJLF0YbmF1JwAUpj4h0+kTggZWIggi263bICU0EWOeUll6ra/qY1D8uhdky2W5SuOVNT9EMASw2QEQBT6cAEhJmjjLBj0+s7M/mHABwkYja1RhX5/XKF37bwVCeH1FW7mN0wmExMfr784yO17rLFUSa9RkS1wMM2IAUOQ4afcJKTeDEoiTMoIgQybbG2SU0ULMec551TeEYEgwlcpSqTxbupx/QzAEidfXt1yBjw2mjAAIwQ8AiPX+XgEQBUI82X7qDfLI8g8JhMRAOY3TCYTEw9mJlkwQpERJLGF1JwCUiT4haETqmfDqG0WDIMMmGwQZZrTQCHTea1276vWc1uMir/3EW7HUEwzJ9AQttS/gKIlEst4cKevuUZNNOytaAksBj/sWXqLsFQDEe7+v/f3z/u0KgqxZ8jEDFBOlGqcrAKJAiAIiiCZlgLx8crZ5YeSmUl+qixgangJAmVrmzaZPCBrnfOGSMQffMGbfcMHG6M65AkEQNCqVyko77wcFRJQFAa+AMfmm8WXW5B0vGTYkiZ0F8qgpkTqlxrn32gEQGp4DQOz3/YH9QZ766gcEuWOkVON0AiHRp5JYu4/NyWSFFKEMEAVBDjBiAFAe9QlppU8IGoCaRSsAokBIEdZXEARBw/O8vt8iGBJIjeW7Oj1B03TJ60qGDY3O1QvkCeuWKvR1mhC7f/EnmUAIpVIAoCH2/9rnv2IC+oMoEEKwO16KNU4nEBJtCn4oCKJgSAmDJju5QUksAI18fpL2n5dMRaZPyJfnMbCIrTKzQGTIur1AEARJYL3OR6zjxaix5zGVGfJthiWQgkQHr+87ejUPXOx6gmAIGvkkU0GQzSabCRJYCksTYQqAfG3xBJNiANBYxwAFwZ839AdpCMUap185N2E+f/dDAiER9eJIh9l/sr1Ug/Rh67ZFF32MGICkmeo5CQ3TEUcKgBx+O9sY2l3vP4AmNIes2y5KZyKBdI48oA/oG1LYXd152WS9pkipLIIhaDjlBEGUBbJmyXgmCwQA0HDHgZ32ccCD/iDx1dIZ3CtEgZDLvznHAEWQGqOrQXoZJbGUCTLIiAFA5VQaq9BiASBqKgiAiBZI7LJuB8gYRYIdNq5yz/QNCRYwJmlDMARJYTfILVgOSyuC1/deIAsEABrzGKB9f15ZLO3zVRZrqmUoUD8tN+eXyCIQEk3KAFEQpIySWEMmmw3CBAeApEm7H8yb5LWpmqWraToQdQp8aNV2GQEQnROoZ9guskWBjGH3A/qGBAvoG9Jf9NqSIUMjsOuuaiVwr/9zSjtWFshDSz6mLAoANO5xILAsljIBFQhh/x9fze03mKZW7ynrlfc/Npd/9yGDEzH7T842L47cVKokliY3tlDvGwCyJrNQL9MwfVEng4fIchqhHz6RzQgpQQGQn1rnBkOMHHCdSsPRN6Q83beW30SdYAhizS6JpcmvB/2fIwgCNKb3Jzh0Ie84oGD4gP9zG3ovmPW9LDqPu2ZfVsjl0XPmyh8mGJgIUUmsHx6bY94531rsy/Rm1ErPJxkxAAl3u/uatVLqD9Ka6qRPCCLHKYO171A2GFJCJgBiKIMFlKKFRCl9QN+QwpQx484+06L5QouvmFFCbFkvbNWDV0msvL4glMMCGpev/vxhRiTRxwFlA75ifKURKYvVODTRozIgDgIh0aIMkN3H5phfnGkr9aWa8NhC41MAyMidt0zmXEUZIcoMAaJi7Hw2AKJSWCWyQIat2wuGAAhQCc155BaAK9DYvYBB8QsoH1awiTrBEMSOXRNe2SBp/+dUDuV7yz9kAgxoUCVKryBZx4InTTYg7nHvwotm633nyAhsEM1zZuVWvhIIiRYFQBQIKbFfHrVuGymJBQAeudLOlZ6vTP9Sh2eRAFBPTiksBUFKnAs4jdBHGTWgYp7+OafeIxgSJGBM1DdkMOhrCYYgVgplg2gV8CPLP8xMggFoXAElWGisl7zjQMoENEnXZIIyAtcs+ZhBaiDNHTPNtS+umstnPjBfjH/KgERkP6ySWCqNVcJ2XYCw8hMA8uSuZRfP/bzsf9Ryc5uZ/qWbGD3UnUr1/PjVkiV7hqzbCyyIAKZG7yHrGjj3OFOCro9xCaLsENd+qbfg8ZShQhwUywbRxJcmwFgFDDS+M/nBkFFGJVHHgsCAuLIBt913jqzABqOMkGntN5jPfv2+uXqR57belAGi5uhqkl7CsMlmg7B/BoD8cxnP9ey8Mss6qyzW9NvmMICoqzKCIDr2qwwWiyGA6tIi0Mzkfhn9eBLLFwxJaS456JqEYAjicMKo2ngKhDD5BSTcO+enex5bBzYyQ5JxHEiZAgFxmqQ3Lk38EAiJhtffnWV2vNZZTkks9QU5wIgBQEEp94NyelxqccCMxbfQMB11o54gz7xUMgiy3ToHGGK0gFDkgiE0US8soFRWrwlYQEswBJHW17d8p3W32b9d2SAqiwUgWXyZIcOMSCKOAwXLI6o3iHpFoTFRFqv+zk60ZIIgZZTEUj3e7awCBYCSlnoelHEeM+PL80xTK1M3qD01Qx/cX7QnyLB9/Oe6DAjXb90PFKDsmsug+BVoop63UIsjKiKpr2+5Jr0OGV+Nt7hNfmnyQJO3n1yeZkbOzshtK0V/p1KmVfpLdWSV/aJtZMEg0Sfj1vvI1zOErJDGPg6kDOURgbrtb18+Odu8MFKyNv2wyWaDsD8GgPL0uq/5Smld1JnJlARqbd8hY/a8mg2IFDj+EwQBakfvtSecB2PnCIYEaZtpjUtndnxs/UFfRzAEkdPXt1wniAqEeFYBqzm6AiFRnvxSGYkTZ2eYkbM3BDV6LptWYuqW/Z6uN7b1tysQtHT+Z6bXuic4giQJCCQeZlQa9jjwpPtkzz1pQDYIEP65zO5jc3LnIQUoA2QL5TAAoGJp54NS13JqmN7S2caIoaZUgkfZIAX6EowaSmIC9TDqfqD3Z0AWBCzdt3qCIYFN1AmGIFL6+pYPmOxKYA+VxNJK4KhOGrz+7szMfYla2lOm75/9ebMyjzUxqCDR/Ys/ITCChqf3mc8wo9JwxwBNEOwMOmkhGwQIl4IfCoI45xhFUBILACZ3nuM5v9ECt0Ka228wralOBg01owwQZYIoIyQAiyCAOlITcOsY4nm/IljPAmOOvJ172BHURJ1gCKJ0cqggyIB7mya9/ubr70duol8TBi+fbDe/ONMWegCk1O+x/+TszE1jpKDI/YsnmCxEQ/JN0A0zEddQ+39lAioTJK9HFNkgQPheHOmwziXaS53TqBTWFkpiAMCkpd0PFhe4xlVZrNbFtzBaqBllgzzzE89qarft1m2Qay+g7jxN1L/NeAS6K7hvyKh7A8EQ1J09CaZAyIPu7ZrcVyAkShP7KtOj+tnl9P1wW7Zsmenq6rJuX7Lvu4p+/enTp8z4+ETmfmxszJw6darkz1BZrt3HWs2L1u+ngMhDS8bLqkMLxEFA5tVPGZWGOQYMmGw2SIf/cxt6L5j1vVx3AWGe16hBehklsZQJMsiIAcCUeGqXBy30aGqelskI0T0QthLZIMPWbaN/RTWAusldGI+TGVKQMkN88pqoEwxBXRVqlK7JfK0EjtJkQblBkPb2drNixQqzbNndpqen23R391T88xQ88Tt+/Lh9ezNzX/CE5vK0XLaIxlElxsgUQdwFlMiiTm389//a7ysIkvZ/TpMD37P2XZT/A8JRQUmsIZPNBiEqCQBTl3af6wSZ8eV5NExHTajnwLYfBWaDsAgCiKYR5zhSoKcPTHlN1AmGoG7sibBXrFvKvT1K/UE0WaBMC5XDKkaZHv39/WbVqlWTCn6UQwGSbJBkk5mYGM8ERA4ePGgOHy7cQ1q/tyY61iwZZ3U1YsvpleM+CWCFUqz3/QVLYilwq74gUe0RBTQCLZbQuQ0lsQCg5te+uSzY3oB+Ia2LOgmEoCaUCaIm6QG04GwjiyCASLrAEJSna64nGJLyf55gCOp5MnjIfUKoSTAFQpTNEAXl1M92AiArVvTX9Hdra2vP/EzdFBg5fPiI2bPnR5mSWn76/V/IBHRupO4+YimgRNYuRiW2+34FQJ4wASWxyGQDwqXs1h8em5Mpq1mEJj92HT167ElGDACqaoP7wb0LL3o+2TJvtmnpbGOUECqVxVIQ5OAbgcd/skGAaBt1P1B2SPcCBiXIsu5sXxVbSgsy3UFegiGoOetFqN4g6hHiCYREpVG6Jgmefa2z6GSBAiCbNn2nZO+PWlBgRL+PbsoWUVAkqIyWsly+//N5mRXXWnnNhCPiQiuYfSfqlMiK334/be/3U/7Pab+vklgEaoFwKJisklilslztfesWMu8AIBRp97Wv+7q35eY203rbHEYIoRo7b8y25wLL6ygbdDXHfyDyPO9R+oYU1h3cN2Q4d9xliFBLdqPc593b1OT7qa9+EIlASKnSEVEKggRRGa3du/+2aFBEf6NW2kdlzIFitJLZ19j3AGnbsdrnp+x9ftr/OUpiAfU/r3FdWG2kJBYAhHo+lOuR6c4KUVms6QRCEDIFQB7Zlc0M8Rm0jv9bGCEAjURlsnwIhqBuJ4EDxhcI0WS8MkLqnaVQatWkggxbtmwJrR9ItTlBEfUUGRzcacbHxz2f1+Tyd3/WFan+LECQF7xZIUKJrPhc9Ksc1kDQ58lQA8JFSSwAiJRH3Q/uXZidkVYgRA3Tm5qnMUIIzcGjxjzzUuA5gLJBhxghIDZG3Q8U5FQ5KOQLyAy53f2AYAhqIsqBEAUGHv/lLYETBu3t7WbTpk1m7dp1sRx3ZbL0968we/bsMXv37s37/O7MRMl06vQjkjSZp5vLsHXCPsLIRHpfr/KHm+2L/ry+ICqFpd5FyggEUH2UxAKASHrQ+UDXXMoMUQCkNdVJIAShKtAoXcf+1VxXAfGi83brevv6eT9lsopSQMRVFrDX/TmCIQid9WZ90mRXCOfoBFATYvWegFcARH00gspHKLvisccej2xJrHKpp8jmzVsyzda3bdualyWiCZMz1jhEITAFuAVkhWxnVCK7ny8aBKEvCBA+SmIBQCTPkRQISTmP7188kblXRogyQ4CwPPOTwEbpCoCspOwwgEanUlkEQ1Cvkz9lgwy4t+kEUIGQeisWCFFfEGWENBIFd1555RWzdevWvF4izliojwgrthEFBbJChhmZyO3jiwZBtD9ROSznwh9AOPtLSmIBQGRt8F4Lf2JaF3USCEGoCgRChqzzgI2MDoAk6FlgzJG3cw89cxXkZCI0UQ6EKBsiKBCislg7duxouECIQ1ki6iWiYI+fJlH+7GddpSZTgJogKyTy+/cOO+vvNyab+ec5uVCW2YbeC+bvv/UegRAgJE5JLJ3PlDh2D1u3uwiEAEDNz5dSxlUiSxmy/93SG01LZxuDg9AQCAGA/L4h1jE57XxMZgjCOvGLdEbIjtc687YrELJ79+7YNEmfCgV7VP7r6aef8mzXxIomVVQyS2VtgHp4/d1ZZIVEd99eNBNEQZA1S8bNQ0s+puweECIt6lAgpIySWOoLcoARA4C68JSKXnWPMS3zZjMqCE2BQMh2FkQASJq2mXmbUs4HBENQdXEojeXX09OTCYQocyIp1Fy9p6fbPPLII54+IppYUUP5v/vGGJOZqAtN8PlP4BmVuu/XCYIAEaDzGJXE8gWMg2i/OUhNcACo27lTyn1N3NVpzP/wb29gYBCaAoEQ9QkbYnQAJM2y7rxNKecDgiGo5gmfJsgUCHnQvf2R5R+aNUs+jsQEQlBprCQGQhzKgtHf7g+InJ1oyWWIMLGJWnpxpCPz+nM5QFZIJC7kCYIAdaRzFzVHV5P0ErS/1MTHKKMGAHXlyQr59gMMCMLz41cJhACAn7JDJi7lHi51PiAYgqqwAyGHrFuve7uyQaJQL16TCM++1kkgJEChgIiCR8oQUUAEqAUFQXy9QrSieQsjU5d9esq+iB8IPKkgCALUDCWxACB251Fp48sKWdXHuCAcB48as+fVvM1bCIQASDo1UT9+Ovcwt7iTYAiqcbIX6UCIaFLf31xUPTOSHghxFAqIqAyHJmCU3QOELaCXzy5WN9fl4l1BkHTQ5wmCALWjY7ACxCVKYn1k7yufZMQAIDJ2uh9sXsOAIBya5HvmpbzNapY+yOgASDotRjDXgyG5OWuCIZgSe/XwKybCgRCV3fFPJKhZ+o4dOwiEuCgg8thjj5mtW7d6tqskxx1zP4/M84nGpNeZ7306yuRezfbjCmirvKGCIKmgr5nfdsXaB3xCEASoAWWAaCGCMkJKUBbIFoLGABCp86on3dfGqlm+4k7GBdV3+vfGbHsub7MCIRsZHQAwpmuu5yGZIajKiZ5O8g65X1CaJFMWQVQmzp1VlX7PPrsjM/kPrxUr+s1jjz1unn76Kc92TcosnnvZ3GHdgGpTeawX89+nnMSHvw9PmWwvkAET0A9EFARZ33uBYChQIwoMa39YRkmsjfRTAoDInVulja9XyA8eZlxQfaqB//RPPLXwZZhACABcN78z7zjda+0nRwiGYConesoI8QRC1F8iKhPmmkgIKLtjtmzZYpYtW8aTWMCqVavM8eNvmoMHD3rGUj1XnvvGGAOEqtuR389nkEm+UPffA9bdBlOgFJYsnf+p2dB7IXMPIHxavPHDY3PySnr6UBILAKJ7ftVhXx/nbHogb1UqUBVPv5TNDHEZsW6rGRkAuC7gGJyZwyYYgsmc6A1Yd8+7t0UtECJaWakV5279/f1m7dp1PIklKDvk9OnT5tSpU7ltmqBRybH1vR8xQKji+zSvjN2oddvOyFR9v50yJbJAtB+/d+HFTCaIMkIAhI+SWADQEOdZTg/N3DmWymN9+wHGBtW3z3qlHXnbs0kX6MoY5UIdaPxjDSrQlb8+XhWOhgmGoNI3n5rBbXZvUwDkqa9+EKnJM02uqtSE503Q1ZXpiYHyqJTY+vUPexqqq+SYJkspl4VqUIAtoIwdJ/LVPVlSL5CiWSDadz+0ZDxTCot+IEDtlFkSSys9t5AtBwCRPt9SICTXJ6RtpnUt9V3GBtWnbJDB/Sbo+mmE0QEanqdXc/cCBqQUMkNQjZM8pf2m3ds1Ka6MkKhNoAWVx1K2Aw3TK9hpdHWZTZs2mZ07d3q2q4yHnnNgKjT59/gvb/FvpjxWdfbX2k8rAPKgKZAFIgpsqim67oEwj8fKeojq+UI9VFASa7u1TxzkVQQAkb5GzguE7H40ew9U9frJ7hMScP10gNEBkofjTPnj5OqvdLv+11Li4J4y2cmUfpOdUEkHfNnwtWvmo2vXrp24evWa841TBb6lotUX9G/08Ztv/orVv/E4ydPJ3Sv+51WriLfedy5yv6/K7vjLY6kPBn1CKqeSYocPHzbHjx/PbdMkjia2aKiMqVAgxPc+HbFO5LcwMlPaTzsBkELH4EwWiAIgX7Pev5TCQi2Ox075J03865bkPjTa56kk1uvvzir1pUMmmw3CeTIARPfcKy8QIpu/xWpdhGPPq/l9Qrh+AhKFMlmT0GMdk4+fzj1M6X8tBQ7saevuCVOkrMa1a7pd0y19LRMDyUzAlOJ8P31vc/fdXxk12RrIh99881dEs6N5kqeSWDv92x9Z/qFZs+TjyP2+Wm2+/6Q3+6O9vT3TNB2To4waf7ksTeZoNTkrfDEZev34+oRowo+Gf5Xvn1P2sfdRUyQAIgpe3rvwElkgqJmgMnjzEhyAU2BI5yclSmINm2w2yDCvIACI9DlYYCDkBw8bs6qP8UH1aSJPvUJ8108bGRkgUTzHHPWmwuS0BBzU1Ri7YGBDARBlgNgBkKlKmWz/ic2uwMiuN9/81ShPTSRO8PLKYmnyW9kgUZ1Qe/nk7LyJhs2bt0SmPJYyLCYmxs2pU6cDP9/T0535XaOUxaJyWcoQ2bPnR7ltGmONNc3UUSmtEvf38zHZOrfs98vbN/fa++UN/pMhP5UlWrNknMAl6uJZX7lKLaBIYjaSskAUAPZnrProYKpMkCFeOQAQi3OxvKoJBEIQpoA+IdvpEwIkzk0MQeW6vZkhaf2vxXVQD1zd4KhyECSITiacwIguBrcTFKnbCd6AyWaDeFKwotgo3S0oK0QT+SqRVS+nT58yBw8ezARBTp06VdG/7enpyQRF9Pt3d/fUdWzVO+Tgwf9kxsbGcts01g8t+ZhJVpRNK8U1KRhwIk9mYOmL7pIlsET7ZwU/1BCdMlioF2VBuPth6Pxhfe+FRI2Bgh/ql+LLgguy3WTrfbO6AACif06mc7Hn3dfJTo8QSmMhLD/OL481TE8xIJFy8/Ucc8rXHtBbxb1MLS8QorrOmlQ58puZZmRsRi1/1wHd7r77K5kLRHqL1OzkTs+/giBp/+e0olOlsaIsKCtEJZ5qTZkfe/fuywseVErBE9327t1rB3X+1Kxbt7ZuWS6bNn3HPP30U9f/TrJDUAFNDH7/5/P879ED1on8k4xO3r7Y6dH1TVOiCbo4ARD1AtGkM1Dv97p/YcK2+84lJnDuHBv9JcICDBuy4gAgTudnOmd9wr2NQAjCNnbemL2H8jZTHgtIppTzQTvN06ekxXVgzwVCnFJIN07/wvzv/+XmUvWNw/REU5N5YvnyfzPS1NSki8UT9sXjKBePVT2x00SbgiAD/s9pkk2vhag3PA3KClFWRS3LTTlBkH379nr6a1TlJGhsLFOmSt9bJavqERRRhop+B7JDMJn3pxqm+44lI5zIe/bDTvmrb5oi/brc+2YCIIgiZX+53+sbei8k5jWqMoD+vz+Azl830hcEAGJ1rZxXPloBEAVC2piQQoiUFTJxybNpO3NhQGKlnA/oF1I+/4IF9UlvsQ/uj7o/8Tdff9+cPjfd/G//+Y/q/kurLNcXX1zrnTbNWLcmrZB9wv7ldTdsX1T+1mQn1kapm1jxid1m+/nPW3msbBCVtYjDRLcmIPyTD+vWravZz1cprMHBnVUPgvjp+ztBEfVCqXUJsKDsENVDV3NmIIheI8oIcZfMMXbD9CSXhbGbn+uiut++T5X6NwRAEHUqCaVjgvs1q4B5Ev5uZYKUKIml/d0usuEAIFbnazpHe8V/rbzqHusieg2BEIRLpbEOvuHZNGrdKI8FJPd4dP06q5MxKVdbgTJZnhIcWsGnQMhfHZ4bqV9e/Upk2rQm9+Z0wAtEdyP2Redh+94JlIzyMsitQFYAZCDo85pk+97yDyOfDeL2ckCvkBUr+kP/ucoG2bp1a6YnSC0pKKKghEpx7dixo2ZZIkHZIS+O3EQwBAVplXRAIGRl0vbHdvBD+95+U0bvD/f+WMGPXmt/TAAEUfdDX08gldds5MxBBXu1j9OCjBKGTLZBOnUlASAe522aH9EizM3+zykIsnYlY4TwFWiazrkEkEye+YOuuQzIVCgY4pkxvnPepUxprCgqEBAJ4pT8SvtOanTnDpTIsP7X6OUK7BO6AZNtwtsb9DWasNDERdwmtrUSUzXK3ZTBEDY1R3/kkUdCzwYpRkGY1atXm927d9esyboybnbu3Jl7rLHXcxCn4BlqQ82DAyYJNyYhg88OOjvBj7QpM/ih/bCyP5bO/yxzTwk6xIXe6+7Ap9N3rlGpSbxKRZYoiaVzyy1kLQNA7M7hnvdfM3d1GvPsd+gPghpd55/O3tznFNb5xBAjAyTWUvcDymSVrys/i6a3xX2Q14Xrf3xjTj17hJSkgMiNrVfNitSl3CRshfyBEnfZLefCVXThesFkUxF1i13AxFWDvmAARDTZtmbJeGx7P/zizI2ex+3t7aa/f0WoP/PIkcPm6aefrmsgxKHfQUGZWpXNymaH7PH87XoOCIbArUgg5EADXjR32PtY7W/77Y87yj6rsd47vXbwg+wPxJGTIeGmfmONSGXA9Lf6F2H46LxxO5MWABC787nNxtckXVbcacxjD1MWC7WjXiE+2xkVINHSzgcE5SsTkEXT4QmGvPXfZuSyL6Js/NMm8686LucutHURrtWIZ6zb+xPN9n1LqQvVUi+wdMAJkvsid9T+2Ama+LfXLHjimohL2bd+U2YDXvUEifvqY3d98szJ6ooVoZaNUn8Qd9+MSLwn7LJZEnZARGOrMdY4eJ+Dxpz4QuWKBEKGGuRC2Ql8LHXte8umgIfKXin7Q4EQsj8Qdy+fnO1ZSKMMU51jNBKdZ6oMWDl9QazbIGUsACBW53c6r3vef06n4Mfmb1nXV32MEWqnQFbIMCMDJFpu7r6HYMiUeaIFcQiEOP7jGx1mcedl09v1WWYiaWlmYunTwItXXaDr4nXiclMmUOIET6Yg5TpRShc5qfJvGjWuYEmBi+gTvm03mcJZHRWtPs6c0NklWFSDvhFW8msS3p/JtGrVn4b281QaK2qBEDf9buqXsmzZslB/jsbYHQzRc6DJb3qHoJECIfaFsbO/rzjjw6F97eK5lwl+oCFp/7/f1bfLKbnZSH9fBX1BttOfDgBida6n8zrV/x3wf04lSH7wMHXZUXuvHs3bRFYIkOxjVdr9+C5KZE1ZLhgSp0CI46+OzDX71o4V/Rqn5EjQxL8yR5wMEt1XMVhSSMqUXkH8YLV/aCPXoH/9XW+ucpiBADUNVzmqqNu2bWvoPUQ0xhprdyP1E2dnEAxJuDgGQgpk1pWzry64v80GPz4vGKQHGskr73jLq6rsZqOcZ1TQF2Q7KzYBIF6sc0CnJJZnoYuyQTY9QJN01MfYeWMOvuHZNMI5BpB4afeDnlsZkKnKBUOuXYtfMOTseIsZOn6TGVh2YVL/XiUcdFta5GuccghOwCRzNDo7I+/zUaK/6Q57FbJKsTRyDXp/iawwMyIUZIhCj5BSsiWznjYvvvhSqD+nv7/f7N271/dcUCoriTRRqECI//1oIhIIsfsnOUEP3S+179NT+b6a8M2WvPosc69bo5UGAor5oKnNDB1t87wn1H+sEc4t6AsCAI3JXmG70wRUX1BvEJXFIhsE9fLqG3mbdjEqQOL15663ZtIzZDKU7ekqP9jfYl/MpWIYC8n4h//aZr71x+GtQnRW9boDJusLfK07MBKUXXLm/PSiqwsL9TkptLJYf7NWH4sm4ZwVyUnhlEDz7CH6+0P5WWoYfurUqdiMjX7XwcGdmabqYVmxwhsMccrRsRI+WfS8f//n84Ky6WoSCHGljKbsm7u0YLpaP0dBjnnWjcAHkNXcMcu89EanZ1vcs0Iq6Qti7d+e5FUAAPFhnTPqPFGZIAP+z3VZh7PNa7LBEKCeDnpLZH3Eogsg8ccuzyLO/qWMSTVkgiHXrl1LxfUP0ETca7+dab7e/Undfxf/JLBKUiE8IwGTFZqgrzb1Cdmz50exGx8FKtRMPaxyWcrCaW9v92TLEAxJFk0cPvtaZ1UDIfaFqnNMcn98u+vjSfXuKIcT9FCPj3ltX9i9PnhNA27TZrWa87M7PWUc9N5Z3xvPnuEV9gXZQnN0AIgPeyLJKYmVxymJ1TaTsUJ9HXnbmLFzeecdAJIt7X5Av5DqUDBk5Nq16q2erYd/+K/tkQiGoLZOuMqVSVglsnbu3BnbMdLvvnv334b2/TXmhw8fzj1WCbn1vDQT8v67wTz+y1v82VmaINwSFAhxZXA4gQx3cCNlJtmjYzKc8lbZUolfJDKzDpispuZpZsbiW8y+f/JmZq7vvRC7v0X7r5dPzi63L8hGmqMDQLwU6guSuY6hQToi5iAlsgDk+6b/2IWpUzDkRFxLZDnOnJueKS9FyZJk8a9GX7bs7qr/jOPHj2duceX8/mEFivzBkCj20EH17T85O7OK2keBkJVHjx4bsQMfuimJ02lOXjNOdodTSvDGzP3lXBAEwORkAiFfnmc++aLFc8Gu99b9iydi9bcoC+TFkZvK6QuykcalABAv1rnogMkGQfLOQVUS6wf/MxNKiJaJS9nMEJcRFmEAsDzofKBeIQTwq0NXgA1xgTcyNsN8vZtgSGJOFi5Py5vACGPCf9++vbEfK5X4Cis7JGjMFaRiwrlx33dFSskoGPK83aw8FE7mhrtf0rxMdscVz+cBhKN1UWemRNa+V7MX7Q71CokLBe1fGLmpVPBekw80RweAmLHOQzVppLT+lP9zKoPllMQCoubw23mbyAoBOKbpmJbLbFzVx5hUS4uizV/5yldGTY1X7lbb2fEWns0ECehRYHp6qru8Z2xszJP1EFfKDNHf0tXVVfXvHdSP5AzBkIZ9zxXoD+Ko+BgSFNxwsjj8XwOgvhQIUdN0BUH2Hrq+Xe/fh5Z8HP3zxImWTDD39XdnFfuyj+zJh0H6ggBAfNhZycoESQd9nr4giLojJ/I2HWBUgMTzlMhaQfP0qslEEK5dy6yAS8X5D3lrbIYZ4PlMDP+KTjXybmtrr+4JyZHDDTNeynDZvHlLKN9b2SHuUmLvnJ/OC7TBFCiLVZJTlqp3/me5DA53JgeAmJwszpttWjqzGWFauejPCtF7PaqU0aZyWNqPlTBkaI4OALFSKgiy6h5jvv0AZUUQfcdPex4Ocz4CJP74powQSmSFdX1r3x8udAIBRNHE5SbP4+7u6hd9PXjwYOOcXIXY98SfcXKmcOYAYkZZID88Nicv+KiJT3+zYSfwoayOO+Z+bt+TIQTE/kTx5jbTetv1YOiPX/V+PqpZIRU0R9fKyy3U5QaA+CAIgkaiQIh7oYnlp4wKkHiUyArzGte+5wIQseKfcO/p6anq91dZqVOnTjXMeOlvCatUVlfXlzyP35+gZF3cOZOIqqvvpwDHU1/9gOwOIAFUFqs11em5WB87d/3zapoexayQMpujD5tsX5BhnmkAiIdijdFFTdEVBKE5OuLkrdOB5ygAkm2D+4GC/KieFna2iKO8VelVLpF1+vSphhszZYesWrWq6t/X30T9LMGQWFM9/R2vdQaupN7Qe8Gs7yVjG0gCNUpXnxC3fYe8XxO1xunKYtP+q8RxaNRkM0GoxQ0AMUEQBI3MVyLrI+scZYRRARJ9zNOxLu08XnEnPa+qLXO1+Oabvxq9++74N1FHcryTlxlS3TPfU6dON9yYZQM8q2ryszSRHuUa8gimCcTHf3lL3nZlg2y77xxlr4CEUCBkxpfnmabm60HRsfPGHHnbu1+Iyj5BQRBlsvlL+vnoPFeZIEM8wwAQfXa99M0muzo2FfQ1BEHQCPz9QhgRIPGecD8gK6T63EvnXvAPeJzc1fUZz2aCVTsz5PjxNxtujMIq+xUUiFKwaun8T3lhxv191XrVrO+9YNZEtCcAgOpTAGTG4ls8gRA5csL7dVHIClEAd/exOZmMtiKUzrbr6NFjT/LsAkD02StiB6zbo8ZVL91NE0Nr09mGskCcnf593qbDjAqQ6GOgp3F6V2c2MwTV5Q6GDJkYB0MWd7JiGShmYmIilO9b7UAU6kd9QB5Z/qF5/d2ZuY/J8AGSIxMIUUZIa36ZqX3Drv2+tV9Qv5B6URBEPUHUG6SITBDEug0ePXqM+n4AEHF9fct7TTYAMlDoa2iMjkZz6r28TZTIApJNGZG5hQAK/KP6cle7dqmsoWInH1HWS2ZIYvhLZEl7e1tVf4b6azTcidapU7x4UJKyQMgEAZLHCYSoRJafVi26G6ffu/BiXX5HlWB8+eTsTEmsErYbgiAAEAt9fcu1AlZBkHTQ51UnvX8pQRA0Jn9miHXuMsyoAIk9HnbYx8Pc8Y8SWeHwL/3bYrLpOB1x+iPuu/0Sq5cTJKixc3d3DwMTIVq1u5RhAIDYUGmsoECI7PNdlte6RJYTBNl/sj3wHMBlyGT7gozyjAJAdNkTPgMmO+mTCvoaTQKtW2nM2pU0jkXj8gVDyAoBks2TFbKO419oPMGQN9/81Ud33/0VrabbGac/4n/843GeSaCOli1b5smmeX+ihUEBgJhoXdRpprUXbj5+2NUvRCX0atU4nSAIADQWux+ISnMXXICp+ujKAlnVx3ih8Y2d9zwkoxVI7vExLytEiwFQHcdPex6O5M1Yvvnmrwbvvvsr/cbVsCXKVB6LElkAAACVUyCkpbNwqckjbxszcen64/sXf1KT32v/ydmZviAEQQAg/vr6lg9YdxtMgVJYsqw7GwTRPZAU7jKkhubpQJKRFVI7Fwot395o3dTALBX1v+DP7/mQpxFV197ebsbHyTgCADSuUoEQUTDE7WshN05XU3QFQc4WzzAcMgRBACDS7CyQAZMNgqQKfR1N0ZFUvqwQAMk+XpIVUkOBV5oql7V8+b/Z/sUX156P8i+/cdnHZnHn5zyLMGNjY6arq6tq36+7u7vhmqirlFVYJiYmeBECQIyUEwgRd0qxSmTpFgaCIADQGPr6lqdNdlKnYKUJlcJSGSz6gSDJfFkhMsyoAImkuXeyQmqo4BXnsWP/PLR8+fInrl69mrp2LXq/+Nd7PjEDyy7wDCbQ0vmf5p9IVDkYgsqcOnWq5HMEAIjIyd/NbWUFQtTU032hfu/Ci1X/XQiCAED8ldMQXVQCSwGQFXcyZgAAWMdPlcdKO4+7F2SzJVE9uqb1GS165dnUZDY2N0879MUXV02UAiLKBvnze+gthfAsW3Z3A2aG3M0TCwAJp0BIa6qzrK/1NZqrWr8Q9QF5/d1ZBEEAIOb6+pYr++ObJhsICaTVrf1LKYUF5J0PXWIMgIQfQ9WeYqd72+Y1jEu1jefva4sHQ6yLz2HryRlubp6Wvnr1mtGt3pQRokBIW+tVnlGEpqenm78JANBQKgmEiLtfiM677ph7eWoX/ZenmZdPzjb7T7bTGB0AYqrcXiBa3aoskP47KfcBBAlYrTzCqACJOZYqo/IV97ZND2QzKFGD6+Iyvma7dUtPm9ZkmpqazNWr9csSUY8QSmNBVLPcvZpUWRzV7IkRZn+Negnrb1KJMj+ClQAQsRO+CgMhmWOrKzNkKuUPywyCKOV3l3UbIggCANHT17d8wGSzQAr2AnGyQNams8EQAOWzzn8ofwIk43iqQMgh41pQQHms8Lx1Om/TaMlgiJ0dMmR9ONDUZExz8zTzR7M+Nx9/2lRqVV/V9HZ9Zv78ng9plo6ceb5gSLW1tbWbnp6evF4YcaW/RX9TGIKCIVNdPQwAqJ6pBkLk3oWV13LQcfrlk+2ZviBlBEEGmQQAgGixS3goA2TAuJq7+pEFAgBA2ZQR0us80HFz96MMSq1o4V25s8nKDnnQOQG6eKXZ7PrT983If5th/uFf2szZ8XAmpee3X8lkg3y9+xOeLXhfG21XzAnX4+PH37T+v6mqP2PVqlUNEwzR3xKWoGAIACAaJhMIEf8KmsUVBLkVBFE/EAVBihg12VJYQzxLABAdrmboCoL0Fvo6skAAAKj4GPu8cTVMdwIhLCQIz9j5gGvkcv6hoibWE6ZVe0/osVb36SL3qa9+YL71x+Pmtd/ONP+PdXttdOaUs0VUXue+1CXz77o/yWSEAEHmt33hfXGHMCGvAMLOnTsbYrxWrOgPb8fiG/uplFIBAFTPZAMhcur33nOzcjL+1BRdpbBOnL2h2JcNW7dd1rnlAZ4hAIiOcspgieqZP3APWSAAAFRwjHV6hKTd2x97mAUFYRs7l3ctaspO6bAuWp+0nrxckzRd8Op278KL5r7bL2VuZoUxZ85NNyNjN5i3xmZkVgbqcTHK/tDE9l1dn5nerk8JgKAs/kmZMIIhKiulgMjBgwdjPVb6G7q6ukL7/qdPe7Nn6BcCAPU3lUBIZt/+XuFjrpsWwSgDROWwSpSvHDLZIAjNQQEgIqzr+7TJZoDkqkAE6bIOJyvuzJbC6prLuAHVML8z//2oMvWMDNBwx1qnR4gn2/IHD2ePrQjXpDNDXDbaT2DG7mNzMqvA3ZOf6uuhmzJG3BQUcWeNEPTAVARNzFS7ibps2vSd2AdD1q1bF+r395cSWzyX3j4AUE9TDYRMXPKuoOmdn3/O5pTC0sKYIlnBo9btBUM/EACIjL6+5SnrTtXJFQBJFfvaVfdkJ2qYrAGqj8AikIhjrgIgr/iPtwqErOpjfGrBlxlyOHO9XMk3sJupH7BPnHIXwo8s/7Dkv6X5OapJPUMUhHNPwChDodrBEGVUxDk7RL97d3dPaN9/YmI8LyuH5ukAUD9TDYSIu0SWf7+uElgqhaUgSBHD1u0F+oEAQDTYARBdwxftAyI0QwcAoCrH3gHrTrX3c5mXOq5u/haBkFoJygrJXDNP4nspOyTtPJn7T8429y/+hAlQ1Jxec+665MoMWbu2+lkQyg45cuSIGR8fj9X4tLe3Z373MGnMg54XAEDtVSMQIqd9wRAtQFAprF+cubFYPxBlfmjBjJqij/JsAEB92WU5FAAp2QdEZbA0MaNeIKxWB2p0vZ4fbFSgcpiRARri+KsgyIB7u9MsnR4htePLCjGm0p4hDpU5sJ7Y7fYTm/Hsa53muW+MMcqoKZXt8AdDwqDskE2bNsWumbp+5zB7hQSNuSbMdAMA1Fa1AiGiMlluj//ylmL9QEat2y7rNkQpLACor0oCIJqU6V9qzNo0EzNAPQS87zoYFSD2x+HAslh6vz/7XRYc1NpbpwOvXSeVGaKAyKD1BOsEK63H75xvNS+OdJj1vVwDo3bUr8aYm3KPlbmhUllhlIVSxsnhw4dDC7hUm8qFhZEl4+cfj+xzAgCopWoGQsRfJqtAIGTYUAoLACLBujZ3B0CKTqjSBwSIDmVluVYu9zMiQGyPwzr2brZuTwQddzevofRkPfjLZDkVDFqm8D23WLe3nAcvjNxkvrZ4glXhqJmgiffDh4+E1iNjx44d5uGHH87rkRG5E6qurszvGjb1C/E3T18a0GQXABCeagdCMvv3S0U/rVJYu9RHjtEHgPqpJACSCX4spQ8IELlr97meYEiKEQFieTxOW3fP+9/D9AepP1+ZrNz167TJfkPrInjEutvu3rbjtU5GGjV178KLnsdHjhwO7We1tbVnggzqxRFV+t30O+p3DZsCT35khgBA7YQRCCliyLotss7/VhMIAYD6UADEuj1v3T402TIcA6ZAIEQlOX7wsDH/5f/IlubQZAyBECBalnV7Hqbs1eUA4nFM1nv2kPWhbin/MfjF/0AgpN6Oe8tkjeauo6fyTa2L4SftclmqiZbp36CG6muWfMyIoybuXXjJvP7urNxjZSoocyOsXhnKOtm9e7d55JFHItdQXYEQ/W5hZcb4+QNPapxOZhgA1Ebrok7T0tkWyvf2pRNr8ctqmqIDQH1UkgGiyRdNvCgLhLrkQPTNz1/TkjbZLFwA0T0uBzZIFy062PSAMWtXMk71dvr3eZtOOB+0VOH7bzSuclm7j80xvfM/zUyMAmHLZoZ4zyAOHjyYaR4eligGRGodCFGJLPVQceslKwQAaiLMQIj40ol/SiAEAGqLAAiQDL7MEFHfEIIhQDSPzU5fkEeDjs16Pysjk2NxNJx6L2/TiPPBlIMhKpdlvSBULivXJObZ1zrNc98YY+QRurbWq5mAiDs75ODB/xRqMCRz0dHdY1588SWzbdvWvL4ZtdbT02OefXZHaNkwQYJKZN2/+BNekAAQsrADIQCA2rMnWNwBkOLXIgRAgIag96+viXqaUQEieYwuGATRe1gN0tWfC9ERkBlSvWCI+MtlvXO+1bw40mHW937E6CN0/lJZKpOlEk4rVvSHe+LS1ZUJiAwO7jR79+6ty9++bt26TOCnFj1C3Pbt8/69ygQjGwwAwkUgBAAaBwEQAKLV5AevB0N61YeArFwgEsfplMku/B8I+jwlsaLN1y9kxNqv5oIULVX8OZ5yWS+M3JRZsc8EKcKm11lb6xwzcXlabptKZYUdDHFs3rwl87MUFKlVlogCMY899rhZtmxZ7Xcox4/n/Z1khQBAeJqap5kZX55nps1qrcePv51nAACqw55YUeBjg7EXEhZDAARofFpNfvANzybtIwYZGaBux2q9B5UFkg76vIIg61ZmgyD6GNHkywwZcT+oWjAkqFzW47+8xfzdN8YypYyAsDilsn5x5vpqWfWzCLORup+CEsoSURBmz54fZX52GPT3bNr0HbNq1aq6jbfKkPndv3iCFyIAhKAegRBNvrlOHlM8CwAwedY1soIeCn6kDQEQAD4KhmhCdeJSbpP2FwRDgNoeq3XNM2C//wKvfwiCxIcvK0Q8TY+rmRmSVy7r7ERLpqH61vvO8UwgVOt7L3iCIaKghLInaklBCt0UFFGpLn+T8cnq7+/PZJ/UMwgiCvLob3NTIISAJwBUX9OMFjPjjltqnhHSzsk9AEyJvapUaeq6T5X6ek2GKvjRfycTLEAS9S/1ZIeoVFb66NFjw4wMEPrxesCUKFepniBr08asuodjdFwceTtvk2d/2hLCz1xtsuWyMk1lNEGtng5auQ+EZX7blYBG6gczWRS1bCzucIIiExPjmWbjx4+/mSkvVW7GiH5nZZssW3a36e9fUfOeIIUowOS3Zsk4L0AAqDIFQJQRosyQOuvl2QCA4nz9P9ImoMGqmyZT1CeAAAgAeaAvr1SWVqcPMzJAKMdsd7+ugsdrHacfuCebrYl48WWGjPr7MDWF9MIasO6ez53stV7NlMvShDUQlhNnbzDf//k8zzYFJGqdHVLyTXn8eOZegREnOKLghxO0qUcfkHLod1292hssXzr/U/M3X3+fFx8AVFG9AyE/ftWYPa9ef2ydPDbxrABA3jWvgsVpcz0AUpRWlmYCIHdmbwDg9tAT1jW3t6jKIhqpA1U7ZpcVANHiBGVqKRNEZSsRPyo5+Cd/4dk0ZO1LN7o3hJEZoovmIbtcVmbmVI2td7zWyaQpQqWJed0UFHEoO2TdunWmu7snMr9nVIMdpQRlhWzovcALDwCqqOXmNtOa6qzr7zC/M+/igVINAGAqL3+liRQFQLSqlEkVAMV8+wFjnnnJs0n9eDcyMsCkjtdOxqZzzC6aselkgZCtGX+H80tk5fUvaAnx52un3eucJGqC+sWRDrO+9yOeGYRGk/Pf//kNnm07d+40u3f/LYMzBcpm8fcKcYJPAIDqaJk327TeNqfuv0fPrXmb0oZSDQASyG6oqn1gWeWvJJf9QQN0ABVQ0FTZua7skAFrH/QCC1KAso/ZFWVsapGC3nccrxvLW/nN0w/kXXeH9cOtHfZH1gtRAZFDzrYXRm5iAhWh0mtLDb3dzdSdifx6Nx+Ps8HBnXnbyAoBgOppXdRpWjrbIvG76MJAK6KUYmzr5xkCkBTKhjPXJ1JK9k1ySmrc1c2KUgBTE5AdogvxuxgZIPB4nbKP1WVlf4hKVmrBAhmbjevwCc/DYcUn/F/TVIMX55Mmm96XPVlsvWr+/lvvZe6BMJydaDH/0z96l7W2t7ebV155JTKNyONk3769mewaNwWctt53jsEBgClSXxAFQpo7ZkXq99r2nDFHvCnGc4JOJAEg7iaT/eGUv9KEiu4BoFq+tyuv+e926xzsSUYGHK8zmR+69dvH61Q5/44MkOTQ9auuY122WPvPwbxr8Bq9YA8ZV4oSTZcRNpVkUyaSW39/v3n22R0MTgXUNH39+ofN+Ph4bpsCmX/3jTEzv+0KAwQAU6BAiBqlq2F61Bw8mrcycaN6wvGsAWgElWZ/iBP4YDIFQJhO/96Y9X+dt/ku6zxshNFBgo7THfbxWcfppabMxQpCxmZyPfMT6zr2Dc+mRda+czTvOryGL+LfuF+4KrFD/xCESdkhyhJxe+yxxymXVQEFQk6dOuXZ9sjyD82aJR8zOAAwBQqAKBCigEgUqUTWn/yFZ9OIdSJJmQYAseSqI+6U0ijJKaXhZIAAQK2od8ieVz2bNHm2iCxdNPBxWsdoHauX2ve9lfx7Haud4zXlr5JJ16+rH/eUei54/dpU4xf2Ifc2ZYfQPwRhOXH2BvP9n8/zbFO5rN27d5vu7h4GqIQ9e/ZYtx95tpHVBQBTp5JYKo0V1UCII2BlzUqaeAKIA3sxnoIeFZXSIPsDQFQoO0RZIi4j9rkYARHE+fis47ET7HACH6lKv48T/Lirm3KVyAqobBBYIkuaavyif9L4+odQbgdhCiqX1dPTkwmI0D+ksCNHDputW7d6tvF+BYCpa5k327TeNicWv6vqVatutYsa0K3kWQQQRda1pjv4UdaKUrI/AERVwCpnISCCuByTnSCH7m+3P05P5nupzJWO0z0LCH6gsIB+SwV7XjbV4Q3h6R9yx9zL5rlvjPGsITTf/VmXeee8tx47/UMKO336lHnkkUc8fUKE8lgAMHnKApm+cI5p6WyL+0klvUMARIJdeUC3flPmBIszoaLMD92T/QEg0tfmv7euw3cFBkQ20kMEETgOK9Dh9PbosI/HKTOJTA83HZ9V6sq551iNUsbOG/PQ455NB6x95OqC1+Z1eLPk9Q+5f/GE2XrfOZ49hEJ9Q/7sZ11m4rK3HIl6h6iHCK6bmBjPBEL8fULuXXjRPPXVDxggAJiEKDdKL+ci3NfEU6tr7gpqRAcAIV9Hpk2FwQ+hjjiAOCsQENH5mAIiBxghhHjcdYIcKft2u+vj1FS/vxYo9PiCHhynMRmD+43Z52nMYVYX2z821fEN9ZZ7m4IhCooAYQjqHyJbtmwxa9euY4BM4UCIsrfUJ0RlsgAAlYl6o/RJnlzSTB1ALa4Z02YSwQ9nNalz02QLAMRZgYCIaLJvI2WzUOHx1cnmMOZ6VsdNrm3pav/MTDZmZzbgcZdd8orjM6rlT/7Cs38ctfaJi4p9fVMd33ybrbud7m0ql6WJVyAM+0/ONruP5ddpV3aIskSSrFAgRAEQBUJ4XwJA5VpubjOtqc74HyMuZbNDxrxJvEPWSeZGnmUAVbo21ERM2mQnYioKfmhyxWmi2n8nkysAGpMCItt+lHc+JgqEqMvbIEGRRB9D3b2y3MdQNSnvCNhedU6ww1mIoMUJBD0QtoDG6doXbin2b5rq/IZ93robcB5r4vXvv/UeK9ARmh2vdZpfnMmv157kgEihQIgQoASAysW1P0ipC3BfuSwhIAJgsteBmrRxAh/Ox2VxBz/o+wEgUdful4x5+iVjjrxd8EuGrNtPKZ8Vy2Nih29z2vd4qe9rgv5N6Jzm5e6AhxMEAeohoMflolIlnesdDNEb95D75JeG6ghboYDIunXrzObNW5J1MlUkEELpOgCoXNOMFjPjjlti2R+klIBVN85F9xZWIgIocc2XNpPI+hCCHwDgpWCIgiIBZbMcOi9Tg/XD9n3mPM06XxsOyCKoG/0+dToupafwz8v5t/0Ftkdm7IMosNE+83pwwwl2tM+klweiqdLG6blr9gicHKdMtn8IDdVRM4UCIklqqj42Nma2bdtKIAQAqqS5Y5ZpXdQZ6/4gpRQIiOgiezVN1QHY13dp4836SFXy7wl+AEBpCoSop9veQ0WDIkg4d9aG++Nuu3wVgQ7E2TM/sa5P3/BsWl1OZlxTFH55+4TZ05qTyViErVBApKenx+zevdu0tbU37N9++vSpTEbI+Ph43ud47wFA5Vpvm2Na5s1OxN9aICCiFYfbrZPPQV4NQHK4yl2pfEfaTGLFq7vheabcBsEPACibAiGaDNT5mcqaojEpcNHjClr4S1N1u3pzULYKSdn3rX68ssbpjqao/BFBDdXVuHnp/E95hhGaQgGR9vZ28+yzO8yyZcsa7m/et2+v2blzZ+DnCIQAQGUauSxWMQUCIjJsskGRYV4dQGNxlVZJm+tZHxXVK9cETfet1wMfTu1xAMDUKRii2vnOjYyR+nBKSwUJOu7NDwheENAAilNm3OB+zyZdgz5Z1jV8xE6w8xqqKyBCA2eEafexOWb/yeDVvJs2fce6bWqIv1P9QZ5++mlz+PDhvM/pvaZAyL0LL/KCAIAyJaEsVqkL7m0/MmYsuLLpsCEoAsTaVJqcO9wZH2R9AECN5wAuGXPKzhZRbf2z9jnbXd3R+N3qlcnizqKoFEEKIBoeeiLvOnROuX0sm6L2x1gn3W8ZX0N1BUQ0WQuERdkhyhIJorJZaqwe5yyRI0cOZwIhQWWx5rddMU999QOCjgBQJgU/pi+cY1o627jIti5k97yaXZlThNO4U7cT9rZh+36UXiNAJK7Bppz1ockllfDQJFvPrdQgBwAAQPUdeduYbc95Ng1Z15Qby76ej+iJuAIiKWebJmmf+8YYzzZC9c75VvP4L28xZydaAj+v5upbtmyJVS8RNUl/+umnzPHjxwM/rzJ0CoQQbASA8qgc1ozFt5im1hYGw0WlGJSmPMUVfsP2/ah1+61v20fWCe4IIw1U7ZpL11ppM8leH1pRq4wPJ/hBuSsAAADUwvd2Za8/Xe6q5FqxKYp/lJ2SrTWGudVI6mOgMj5AmCYuT8tkiLz+7qzAz6uXyNq168y6dWsjHRRREGTPnh+ZgwcPFvyaDb0XzPrej3jSAaBM07/UYd1uYiCKUC8RZYmEXPZg1L6JTnovuD52Dmwj5aZJR+C8N2WuLwJyVue73e76vJ8728Z5nLkQoEQZAq6v0uZ68CNVyb93+ns495QIAQAAQK0pCKJgiMuwdd2zspLv0RTVP846YX/QunvFvY3JW9SKymapl4iCI0GiGhQpJwiiTKtt952jLBYAlEnZIK2pzsQ1SZ/qSepbp69/LKpZXadGnqPmevBE3M2zcsEDl6oEUuzJ5w7jDXAsDdgWJufv0+2E/beRYZMA1usvba73+0ibCkpekfUBAACAKHrmJ8YcfMOzabV1fXOgku/RFOU/0DqJH7DunndvU3aIskSAsJXKEhEFRVasWGHWrVtnurt76va7qieIAiBBzdHdCCgCQGXIBqk+NfB0mt05ARP3Nl/Kc5S4M0+CpEyFq+3rRH/DsMkGhQ7Qs6Ux2MEP3ZzgR9ncvT7I+gAAAEBUryMfetyzSf0nF1X6fZqi/odaJ/YKhgy4t6mhunodALVw4uwN5ofH5mR6ihTT1dWVCYqo0XotAiPqA6IgiAIgyggpRu8XBRLVLB0AUBrZIPWnLJJTdrmt066sEnewJMKBk6rRKv2eAo2oq/T3K8jzgiEwEitTCX4s6/aWvNJrDAAAAIiygKyQjdb1y1Cl36cpDn+sPyCiZs8KiFDmB7Wk0lkvjtxUsMG6mwIjCoosW3a36enprkpw5PTpU5kAiHMbHx8v+W8UBFE2CMFDACjzxKh5mmmZN5tskJhxB07kLVeQwF2ea/xS6P1MinIHNjQR3W5PQt/lKkM0lZJEx12ZNmfPZf92fVzB36wU8xcqTTVHTa6HnJ4fCn48WMlrjpJXAAAAiLNqZYVkrvljcvKvGrdqqJ6rrayAyN99Y4yV7qg5BUX2n2wvmSnip+CIymo5gRE9DjIxMW5OncrOZigAoqyPU6dOVfSzCIIAQOWaO2aZ1oVzTFNrC4ORoJNqpzyX460C2RblZGG4J5rnd14vN6SJ6Hqvvnf6uChAcuTtkl8+at22T2alFap2/ZMy2aBHRT0/nOCHO/sDAAAAiLMfv2rMnlc9m3St8uRkvldTXP7ooICIMkOUIaLACFBrKp/1izM3ZoIjUaD3gfrpPLRknCAhAFRyMjSjxbTeNicTDAGSQgER3Q6fKNrYftQQFKnltU7aun3Tvk+Vdf5H8AMAAAANTNcqqx/3XLOoB+Ii6xplUk2Rm+L0x9vp4QqI5FZGERBB3d+Ul6dlmqy//u7Mos3Ww6DX/b0LL1q3S5l7AEAFJ0GUxAIyFBRR/d0iGSPD1m2LdcExwmhV/dpG2R8KgPSWde5H8AMAAAAJUs2skMw8QEwvGjwBEZUCUkAEqDcFRpQxcuLsDDNi3VdaSqscer33zv8sc08ZLACYnJab28z02+ZkAiIAslQ2TBcbvsaEboP2xcdHjNakrmN0/eKUvnrQlFn6ygl8rLiT4AcAAACSo9pZIdIUx4GwLiTSJhsQyVF5oK33neNVgshRcERN19+3bmfOT88ETHQrFihxghzK/Fg89/NMBpRKX+keADB5ze03mNZFnfQFAYooERRRdshGskTKvm5xGp9vMGVmfyjg4QQ/aHgOAACApKp2Vog0xXUwrAuLAevuefc2AiIAACCIgiAqhzXNugdQntO/N2Zwf2DzeK3E2kIvkYLXKe7sj1Spr1fpq/6lxtzVbd3fmX0MAAAAJFkYWSHSFOdBISACAACKnujQHB2Ysn2HsiuyAhqtD1kXIxuTPj6+5udllb9S9ocCH5S+AgAAAPI985O8TPUpZ4Vk5gga4OJjs3W3071tQ+8Fs76XUsYAACSVgiDKBGnpbGMwgCpQ6axtz2WzRXwOmGzZrESdfLv6fzgBkKLI/gAAAADKv/Z46HHPpqpkhWTmChrkYkTZIQPubcoOUZYIAABIDoIgQLgCVmiJ+oesbPSASKUBkK7ObObHqj6yPwAAAIApXHNUJSskM2fQQBcnBEQAAEgogiBA7ahslnqJ+DRsQMQuzVtWAMRpfL5iqTFdc3mtAAAAAJVQJvr6v/ZsGrVud1XrOqOlUQZK9YqtCxV9OOBs2/FaZ+aegAgAAI2JIAhQe2tXGtM2y5hnXvJs7rVuh3Sh0gh/o90EvaweIE7wg/JXAAAAwNQELLraXs0FV02NNmBkiAAA0PgIggD1d/BoXkBEYttU3bqOUEBng30tQQAEAAAAqKHjp4353i7PplHr2mJRNX9GUyMOHAERAAAa07RZraZlXjtBECAiCgREqlbTtwbXDR32dYOCIL3FvpYACAAAABCeh54wZuycZ5PK8A5X82c0NergERABAKBxNLffkMkEmWbdA4iWAgGR1daFy4EIXys4ZbAGin2deoA8cA8BEAAAACBMP37VmD2vejYNW9cTK6v9c5oaeRAJiAAAEG8tN7eZls4bCYIAEafavmqs7qK6vmp0OBqhawMnC+RR65Yq9HVdncasTdMEHQAAAKiFiUvGrH48e++yKIxriZZGHkiaqgMAED9NzdNM85xZmUyQptYWBgSIgc1rsintR97ObVLg4RUTgYbq1vVA2lzvBRJIWR/9S7NBkO4FPJ8AAABArWhhlS8QMhjWoqqmJAwoGSIAAESfgiAt82ZneoLoYwDxoguY9X+dV+e3bv1DrGsAnf8rCJIu9DVOGaxVfTx/AAAAQK0FNE1XhrmyQj4K4+c1JWVggwIiCoYoKAIAAOqnaUZLJguEpuhAQ17MGBNSinuBc/6SpbCUBbLqHmPWrqQMFgAAAFBPAU3TN1rXDkNh/bzmpAzse++999MFC27VBVGvs+2d863m/YkWc+/CS7zyAACoseaOWWbG7XNN621zzbRZrQwI0ADUb0OrrRQUcem1zsVfCPPnKghinev/pfXh/2Xd1By9I+h32/wtY7atM2bFnca00xAdAAAAqBs1TXeV2RU1Td8S5s9sStogkyECAED90A8ESIZarfCyM0E2m2wmSEfQ1yjwoSwQlcQCAAAAUH9j561rhsfzNt9lXTOMhPlzm5I42EEBkXsXXswERNpar/JqBACg2iccKoX1R+2m+eY2+oEACRBQLmvUvripSu3fcoIgKoX17QcohQUAAABEja4VfNnkNek12JzEwbZLZl2wPvy6s+13F6abf35vplm56KJpbb7GKxIAgGqcaLhLYbXNME3TmhgUIAFUkurseWNO/z63SQGLz6zz8OGpfm+7Mfr/bZ/L3+D+nPqBrP+aMT94ONsUnVJYAAAAQLTsO2TMK695No0ePXpsdS1+dqJnJOwLqefd2+6Ye9k89dUPzPy2K7wyAQCYzMmFSmHd3Gamz2unFBaQYEp9X/9Xxkxcb8+nrJBFk80Osc7d0/a5e8r/OQVB1q3MlsNqIwACAAAAxOUaQVZa1wjDtfj5zUke/Pfee29kwYJbf2uyTRYzPrzUbP7zmTaz/NZPzdyZX/AKBQCg3JOK9hvM9FtvMjP+1S2m+aaZlMMCEk5ZGZ9f8aS/K4uj4uyQvr7lKeucXUGQvzYBJbEUANnxXWPuWWJM63TGHQAAAIgqlcdSBrnL4NGjx/6uVj8/8bMUdiPHu0x2pVrGxOVp5vs/n2def3cWr1AAAIpQwKPl5jYz885bzYwvzzMtnW0MCoCcgEyNDZX8+76+5eoL8pZxLV5yqCfIy08Zs3kN2SAAAABA1P34VU8ZXRm1bttr+Ts08zRkMkTOLlhw6y+sD9cZu+7w5S+azKHf3Gjmt31hFs+9zCABAOAybVarmb6gw7Te3mla5t5IFgiAQMrUOD9uzL+M5jZ1WOfdJ6zz7/+v2L+zs0FesT78X4yvL8iy7mxPEAVa6AkCAAAARJ+CII89n7dZ5bFGa/l7EAyx2QERpeSoEeN8Z7uyQ96faDH3LrzEIAEAEi2TBdJ5o2lNdZrpX+rIBERoiA6glNvnZ5skutxgnXvvK/T1fX3LlQWiBun/2r1d2R9b/302E0QN2gEAAABEn/qDfO//zOsTsv3o0WN7a/27EAxxsS7KPl2w4NZ99oVX7uLrnfOt5sTZGzIBkdbmawwUACBRPL1AOmaZpumcPgAon7I33jqdbZZo+9fWOfcunXv7v7avb/lO627Q+LJBVBJr8HvG/HGK8QQAAADiRBkhrkxxGTl69Ni/r8fvwmyGjy7KtFLNukDTpVavs13ZIf/83kyz5JbLNFYHADS8phktmV4gM+642bTMm53JAgGAye9UjDnytmfLUXeprL6+5Sqf9f8aX28QZYA8+91sSSyaowMAAADxogzxfcOeTerbvdK6FvioHr8PBb4LOHr02EbrbqN7mzJEaKwOAGhkyvyYsfgWM/O/v9W03jbHNLW2MCgApkx9Pnxyi476+pbr47fc22TFnca8+JeB/xYAAABAxKlPyOD+vM0ba90nxI3MkCLee++9kQULbj1ssivUPI3Vm6z/ls7/lEECAMRephn6/Nmm9Y5bMtkg025g+TWA6lKprFePeusEW+faL9iBEHUUme/+evUF2fwtskEAAACAONJ5//q/NubyFc/mwaNHj+2q5+9FMKQE6yJt1O4jknZfpKmHCH1EAABxldcMvW0GzdABhEplslx9Q3SOfcJkAyEdzkY1Sd/zvxqzYinjBQAAAMTVlt3G/PZ9zyb1CVld79+LMlllsFN3Vlq3A+7tCob82c+6MuWzAACIg1wZrLtuywRC6AUCoE5SxhcI6V5gzIv/IXsPAAAAIJ6e+Ykxx097Nqk/yOoo/G5khpTJ1Vj9gvXw6872icvTzD/9ut38/+zdT2wc5RnH8cd/YsfBbhwHhC0s2IoEtTkQB6lepCKyqdQizAEKh/bQNImIeqCHkEptOQSRkF4QlWIORSoqIvw5NBJtwiFRKw7ZcMqmEnG4VEpAbCSsBKEEh5iSpFA6z8y8znj23fWsd3Z3Zvb7QaPZHa839tho5/Vvn+cZ7PtWNtx2nRMFAEgc2mABSAJtkxWoDNEQZKW5owHIy7tE1n6H8wQAAACk1VHnmv/VYxWHHy6VTs0k4esjDKnT7OzsyfAcEfWv2QG3QuQHd1yjbRYAoO26+nvd4KP/7ltlxehq2mABaLtDRZHLX1QeN0GItsgCAAAAkE5aDfLMKxWHdWD6kaR8jfxVZJny+Ul9N9th8WaJLBjs+588/6PPGK4OAGj9i3pPt/SsWeXOAukeWskJAZAYOkDxx7+tPK4BiLbGGhvhHAEAAABpde4Tkade8q77Aw6WSqd2JOnrpDJkmfy2Wa+Pj9+hgVLBHL/xTZf888NB+fJGt3z/thtUiQAAmv9iPrxK+saHpe+7t7q3tSoEAJLkzXcr+ga7Dvxa5B5mhAAAAACppa1wd/6xIggpJmFgehhhSINmZ2eLtrZZ//6sX4of3yITo9dlZOAbThQAIN4X8OFVsmLsO24AwhwQAEmm7xJ74a8iN75efHznlMgj93N+AAAAgLTSAGT3yyIXLy86rPNBHtZigqR9vYQhMXB+sOXx8Tv+7Nz8nr95vwz+cPUu57+7R6gSAQA0ZmEQem6t9N425N5nDgiAJNMgZP9bFYsjGVsr8uxWkT5yXAAAACCVNAjR1lh6zR8w52ybSqVTc0n8mvkLSszy+cntzu6Asw0Hj48Ofi2/e+ASs0QAAHXRwENngOgskK4+2l8BSI+jJZHptyvK5V17too8kuccAQAAAGlUIwjZUiqdmknq100Y0gT5/GTO2b0moeHq6qF18/LU5OfuoHUAAKwvzv29bhssdxD6qj5OCIBU0RDk2En7jBClQ9MPP+/tAQAAAKRLWoMQRRjSRPn85NPO7jkJVYloEKKBiAYjAAC4L8gEIABSShdBZ2dFTp8TOXHGXgkSpHNC9vyC8wYAAACkTZUgRG1KehCiCEOarFaViLbM2jZxhdZZANChCEAAtGKxcvaTymOWxcuiSo714yJDVSo3Llx2tksiV6s8j0XZ2XLmzgu/EnnwXn42AAAAQNrWFlWCkB2l0qmDafgeCENaJJ+ffEy8UGQ4/DGtEPnlxBV3rggAINsIQADUoguLq6HKCg0fLl6qPHYhdKyOcKJVjjibs1ySbc623Rx890VaZAEAAABpkoUgRBGGtFA+P6lBiLbNetr28Sc2fOGGIswTAYBsIQABsss2F+O05ZhWZ4TbR9mOZUDR2d5xtiPOoqjsXwMfF79KWitO3niG3xsAAAAgLbIShCjCkDao1TpLg5AnNlyVxzd8QSgCAClGAAIkj62awlZ1YauwSGDVRTNoj985/3ZhiccWA59zRe87C6FilWvfb81t5oUAAAAA6aFroP1vWYel705bEKIIQ9rIb511QAI9lA0Tivxk3TztswAgJTT00ACkZ3iAAASIga3q4lzECgtb8JFBRcuxExEfN+MsXuZadM27EIbsnBJ5corfbQAAACDpdO2lFSGhtZauIbakYVi6DWFIAjgLxO3itc/K2T6uM0U0GLl75AYnCwASRkMPrf7oWbNKuvp6OSHoWMsd1F3rWMaU/S187HzomC4uwguLubQuNvxrXcIQAAAAIEWOlkSm385WEKIIQ5KzSNR5IjpLZJdYhqyrjaPX5KF1X7rhCACgfdzqj6F+AhCkmm1Q97mIFRYdXHVhWkKFj4UrLFpWdZGS61zCEAAAACAlDh0Xmf5bxeGys/00zUGIIgxJ3mLRhCLbpEqliLbQ0kBEgxGqRQCgNdwAZM2Au+/q6eaEoKVsVRfqdMQKi4wO6g6yVlM425kIj5Nqsy4Q2/UtYQgAAACQgnWnhiBHT1Z8SNdQW7Lwhi/CkGQvHLdLjfZZSueJPL7hqvzwzv8wWwQA4nyB7Ol2Kz90/ocGIEA9og7qtj2uAwd1B4+Fqy7KYmkt5VyEl/ktS9U1LQPUAQAAgISvYX//inUtelC8YemZqHwnDEnHArIgXvusx2o9TqtEHrjzKzcYoWIEAJbxotjf6wYfvToAfWglJ6SD2KopTkessOjQqgsVaVA3VRdwrmWPOzu9npX14yJvPMM5AQAAAJLivQ9E9r9pXdfuc9Zze7P0vRKGpGshmRMvENFgJFfrsVoloqHIxtHr7h4AYGcGoGv4obeRfLZqCtug7qt1DO/OGFvVRVkqB3WXpbLqYi7tPWCRyGvYA+K1gXW9+6LI4ADnBQAAAGg3bYulM0LC60Jn2+GsDY9k7fslDEnvonJCvLki26XKwPUgE4xMjF6jagRAR9P2Vxp8MP+jdaIO6j4bcXh3BhUtx2xVFwzqRlqvW/XNPIfN/T1bRR7Jc14AAACAdq7T979lfQOhrjt3ZPVNcoQh2VlgPipe+4HcUo/XAewmHNk4eo1ZIwAyz7S/6hnqZ/7HEmyDuufrqLDogKqLsliqKSTaoG6qLtCp16r6xp3PzX1aZQEAAADto5UgfzlmbYullSA7svyGO8KQ7C02TcVIwdkmonyOhiFaLULlCIAs6ZT2V7aqCwZ1L1K0HLMN6ra2lmJQNxDbNepr4lU0u/60S+S+9ZwXAAAAoFX07wJ/eNP6JkZdC+t8kOmsnwPCkGwvOnPihSKmamQ46udqxcjE6HU/JLnmVpMAQKJf0Hq6pWfNKun2qz+S2v4q6qDu9yMO784YazWFVFZdqGL4AIO6gURfl+q16EI34rG1In/fx3kBAAAAWqFGNUim22KFEYZ03iJUt83+PjJTPbJu5L9uOKK3CUgAtJtWfGjlR+/wgLuPm62awlZ1cbWO4d0Z08igbqougM67Fj0evAbdOSXy5BTnBQAAAGgW/buEDkmv0tJ62lmX7+6k80EY0tkL0oIsMxxRwYBE97oxfwRAU1+0gsPPnX1XX++ij9te3KMO6u7QqgtlG9RdtBxjUDeARq89c87u4+Ax2mUBAAAA8dO/b2glyKHj1g+XxasGKXbaeSEMQXCBqjNGCuKFI3o7t5zn0cqRdSM35PbBb9w9VSQAovjocp9cnO9194tewG90yYf+sZ5A9UeHDurW++GqCwZ1A0jT9eZeZ/ecuT84IPLyLm+oOgAAAIDGHS2JTL9d9Q2f2qx2ulPf7EgYglqL1Zx4oYhuJiAZXs5zaRjiVZHcDEluH/yaShIArjMXV8pv/nF72r+NouWYrerC1lqKqgsAnXSNuahdFoEIAAAA0Dh906i2xKrSsrujZoNUQxiCehevOYkpIDHMgHbTbktv6zEA2TR/o9ut/tBqj48ur3CrQTQMabGyVFZd2AZ1W1tLMagbABq6ntRrx+P+daSLQAQAAABYniXmgujfNfaVSqemOVOEIYhnQZsTr6VWwdk2+rcnGn1eU01ighJTSUJFCZAeGnJo2PGps81c7HdDEA1DlikcTOjtK6HHlIVB3QCQhutHvVbUQGThTTUaiDy7VeTBezk/AAAAwFIuXBZ59ZjI0ZNVH6IByD46UdxEGIJmL3Jz4gUjsYUkxs2gRPffLtwnLAFaK1jp8el8j7/vdUOQBpTFCzu0UqMoBBoAkNVrxUWBiNo5JfLkFOcHAAAAsIkQghSdbTezRCsRhqBdC9+ceMHIXYHbw3H+O6aKxFSWKNN+i6HuQH1M4GGqPD68vMI9FlN7qxm5GXy4t3nXAgB0zHWhXgceltAbZu5bL7Jnq8jYCOcIAAAAUNoGS0OQKu2wVFG8SpAiZ8uOMARJWgwP+wvhnL9pNYk5NtyMf9O04lKmwuQWv9pEEZqgk5gWVlrZ8aW7jzXwUGV/06HiGnqUeZcCAMC/BtRApLDoOm1A5OdbqBIBAABAZztaEjl0vOpgdFUWLwQ5yNmqjTAEaVoomwWy7lfLzZBkohX/vqkqCVaaBIOTYLACJI2p6DAVHkpneKgG53jYaMChlR0n/BfkMu9KAABEuNbb6+yeCx8fWyvy9BPMEgEAAEDn0FZYx056QciFS1UfVhZCkLoQhiAri+dgKFLw95v9fdMqS2ox4YkyVScqPNOE6hMsVzDYCN6+ON+zMK8jxqqOMDPMXF94zwuVHgCAeK7p9LpNq0Ry4Y9p6yytEtE9AAAAkEXvfeDNAtF9DUVne6lUOnWEM1YfwhB00uI65y+sg8GJacXVsgqTpQRDFDUxen3RfVt4Ev4cpEs4sAjfNxUcKobB5PUoBzYTeMxR5QEAaMF1216xVImo9eMiP9si8kie8wQAAID00yoQbYOlAUiNKhCl4cdL/F1m+QhDgMrFt6kkCQYkZtC7yM2ZJolmC0iCLb6iPD74eZ3eAsy0marnY8EKDaPFYcZSyrI47DDVHnNUeAAAEnBNptdbB5ztMdvHtX2WBiJT9zNoHQAAAOmiAch7Z7w2WDVmgSj9W81B8UKQMmeuMYQhQGOL9GALruDtYHiSmKqTZktraNLEVlLtYkINpS+U5/3bRX8/47yAzvF/MAAgJddbBfGqRArVHqPzRB7cKLL5Xm/wOgAAAJA0dQQgquhsrzMPJF6EIUDrF/TB0CQclKwO3e+YIAU1mYHk4u/PhF4cXZRJAgAyfg1VcHbbnG17rccRjAAAACAp3j/ntb+K0AJLleVmK6wyZy9+hCFAOv8QEFQtMNlsOZaTFLT4ypBghUbw2JnQsWDY4b748aIHAEDVayG9ltklXigyXOuxOl9EB64PRQhFNDjRxzeC4e4AAACdzVR/aAii2/xXS36K/j1IA5B3GIjefIQhAFyWkCWongqVzSn89jWMuBLhxanaHA1mbAAA0J7rl+3O7lGpMlckbTSQuafBQEYDnaGBxp+j0aqae8apzAEAANmn7a7Ozoqc9sOPCNUfigCkTQhDAAAAAKRaPj+pb9zQQCQzwQjiCYdUHAGR2hRD5c9QDBVIAACgPbTK4+wnXvCh+4iVH0ZZvFbnBCBtRBgCAAAAIDP8YKQgXjCi+xxnBVkUV1u2uMIitWl98r4/AACWQ9tdaZWHCT7OzUau+ggqOts7uqejSDIQhgAAAADoeP4sklwDT1FPW9FqNsoSc1AiKPDTBBaLM/BRcQc1m2J+PiqQACA6U92h7a5MAKLHlkkDj6KznRAvAJnjDCcLYQgAAAAAYMESs+SiiuM57pJ4KnsK/FSBxsTVtq5Vz6tG14qMjTTvnFC9BCSfaWulNOww94P7BhXFDz6cbYbwI/kIQwAAAAAAqCGGyiEjrudZLY1XIhkFfsJAMsVd1VTLWJPDo1pG2/hvL0XDusEBfhfjEAwmluN0jWqNcLARU9ARVhSv8uOMeMEHba9SiDAEAAAAAAA0xJ/XE1dAE+dzqc0xPlfcXxsAIFk05CiLH3qIF3yUOS3ZQBgCAAAAAADQBjGHSEZO4qlACrqrCc/ZrK8VAGrRVlamquNE4H6Z0CP7CEMAAAAAAACQKTHNP6ql0IJvY3MLT5mGcsP85iClggGHKjvbef/2jP/xOVpbgTAEAAAAAAAAQFu0ILhqRIGfUKyKDXwuA8rRsP8LMACNvbPa4jRe/gAAAABJRU5ErkJggg==" vertex="1" parent="hSaHa6GIb4maSIc4nTPl-24">
          <mxGeometry x="11.5" y="27.440000000000055" width="47" height="15.1" as="geometry" />
        </mxCell>
        <mxCell id="hSaHa6GIb4maSIc4nTPl-26" style="edgeStyle=orthogonalEdgeStyle;rounded=0;orthogonalLoop=1;jettySize=auto;html=1;fontFamily=Manrope;fontSize=12;fontColor=#FFFFFF;endArrow=oval;endFill=1;startArrow=oval;startFill=1;entryX=1;entryY=0.5;entryDx=0;entryDy=0;strokeColor=#98A2AE;exitX=0;exitY=0.5;exitDx=0;exitDy=0;" edge="1" parent="1" target="hSaHa6GIb4maSIc4nTPl-27" source="hSaHa6GIb4maSIc4nTPl-32">
          <mxGeometry relative="1" as="geometry">
            <mxPoint x="298" y="689" as="sourcePoint" />
            <mxPoint x="373" y="659" as="targetPoint" />
          </mxGeometry>
        </mxCell>
        <mxCell id="hSaHa6GIb4maSIc4nTPl-27" value="eth2" style="rounded=0;whiteSpace=wrap;html=1;fontFamily=Manrope;fontSize=10;fontColor=#FFFFFF;align=center;strokeColor=none;rotation=0;horizontal=1;fillColor=#98A2AE;" vertex="1" parent="1">
          <mxGeometry x="132" y="680.88" width="36" height="16.25" as="geometry" />
        </mxCell>
        <mxCell id="hSaHa6GIb4maSIc4nTPl-28" value="192.168.1.0/31" style="rounded=0;whiteSpace=wrap;html=1;fontFamily=Fira Code;fontSize=9;fontColor=#FFFFFF;align=left;strokeColor=none;rotation=0;horizontal=1;fontSource=https%3A%2F%2Ffonts.googleapis.com%2Fcss%3Ffamily%3DFira%2BCode;fillColor=#bec8d2;" vertex="1" parent="1">
          <mxGeometry x="132" y="697.13" width="119" height="15.87" as="geometry" />
        </mxCell>
        <mxCell id="hSaHa6GIb4maSIc4nTPl-29" value="&lt;span style=&quot;font-size: 10px&quot;&gt;eth2&lt;/span&gt;" style="rounded=0;whiteSpace=wrap;html=1;fontFamily=Manrope;fontSize=12;fontColor=#FFFFFF;align=center;strokeColor=none;rotation=0;horizontal=1;fillColor=#98A2AE;" vertex="1" parent="1">
          <mxGeometry x="568" y="680.89" width="37" height="16.25" as="geometry" />
        </mxCell>
        <mxCell id="hSaHa6GIb4maSIc4nTPl-30" value="192.168.1.1/31" style="rounded=0;whiteSpace=wrap;html=1;fontFamily=Fira Code;fontSize=9;fontColor=#FFFFFF;align=right;strokeColor=none;rotation=0;horizontal=1;fontSource=https%3A%2F%2Ffonts.googleapis.com%2Fcss%3Ffamily%3DFira%2BCode;fillColor=#bec8d2;" vertex="1" parent="1">
          <mxGeometry x="486" y="697.14" width="119" height="15.87" as="geometry" />
        </mxCell>
        <mxCell id="hSaHa6GIb4maSIc4nTPl-31" value="&lt;span style=&quot;font-size: 10px&quot;&gt;eth1&lt;/span&gt;" style="rounded=0;whiteSpace=wrap;html=1;fontFamily=Manrope;fontSize=12;fontColor=#FFFFFF;align=center;strokeColor=none;rotation=0;horizontal=1;fillColor=#98A2AE;" vertex="1" parent="1">
          <mxGeometry x="300.12" y="646" width="37" height="16.25" as="geometry" />
        </mxCell>
        <mxCell id="hSaHa6GIb4maSIc4nTPl-32" value="&lt;span style=&quot;font-size: 10px&quot;&gt;eth2&lt;/span&gt;" style="rounded=0;whiteSpace=wrap;html=1;fontFamily=Manrope;fontSize=12;fontColor=#FFFFFF;align=center;strokeColor=none;rotation=0;horizontal=1;fillColor=#98A2AE;" vertex="1" parent="1">
          <mxGeometry x="300.12" y="680.88" width="37" height="16.25" as="geometry" />
        </mxCell>
        <mxCell id="hSaHa6GIb4maSIc4nTPl-33" value="&lt;span style=&quot;font-size: 10px&quot;&gt;eth2&lt;/span&gt;" style="rounded=0;whiteSpace=wrap;html=1;fontFamily=Manrope;fontSize=12;fontColor=#FFFFFF;align=center;strokeColor=none;rotation=0;horizontal=1;fillColor=#98A2AE;" vertex="1" parent="1">
          <mxGeometry x="407.12" y="646" width="37" height="16.25" as="geometry" />
        </mxCell>
        <mxCell id="hSaHa6GIb4maSIc4nTPl-34" value="&lt;span style=&quot;font-size: 10px&quot;&gt;eth4&lt;/span&gt;" style="rounded=0;whiteSpace=wrap;html=1;fontFamily=Manrope;fontSize=12;fontColor=#FFFFFF;align=center;strokeColor=none;rotation=0;horizontal=1;fillColor=#98A2AE;" vertex="1" parent="1">
          <mxGeometry x="407.12" y="680.89" width="37" height="16.25" as="geometry" />
        </mxCell>
        <mxCell id="hSaHa6GIb4maSIc4nTPl-35" style="edgeStyle=orthogonalEdgeStyle;rounded=0;orthogonalLoop=1;jettySize=auto;html=1;fontFamily=Manrope;fontSize=12;fontColor=#FFFFFF;endArrow=oval;endFill=1;startArrow=oval;startFill=1;strokeColor=#98A2AE;exitX=0;exitY=0.5;exitDx=0;exitDy=0;" edge="1" parent="1" source="7C8ybS8YBStuCCjqtTJ8-66">
          <mxGeometry relative="1" as="geometry">
            <mxPoint x="558" y="653.93" as="sourcePoint" />
            <mxPoint x="444" y="654" as="targetPoint" />
          </mxGeometry>
        </mxCell>
        <mxCell id="hSaHa6GIb4maSIc4nTPl-36" style="edgeStyle=orthogonalEdgeStyle;rounded=0;orthogonalLoop=1;jettySize=auto;html=1;fontFamily=Manrope;fontSize=12;fontColor=#FFFFFF;endArrow=oval;endFill=1;startArrow=oval;startFill=1;strokeColor=#98A2AE;exitX=0;exitY=0.5;exitDx=0;exitDy=0;" edge="1" parent="1">
          <mxGeometry relative="1" as="geometry">
            <mxPoint x="568.12" y="690" as="sourcePoint" />
            <mxPoint x="444.12" y="690" as="targetPoint" />
          </mxGeometry>
        </mxCell>
        <mxCell id="hSaHa6GIb4maSIc4nTPl-37" value="&lt;font&gt;Wemulate&lt;/font&gt;" style="text;html=1;align=center;verticalAlign=middle;resizable=0;points=[];autosize=1;fontSize=14;fontFamily=Manrope;fontStyle=0;fontColor=#FFFFFF;" vertex="1" parent="1">
          <mxGeometry x="329.75" y="713" width="84" height="30" as="geometry" />
        </mxCell>
      </root>
    </mxGraphModel>
  </diagram>
</mxfile>
